<svg xmlns="http://www.w3.org/2000/svg" width="1920" height="1080" viewBox="0 0 1920 1080" shape-rendering="crispEdges">
<rect width="1920" height="1080" fill="#191536"/><rect x="1026" y="969" width="3" height="3" fill="#6f6c9a"/><rect x="639" y="51" width="3" height="3" fill="#6f6c9a"/><rect x="1263" y="315" width="3" height="3" fill="#6f6c9a"/><rect x="1089" y="171" width="3" height="3" fill="#6f6c9a"/><rect x="1260" y="1056" width="3" height="3" fill="#6f6c9a"/><rect x="1257" y="1059" width="9" height="3" fill="#6f6c9a"/><rect x="1260" y="1062" width="3" height="3" fill="#6f6c9a"/><rect x="1404" y="102" width="3" height="3" fill="#6f6c9a"/><rect x="1869" y="792" width="3" height="3" fill="#6f6c9a"/><rect x="618" y="768" width="3" height="3" fill="#6f6c9a"/><rect x="615" y="771" width="9" height="3" fill="#6f6c9a"/><rect x="618" y="774" width="3" height="3" fill="#6f6c9a"/><rect x="66" y="231" width="3" height="3" fill="#6f6c9a"/><rect x="1233" y="-3" width="3" height="3" fill="#6f6c9a"/><rect x="1230" y="0" width="9" height="3" fill="#6f6c9a"/><rect x="1233" y="3" width="3" height="3" fill="#6f6c9a"/><rect x="366" y="117" width="3" height="3" fill="#a8a6c8"/><rect x="363" y="120" width="9" height="3" fill="#a8a6c8"/><rect x="366" y="123" width="3" height="3" fill="#a8a6c8"/><rect x="1587" y="75" width="3" height="3" fill="#ffffff"/><rect x="1680" y="987" width="3" height="3" fill="#6f6c9a"/><rect x="1494" y="936" width="3" height="3" fill="#a8a6c8"/><rect x="1560" y="174" width="3" height="3" fill="#a8a6c8"/><rect x="249" y="180" width="3" height="3" fill="#6f6c9a"/><rect x="471" y="840" width="3" height="3" fill="#6f6c9a"/><rect x="618" y="1059" width="3" height="3" fill="#6f6c9a"/><rect x="1455" y="48" width="3" height="3" fill="#6f6c9a"/><rect x="1452" y="51" width="9" height="3" fill="#6f6c9a"/><rect x="1455" y="54" width="3" height="3" fill="#6f6c9a"/><rect x="1248" y="327" width="3" height="3" fill="#6f6c9a"/><rect x="1578" y="1065" width="3" height="3" fill="#ffffff"/><rect x="1575" y="1068" width="9" height="3" fill="#ffffff"/><rect x="1578" y="1071" width="3" height="3" fill="#ffffff"/><rect x="345" y="45" width="3" height="3" fill="#a8a6c8"/><rect x="633" y="633" width="3" height="3" fill="#6f6c9a"/><rect x="57" y="339" width="3" height="3" fill="#6f6c9a"/><rect x="36" y="756" width="3" height="3" fill="#a8a6c8"/><rect x="1899" y="1050" width="3" height="3" fill="#6f6c9a"/><rect x="63" y="579" width="3" height="3" fill="#a8a6c8"/><rect x="1251" y="357" width="3" height="3" fill="#a8a6c8"/><rect x="648" y="132" width="3" height="3" fill="#ffffff"/><rect x="1254" y="816" width="3" height="3" fill="#6f6c9a"/><rect x="1605" y="1059" width="3" height="3" fill="#6f6c9a"/><rect x="1062" y="24" width="3" height="3" fill="#6f6c9a"/><rect x="1059" y="27" width="9" height="3" fill="#6f6c9a"/><rect x="1062" y="30" width="3" height="3" fill="#6f6c9a"/><rect x="1911" y="318" width="3" height="3" fill="#6f6c9a"/><rect x="1908" y="321" width="9" height="3" fill="#6f6c9a"/><rect x="1911" y="324" width="3" height="3" fill="#6f6c9a"/><rect x="555" y="42" width="3" height="3" fill="#6f6c9a"/><rect x="615" y="774" width="3" height="3" fill="#a8a6c8"/><rect x="834" y="165" width="3" height="3" fill="#6f6c9a"/><rect x="114" y="1074" width="3" height="3" fill="#6f6c9a"/><rect x="1077" y="24" width="3" height="3" fill="#a8a6c8"/><rect x="1074" y="27" width="9" height="3" fill="#a8a6c8"/><rect x="1077" y="30" width="3" height="3" fill="#a8a6c8"/><rect x="1839" y="1011" width="3" height="3" fill="#6f6c9a"/><rect x="1299" y="1071" width="3" height="3" fill="#6f6c9a"/><rect x="627" y="393" width="3" height="3" fill="#a8a6c8"/><rect x="468" y="852" width="3" height="3" fill="#6f6c9a"/><rect x="465" y="855" width="9" height="3" fill="#6f6c9a"/><rect x="468" y="858" width="3" height="3" fill="#6f6c9a"/><rect x="1716" y="984" width="3" height="3" fill="#a8a6c8"/><rect x="1713" y="987" width="9" height="3" fill="#a8a6c8"/><rect x="1716" y="990" width="3" height="3" fill="#a8a6c8"/><rect x="1482" y="168" width="3" height="3" fill="#ffffff"/><rect x="615" y="15" width="3" height="3" fill="#6f6c9a"/><rect x="615" y="384" width="3" height="3" fill="#6f6c9a"/><rect x="327" y="840" width="3" height="3" fill="#6f6c9a"/><rect x="1725" y="150" width="3" height="3" fill="#6f6c9a"/><rect x="1248" y="540" width="3" height="3" fill="#a8a6c8"/><rect x="282" y="135" width="3" height="3" fill="#6f6c9a"/><rect x="660" y="387" width="3" height="3" fill="#6f6c9a"/><rect x="291" y="132" width="3" height="3" fill="#6f6c9a"/><rect x="36" y="858" width="3" height="3" fill="#6f6c9a"/><rect x="1623" y="45" width="3" height="3" fill="#a8a6c8"/><rect x="1620" y="48" width="9" height="3" fill="#a8a6c8"/><rect x="1623" y="51" width="3" height="3" fill="#a8a6c8"/><rect x="672" y="1065" width="3" height="3" fill="#6f6c9a"/><rect x="1908" y="306" width="3" height="3" fill="#6f6c9a"/><rect x="1134" y="168" width="3" height="3" fill="#6f6c9a"/><rect x="1659" y="54" width="3" height="3" fill="#6f6c9a"/><rect x="1890" y="135" width="3" height="3" fill="#6f6c9a"/><rect x="486" y="117" width="3" height="3" fill="#6f6c9a"/><rect x="1566" y="114" width="3" height="3" fill="#a8a6c8"/><rect x="1704" y="837" width="3" height="3" fill="#6f6c9a"/><rect x="1824" y="1074" width="3" height="3" fill="#a8a6c8"/><rect x="621" y="237" width="3" height="3" fill="#a8a6c8"/><rect x="219" y="21" width="3" height="3" fill="#6f6c9a"/><rect x="1788" y="1074" width="3" height="3" fill="#a8a6c8"/><rect x="609" y="12" width="3" height="3" fill="#6f6c9a"/><rect x="1281" y="48" width="3" height="3" fill="#6f6c9a"/><rect x="1278" y="780" width="3" height="3" fill="#6f6c9a"/><rect x="1914" y="258" width="3" height="3" fill="#6f6c9a"/><rect x="501" y="105" width="3" height="3" fill="#6f6c9a"/><rect x="1038" y="1053" width="3" height="3" fill="#6f6c9a"/><rect x="1035" y="1056" width="9" height="3" fill="#6f6c9a"/><rect x="1038" y="1059" width="3" height="3" fill="#6f6c9a"/><rect x="18" y="828" width="3" height="3" fill="#6f6c9a"/><rect x="1878" y="1038" width="3" height="3" fill="#a8a6c8"/><rect x="1905" y="738" width="3" height="3" fill="#6f6c9a"/><rect x="1560" y="168" width="3" height="3" fill="#6f6c9a"/><rect x="1566" y="99" width="3" height="3" fill="#6f6c9a"/><rect x="363" y="60" width="3" height="3" fill="#6f6c9a"/><rect x="1167" y="147" width="3" height="3" fill="#6f6c9a"/><rect x="1791" y="150" width="3" height="3" fill="#6f6c9a"/><rect x="258" y="1059" width="3" height="3" fill="#6f6c9a"/><rect x="939" y="30" width="3" height="3" fill="#a8a6c8"/><rect x="936" y="33" width="9" height="3" fill="#a8a6c8"/><rect x="939" y="36" width="3" height="3" fill="#a8a6c8"/><rect x="660" y="684" width="3" height="3" fill="#a8a6c8"/><rect x="1668" y="144" width="3" height="3" fill="#6f6c9a"/><rect x="681" y="831" width="3" height="3" fill="#6f6c9a"/><rect x="612" y="0" width="3" height="3" fill="#a8a6c8"/><rect x="291" y="117" width="3" height="3" fill="#6f6c9a"/><rect x="1473" y="156" width="3" height="3" fill="#ffffff"/><rect x="588" y="1044" width="3" height="3" fill="#6f6c9a"/><rect x="111" y="129" width="3" height="3" fill="#a8a6c8"/><rect x="1416" y="114" width="3" height="3" fill="#a8a6c8"/><rect x="999" y="978" width="3" height="3" fill="#6f6c9a"/><rect x="996" y="981" width="9" height="3" fill="#6f6c9a"/><rect x="999" y="984" width="3" height="3" fill="#6f6c9a"/><rect x="42" y="780" width="3" height="3" fill="#ffffff"/><rect x="1242" y="81" width="3" height="3" fill="#a8a6c8"/><rect x="1239" y="657" width="3" height="3" fill="#6f6c9a"/><rect x="1134" y="927" width="3" height="3" fill="#6f6c9a"/><rect x="1494" y="924" width="3" height="3" fill="#a8a6c8"/><rect x="831" y="147" width="3" height="3" fill="#ffffff"/><rect x="138" y="96" width="3" height="3" fill="#6f6c9a"/><rect x="1338" y="855" width="3" height="3" fill="#6f6c9a"/><rect x="24" y="438" width="3" height="3" fill="#6f6c9a"/><rect x="1461" y="981" width="3" height="3" fill="#ffffff"/><rect x="378" y="138" width="3" height="3" fill="#6f6c9a"/><rect x="375" y="141" width="9" height="3" fill="#6f6c9a"/><rect x="378" y="144" width="3" height="3" fill="#6f6c9a"/><rect x="951" y="36" width="3" height="3" fill="#6f6c9a"/><rect x="1725" y="1050" width="3" height="3" fill="#6f6c9a"/><rect x="1722" y="1053" width="9" height="3" fill="#6f6c9a"/><rect x="1725" y="1056" width="3" height="3" fill="#6f6c9a"/><rect x="1245" y="420" width="3" height="3" fill="#ffffff"/><rect x="1338" y="1071" width="3" height="3" fill="#6f6c9a"/><rect x="183" y="849" width="3" height="3" fill="#6f6c9a"/><rect x="1278" y="489" width="3" height="3" fill="#ffffff"/><rect x="477" y="144" width="3" height="3" fill="#a8a6c8"/><rect x="366" y="852" width="3" height="3" fill="#ffffff"/><rect x="1137" y="9" width="3" height="3" fill="#6f6c9a"/><rect x="1554" y="63" width="3" height="3" fill="#6f6c9a"/><rect x="39" y="624" width="3" height="3" fill="#6f6c9a"/><rect x="984" y="1038" width="3" height="3" fill="#ffffff"/><rect x="1272" y="387" width="3" height="3" fill="#6f6c9a"/><rect x="1107" y="969" width="3" height="3" fill="#6f6c9a"/><rect x="1242" y="771" width="3" height="3" fill="#a8a6c8"/><rect x="1239" y="774" width="9" height="3" fill="#a8a6c8"/><rect x="1242" y="777" width="3" height="3" fill="#a8a6c8"/><rect x="1827" y="1038" width="3" height="3" fill="#6f6c9a"/><rect x="306" y="153" width="3" height="3" fill="#6f6c9a"/><rect x="642" y="753" width="3" height="3" fill="#a8a6c8"/><rect x="33" y="621" width="3" height="3" fill="#a8a6c8"/><rect x="30" y="624" width="9" height="3" fill="#a8a6c8"/><rect x="33" y="627" width="3" height="3" fill="#a8a6c8"/><rect x="966" y="1071" width="3" height="3" fill="#a8a6c8"/><rect x="1305" y="213" width="3" height="3" fill="#6f6c9a"/><rect x="1302" y="216" width="9" height="3" fill="#6f6c9a"/><rect x="1305" y="219" width="3" height="3" fill="#6f6c9a"/><rect x="996" y="54" width="3" height="3" fill="#a8a6c8"/>
<text x="967" y="125" font-family="'Press Start 2P'" font-size="56" text-anchor="middle" letter-spacing="5" fill="#100d20">THE STACK</text><text x="960" y="118" font-family="'Press Start 2P'" font-size="56" text-anchor="middle" letter-spacing="5" fill="#ffffff">THE STACK</text>
<polygon points="104,214 582,214 582,214 588,214 588,220 588,220 594,220 594,226 594,226 600,226 600,232 600,232 606,232 606,238 606,238 606,286 606,286 606,292 600,292 600,292 600,298 594,298 594,298 594,304 588,304 588,304 588,310 582,310 582,310 104,310 104,310 98,310 98,304 98,304 92,304 92,298 92,298 86,298 86,292 86,292 80,292 80,286 80,286 80,238 80,238 80,232 86,232 86,232 86,226 92,226 92,226 92,220 98,220 98,220 98,214 104,214" fill="#100d20"/><polygon points="104,190 582,190 582,190 588,190 588,196 588,196 594,196 594,202 594,202 600,202 600,208 600,208 606,208 606,214 606,214 606,262 606,262 606,268 600,268 600,268 600,274 594,274 594,274 594,280 588,280 588,280 588,286 582,286 582,286 104,286 104,286 98,286 98,280 98,280 92,280 92,274 92,274 86,274 86,268 86,268 80,268 80,262 80,262 80,214 80,214 80,208 86,208 86,208 86,202 92,202 92,202 92,196 98,196 98,196 98,190 104,190" fill="#0b4a59"/><polygon points="104,196 582,196 582,196 588,196 588,202 588,202 594,202 594,208 594,208 600,208 600,214 600,214 600,262 600,262 600,268 594,268 594,268 594,274 588,274 588,274 588,280 582,280 582,280 104,280 104,280 98,280 98,274 98,274 92,274 92,268 92,268 86,268 86,262 86,262 86,214 86,214 86,208 92,208 92,208 92,202 98,202 98,202 98,196 104,196" fill="#22a2bd"/><rect x="104" y="196" width="478" height="6" fill="#68dcef"/><rect x="86" y="214" width="6" height="48" fill="#68dcef"/><rect x="104" y="274" width="478" height="6" fill="#137689"/><rect x="594" y="214" width="6" height="48" fill="#137689"/><text x="347" y="256" font-family="'Press Start 2P'" font-size="32" text-anchor="middle" letter-spacing="2" fill="#100d20">THE BROWSER</text><text x="343" y="252" font-family="'Press Start 2P'" font-size="32" text-anchor="middle" letter-spacing="2" fill="#ffffff">THE BROWSER</text><polygon points="104,330 582,330 582,330 588,330 588,336 588,336 594,336 594,342 594,342 600,342 600,348 600,348 606,348 606,354 606,354 606,804 606,804 606,810 600,810 600,810 600,816 594,816 594,816 594,822 588,822 588,822 588,828 582,828 582,828 104,828 104,828 98,828 98,822 98,822 92,822 92,816 92,816 86,816 86,810 86,810 80,810 80,804 80,804 80,354 80,354 80,348 86,348 86,348 86,342 92,342 92,342 92,336 98,336 98,336 98,330 104,330" fill="#100d20"/><polygon points="104,336 582,336 582,336 588,336 588,342 588,342 594,342 594,348 594,348 600,348 600,354 600,354 600,804 600,804 600,810 594,810 594,810 594,816 588,816 588,816 588,822 582,822 582,822 104,822 104,822 98,822 98,816 98,816 92,816 92,810 92,810 86,810 86,804 86,804 86,354 86,354 86,348 92,348 92,348 92,342 98,342 98,342 98,336 104,336" fill="#1e1b38"/><rect x="104" y="816" width="478" height="6" fill="#3a3560"/><rect x="104" y="336" width="478" height="6" fill="#12102a"/><polygon points="124,374 562,374 562,374 566,374 566,378 566,378 570,378 570,382 570,382 574,382 574,386 574,386 578,386 578,390 578,390 578,404 578,404 578,408 574,408 574,408 574,412 570,412 570,412 570,416 566,416 566,416 566,420 562,420 562,420 124,420 124,420 120,420 120,416 120,416 116,416 116,412 116,412 112,412 112,408 112,408 108,408 108,404 108,404 108,390 108,390 108,386 112,386 112,386 112,382 116,382 116,382 116,378 120,378 120,378 120,374 124,374" fill="#100d20"/><polygon points="124,358 562,358 562,358 566,358 566,362 566,362 570,362 570,366 570,366 574,366 574,370 574,370 578,370 578,374 578,374 578,388 578,388 578,392 574,392 574,392 574,396 570,396 570,396 570,400 566,400 566,400 566,404 562,404 562,404 124,404 124,404 120,404 120,400 120,400 116,400 116,396 116,396 112,396 112,392 112,392 108,392 108,388 108,388 108,374 108,374 108,370 112,370 112,370 112,366 116,366 116,366 116,362 120,362 120,362 120,358 124,358" fill="#272552"/><polygon points="124,362 562,362 562,362 566,362 566,366 566,366 570,366 570,370 570,370 574,370 574,374 574,374 574,388 574,388 574,392 570,392 570,392 570,396 566,396 566,396 566,400 562,400 562,400 124,400 124,400 120,400 120,396 120,396 116,396 116,392 116,392 112,392 112,388 112,388 112,374 112,374 112,370 116,370 116,370 116,366 120,366 120,366 120,362 124,362" fill="#5b58a8"/><rect x="124" y="362" width="438" height="4" fill="#8e8ad8"/><rect x="112" y="374" width="4" height="14" fill="#8e8ad8"/><rect x="124" y="396" width="438" height="4" fill="#3c3a7a"/><rect x="570" y="374" width="4" height="14" fill="#3c3a7a"/><text x="343" y="390" font-family="'Press Start 2P'" font-size="22" text-anchor="middle" letter-spacing="1" fill="#ffffff">REACT 19.3</text><polygon points="124,450 562,450 562,450 566,450 566,454 566,454 570,454 570,458 570,458 574,458 574,462 574,462 578,462 578,466 578,466 578,480 578,480 578,484 574,484 574,484 574,488 570,488 570,488 570,492 566,492 566,492 566,496 562,496 562,496 124,496 124,496 120,496 120,492 120,492 116,492 116,488 116,488 112,488 112,484 112,484 108,484 108,480 108,480 108,466 108,466 108,462 112,462 112,462 112,458 116,458 116,458 116,454 120,454 120,454 120,450 124,450" fill="#100d20"/><polygon points="124,434 562,434 562,434 566,434 566,438 566,438 570,438 570,442 570,442 574,442 574,446 574,446 578,446 578,450 578,450 578,464 578,464 578,468 574,468 574,468 574,472 570,472 570,472 570,476 566,476 566,476 566,480 562,480 562,480 124,480 124,480 120,480 120,476 120,476 116,476 116,472 116,472 112,472 112,468 112,468 108,468 108,464 108,464 108,450 108,450 108,446 112,446 112,446 112,442 116,442 116,442 116,438 120,438 120,438 120,434 124,434" fill="#272552"/><polygon points="124,438 562,438 562,438 566,438 566,442 566,442 570,442 570,446 570,446 574,446 574,450 574,450 574,464 574,464 574,468 570,468 570,468 570,472 566,472 566,472 566,476 562,476 562,476 124,476 124,476 120,476 120,472 120,472 116,472 116,468 116,468 112,468 112,464 112,464 112,450 112,450 112,446 116,446 116,446 116,442 120,442 120,442 120,438 124,438" fill="#5b58a8"/><rect x="124" y="438" width="438" height="4" fill="#8e8ad8"/><rect x="112" y="450" width="4" height="14" fill="#8e8ad8"/><rect x="124" y="472" width="438" height="4" fill="#3c3a7a"/><rect x="570" y="450" width="4" height="14" fill="#3c3a7a"/><text x="343" y="466" font-family="'Press Start 2P'" font-size="22" text-anchor="middle" letter-spacing="1" fill="#ffffff">TYPESCRIPT 6.0</text><polygon points="124,526 562,526 562,526 566,526 566,530 566,530 570,530 570,534 570,534 574,534 574,538 574,538 578,538 578,542 578,542 578,556 578,556 578,560 574,560 574,560 574,564 570,564 570,564 570,568 566,568 566,568 566,572 562,572 562,572 124,572 124,572 120,572 120,568 120,568 116,568 116,564 116,564 112,564 112,560 112,560 108,560 108,556 108,556 108,542 108,542 108,538 112,538 112,538 112,534 116,534 116,534 116,530 120,530 120,530 120,526 124,526" fill="#100d20"/><polygon points="124,510 562,510 562,510 566,510 566,514 566,514 570,514 570,518 570,518 574,518 574,522 574,522 578,522 578,526 578,526 578,540 578,540 578,544 574,544 574,544 574,548 570,548 570,548 570,552 566,552 566,552 566,556 562,556 562,556 124,556 124,556 120,556 120,552 120,552 116,552 116,548 116,548 112,548 112,544 112,544 108,544 108,540 108,540 108,526 108,526 108,522 112,522 112,522 112,518 116,518 116,518 116,514 120,514 120,514 120,510 124,510" fill="#272552"/><polygon points="124,514 562,514 562,514 566,514 566,518 566,518 570,518 570,522 570,522 574,522 574,526 574,526 574,540 574,540 574,544 570,544 570,544 570,548 566,548 566,548 566,552 562,552 562,552 124,552 124,552 120,552 120,548 120,548 116,548 116,544 116,544 112,544 112,540 112,540 112,526 112,526 112,522 116,522 116,522 116,518 120,518 120,518 120,514 124,514" fill="#5b58a8"/><rect x="124" y="514" width="438" height="4" fill="#8e8ad8"/><rect x="112" y="526" width="4" height="14" fill="#8e8ad8"/><rect x="124" y="548" width="438" height="4" fill="#3c3a7a"/><rect x="570" y="526" width="4" height="14" fill="#3c3a7a"/><text x="343" y="542" font-family="'Press Start 2P'" font-size="22" text-anchor="middle" letter-spacing="1" fill="#ffffff">TAILWIND 4.3</text><polygon points="124,602 562,602 562,602 566,602 566,606 566,606 570,606 570,610 570,610 574,610 574,614 574,614 578,614 578,618 578,618 578,632 578,632 578,636 574,636 574,636 574,640 570,640 570,640 570,644 566,644 566,644 566,648 562,648 562,648 124,648 124,648 120,648 120,644 120,644 116,644 116,640 116,640 112,640 112,636 112,636 108,636 108,632 108,632 108,618 108,618 108,614 112,614 112,614 112,610 116,610 116,610 116,606 120,606 120,606 120,602 124,602" fill="#100d20"/><polygon points="124,586 562,586 562,586 566,586 566,590 566,590 570,590 570,594 570,594 574,594 574,598 574,598 578,598 578,602 578,602 578,616 578,616 578,620 574,620 574,620 574,624 570,624 570,624 570,628 566,628 566,628 566,632 562,632 562,632 124,632 124,632 120,632 120,628 120,628 116,628 116,624 116,624 112,624 112,620 112,620 108,620 108,616 108,616 108,602 108,602 108,598 112,598 112,598 112,594 116,594 116,594 116,590 120,590 120,590 120,586 124,586" fill="#272552"/><polygon points="124,590 562,590 562,590 566,590 566,594 566,594 570,594 570,598 570,598 574,598 574,602 574,602 574,616 574,616 574,620 570,620 570,620 570,624 566,624 566,624 566,628 562,628 562,628 124,628 124,628 120,628 120,624 120,624 116,624 116,620 116,620 112,620 112,616 112,616 112,602 112,602 112,598 116,598 116,598 116,594 120,594 120,594 120,590 124,590" fill="#5b58a8"/><rect x="124" y="590" width="438" height="4" fill="#8e8ad8"/><rect x="112" y="602" width="4" height="14" fill="#8e8ad8"/><rect x="124" y="624" width="438" height="4" fill="#3c3a7a"/><rect x="570" y="602" width="4" height="14" fill="#3c3a7a"/><text x="343" y="618" font-family="'Press Start 2P'" font-size="22" text-anchor="middle" letter-spacing="1" fill="#ffffff">4 CANVAS SCENES</text><polygon points="124,678 562,678 562,678 566,678 566,682 566,682 570,682 570,686 570,686 574,686 574,690 574,690 578,690 578,694 578,694 578,708 578,708 578,712 574,712 574,712 574,716 570,716 570,716 570,720 566,720 566,720 566,724 562,724 562,724 124,724 124,724 120,724 120,720 120,720 116,720 116,716 116,716 112,716 112,712 112,712 108,712 108,708 108,708 108,694 108,694 108,690 112,690 112,690 112,686 116,686 116,686 116,682 120,682 120,682 120,678 124,678" fill="#100d20"/><polygon points="124,662 562,662 562,662 566,662 566,666 566,666 570,666 570,670 570,670 574,670 574,674 574,674 578,674 578,678 578,678 578,692 578,692 578,696 574,696 574,696 574,700 570,700 570,700 570,704 566,704 566,704 566,708 562,708 562,708 124,708 124,708 120,708 120,704 120,704 116,704 116,700 116,700 112,700 112,696 112,696 108,696 108,692 108,692 108,678 108,678 108,674 112,674 112,674 112,670 116,670 116,670 116,666 120,666 120,666 120,662 124,662" fill="#272552"/><polygon points="124,666 562,666 562,666 566,666 566,670 566,670 570,670 570,674 570,674 574,674 574,678 574,678 574,692 574,692 574,696 570,696 570,696 570,700 566,700 566,700 566,704 562,704 562,704 124,704 124,704 120,704 120,700 120,700 116,700 116,696 116,696 112,696 112,692 112,692 112,678 112,678 112,674 116,674 116,674 116,670 120,670 120,670 120,666 124,666" fill="#5b58a8"/><rect x="124" y="666" width="438" height="4" fill="#8e8ad8"/><rect x="112" y="678" width="4" height="14" fill="#8e8ad8"/><rect x="124" y="700" width="438" height="4" fill="#3c3a7a"/><rect x="570" y="678" width="4" height="14" fill="#3c3a7a"/><text x="343" y="694" font-family="'Press Start 2P'" font-size="22" text-anchor="middle" letter-spacing="1" fill="#ffffff">THE GRAPH 514KB</text><polygon points="124,754 562,754 562,754 566,754 566,758 566,758 570,758 570,762 570,762 574,762 574,766 574,766 578,766 578,770 578,770 578,784 578,784 578,788 574,788 574,788 574,792 570,792 570,792 570,796 566,796 566,796 566,800 562,800 562,800 124,800 124,800 120,800 120,796 120,796 116,796 116,792 116,792 112,792 112,788 112,788 108,788 108,784 108,784 108,770 108,770 108,766 112,766 112,766 112,762 116,762 116,762 116,758 120,758 120,758 120,754 124,754" fill="#100d20"/><polygon points="124,738 562,738 562,738 566,738 566,742 566,742 570,742 570,746 570,746 574,746 574,750 574,750 578,750 578,754 578,754 578,768 578,768 578,772 574,772 574,772 574,776 570,776 570,776 570,780 566,780 566,780 566,784 562,784 562,784 124,784 124,784 120,784 120,780 120,780 116,780 116,776 116,776 112,776 112,772 112,772 108,772 108,768 108,768 108,754 108,754 108,750 112,750 112,750 112,746 116,746 116,746 116,742 120,742 120,742 120,738 124,738" fill="#272552"/><polygon points="124,742 562,742 562,742 566,742 566,746 566,746 570,746 570,750 570,750 574,750 574,754 574,754 574,768 574,768 574,772 570,772 570,772 570,776 566,776 566,776 566,780 562,780 562,780 124,780 124,780 120,780 120,776 120,776 116,776 116,772 116,772 112,772 112,768 112,768 112,754 112,754 112,750 116,750 116,750 116,746 120,746 120,746 120,742 124,742" fill="#5b58a8"/><rect x="124" y="742" width="438" height="4" fill="#8e8ad8"/><rect x="112" y="754" width="4" height="14" fill="#8e8ad8"/><rect x="124" y="776" width="438" height="4" fill="#3c3a7a"/><rect x="570" y="754" width="4" height="14" fill="#3c3a7a"/><text x="343" y="770" font-family="'Press Start 2P'" font-size="19" text-anchor="middle" letter-spacing="1" fill="#ffffff">localStorage 6 KEYS</text><rect x="618" y="239" width="48" height="6" fill="#e8752c"/><rect x="678" y="239" width="6" height="6" fill="#e8752c"/><rect x="672" y="233" width="6" height="18" fill="#e8752c"/><rect x="666" y="227" width="6" height="30" fill="#e8752c"/><text x="651" y="176" font-family="'Press Start 2P'" font-size="20" text-anchor="middle" letter-spacing="0" fill="#e8752c">1,761 bytes</text><polygon points="720,214 1198,214 1198,214 1204,214 1204,220 1204,220 1210,220 1210,226 1210,226 1216,226 1216,232 1216,232 1222,232 1222,238 1222,238 1222,286 1222,286 1222,292 1216,292 1216,292 1216,298 1210,298 1210,298 1210,304 1204,304 1204,304 1204,310 1198,310 1198,310 720,310 720,310 714,310 714,304 714,304 708,304 708,298 708,298 702,298 702,292 702,292 696,292 696,286 696,286 696,238 696,238 696,232 702,232 702,232 702,226 708,226 708,226 708,220 714,220 714,220 714,214 720,214" fill="#100d20"/><polygon points="720,190 1198,190 1198,190 1204,190 1204,196 1204,196 1210,196 1210,202 1210,202 1216,202 1216,208 1216,208 1222,208 1222,214 1222,214 1222,262 1222,262 1222,268 1216,268 1216,268 1216,274 1210,274 1210,274 1210,280 1204,280 1204,280 1204,286 1198,286 1198,286 720,286 720,286 714,286 714,280 714,280 708,280 708,274 708,274 702,274 702,268 702,268 696,268 696,262 696,262 696,214 696,214 696,208 702,208 702,208 702,202 708,202 708,202 708,196 714,196 714,196 714,190 720,190" fill="#272552"/><polygon points="720,196 1198,196 1198,196 1204,196 1204,202 1204,202 1210,202 1210,208 1210,208 1216,208 1216,214 1216,214 1216,262 1216,262 1216,268 1210,268 1210,268 1210,274 1204,274 1204,274 1204,280 1198,280 1198,280 720,280 720,280 714,280 714,274 714,274 708,274 708,268 708,268 702,268 702,262 702,262 702,214 702,214 702,208 708,208 708,208 708,202 714,202 714,202 714,196 720,196" fill="#5b58a8"/><rect x="720" y="196" width="478" height="6" fill="#8e8ad8"/><rect x="702" y="214" width="6" height="48" fill="#8e8ad8"/><rect x="720" y="274" width="478" height="6" fill="#3c3a7a"/><rect x="1210" y="214" width="6" height="48" fill="#3c3a7a"/><text x="963" y="256" font-family="'Press Start 2P'" font-size="32" text-anchor="middle" letter-spacing="2" fill="#100d20">VERCEL</text><text x="959" y="252" font-family="'Press Start 2P'" font-size="32" text-anchor="middle" letter-spacing="2" fill="#ffffff">VERCEL</text><polygon points="720,330 1198,330 1198,330 1204,330 1204,336 1204,336 1210,336 1210,342 1210,342 1216,342 1216,348 1216,348 1222,348 1222,354 1222,354 1222,804 1222,804 1222,810 1216,810 1216,810 1216,816 1210,816 1210,816 1210,822 1204,822 1204,822 1204,828 1198,828 1198,828 720,828 720,828 714,828 714,822 714,822 708,822 708,816 708,816 702,816 702,810 702,810 696,810 696,804 696,804 696,354 696,354 696,348 702,348 702,348 702,342 708,342 708,342 708,336 714,336 714,336 714,330 720,330" fill="#100d20"/><polygon points="720,336 1198,336 1198,336 1204,336 1204,342 1204,342 1210,342 1210,348 1210,348 1216,348 1216,354 1216,354 1216,804 1216,804 1216,810 1210,810 1210,810 1210,816 1204,816 1204,816 1204,822 1198,822 1198,822 720,822 720,822 714,822 714,816 714,816 708,816 708,810 708,810 702,810 702,804 702,804 702,354 702,354 702,348 708,348 708,348 708,342 714,342 714,342 714,336 720,336" fill="#1e1b38"/><rect x="720" y="816" width="478" height="6" fill="#3a3560"/><rect x="720" y="336" width="478" height="6" fill="#12102a"/><polygon points="740,374 1178,374 1178,374 1182,374 1182,378 1182,378 1186,378 1186,382 1186,382 1190,382 1190,386 1190,386 1194,386 1194,390 1194,390 1194,404 1194,404 1194,408 1190,408 1190,408 1190,412 1186,412 1186,412 1186,416 1182,416 1182,416 1182,420 1178,420 1178,420 740,420 740,420 736,420 736,416 736,416 732,416 732,412 732,412 728,412 728,408 728,408 724,408 724,404 724,404 724,390 724,390 724,386 728,386 728,386 728,382 732,382 732,382 732,378 736,378 736,378 736,374 740,374" fill="#100d20"/><polygon points="740,358 1178,358 1178,358 1182,358 1182,362 1182,362 1186,362 1186,366 1186,366 1190,366 1190,370 1190,370 1194,370 1194,374 1194,374 1194,388 1194,388 1194,392 1190,392 1190,392 1190,396 1186,396 1186,396 1186,400 1182,400 1182,400 1182,404 1178,404 1178,404 740,404 740,404 736,404 736,400 736,400 732,400 732,396 732,396 728,396 728,392 728,392 724,392 724,388 724,388 724,374 724,374 724,370 728,370 728,370 728,366 732,366 732,366 732,362 736,362 736,362 736,358 740,358" fill="#272552"/><polygon points="740,362 1178,362 1178,362 1182,362 1182,366 1182,366 1186,366 1186,370 1186,370 1190,370 1190,374 1190,374 1190,388 1190,388 1190,392 1186,392 1186,392 1186,396 1182,396 1182,396 1182,400 1178,400 1178,400 740,400 740,400 736,400 736,396 736,396 732,396 732,392 732,392 728,392 728,388 728,388 728,374 728,374 728,370 732,370 732,370 732,366 736,366 736,366 736,362 740,362" fill="#5b58a8"/><rect x="740" y="362" width="438" height="4" fill="#8e8ad8"/><rect x="728" y="374" width="4" height="14" fill="#8e8ad8"/><rect x="740" y="396" width="438" height="4" fill="#3c3a7a"/><rect x="1186" y="374" width="4" height="14" fill="#3c3a7a"/><text x="959" y="390" font-family="'Press Start 2P'" font-size="22" text-anchor="middle" letter-spacing="1" fill="#ffffff">api/adjudicate.ts</text><polygon points="740,450 1178,450 1178,450 1182,450 1182,454 1182,454 1186,454 1186,458 1186,458 1190,458 1190,462 1190,462 1194,462 1194,466 1194,466 1194,480 1194,480 1194,484 1190,484 1190,484 1190,488 1186,488 1186,488 1186,492 1182,492 1182,492 1182,496 1178,496 1178,496 740,496 740,496 736,496 736,492 736,492 732,492 732,488 732,488 728,488 728,484 728,484 724,484 724,480 724,480 724,466 724,466 724,462 728,462 728,462 728,458 732,458 732,458 732,454 736,454 736,454 736,450 740,450" fill="#100d20"/><polygon points="740,434 1178,434 1178,434 1182,434 1182,438 1182,438 1186,438 1186,442 1186,442 1190,442 1190,446 1190,446 1194,446 1194,450 1194,450 1194,464 1194,464 1194,468 1190,468 1190,468 1190,472 1186,472 1186,472 1186,476 1182,476 1182,476 1182,480 1178,480 1178,480 740,480 740,480 736,480 736,476 736,476 732,476 732,472 732,472 728,472 728,468 728,468 724,468 724,464 724,464 724,450 724,450 724,446 728,446 728,446 728,442 732,442 732,442 732,438 736,438 736,438 736,434 740,434" fill="#272552"/><polygon points="740,438 1178,438 1178,438 1182,438 1182,442 1182,442 1186,442 1186,446 1186,446 1190,446 1190,450 1190,450 1190,464 1190,464 1190,468 1186,468 1186,468 1186,472 1182,472 1182,472 1182,476 1178,476 1178,476 740,476 740,476 736,476 736,472 736,472 732,472 732,468 732,468 728,468 728,464 728,464 728,450 728,450 728,446 732,446 732,446 732,442 736,442 736,442 736,438 740,438" fill="#5b58a8"/><rect x="740" y="438" width="438" height="4" fill="#8e8ad8"/><rect x="728" y="450" width="4" height="14" fill="#8e8ad8"/><rect x="740" y="472" width="438" height="4" fill="#3c3a7a"/><rect x="1186" y="450" width="4" height="14" fill="#3c3a7a"/><text x="959" y="466" font-family="'Press Start 2P'" font-size="22" text-anchor="middle" letter-spacing="1" fill="#ffffff">api/ask.ts</text><polygon points="740,526 1178,526 1178,526 1182,526 1182,530 1182,530 1186,530 1186,534 1186,534 1190,534 1190,538 1190,538 1194,538 1194,542 1194,542 1194,556 1194,556 1194,560 1190,560 1190,560 1190,564 1186,564 1186,564 1186,568 1182,568 1182,568 1182,572 1178,572 1178,572 740,572 740,572 736,572 736,568 736,568 732,568 732,564 732,564 728,564 728,560 728,560 724,560 724,556 724,556 724,542 724,542 724,538 728,538 728,538 728,534 732,534 732,534 732,530 736,530 736,530 736,526 740,526" fill="#100d20"/><polygon points="740,510 1178,510 1178,510 1182,510 1182,514 1182,514 1186,514 1186,518 1186,518 1190,518 1190,522 1190,522 1194,522 1194,526 1194,526 1194,540 1194,540 1194,544 1190,544 1190,544 1190,548 1186,548 1186,548 1186,552 1182,552 1182,552 1182,556 1178,556 1178,556 740,556 740,556 736,556 736,552 736,552 732,552 732,548 732,548 728,548 728,544 728,544 724,544 724,540 724,540 724,526 724,526 724,522 728,522 728,522 728,518 732,518 732,518 732,514 736,514 736,514 736,510 740,510" fill="#272552"/><polygon points="740,514 1178,514 1178,514 1182,514 1182,518 1182,518 1186,518 1186,522 1186,522 1190,522 1190,526 1190,526 1190,540 1190,540 1190,544 1186,544 1186,544 1186,548 1182,548 1182,548 1182,552 1178,552 1178,552 740,552 740,552 736,552 736,548 736,548 732,548 732,544 732,544 728,544 728,540 728,540 728,526 728,526 728,522 732,522 732,522 732,518 736,518 736,518 736,514 740,514" fill="#5b58a8"/><rect x="740" y="514" width="438" height="4" fill="#8e8ad8"/><rect x="728" y="526" width="4" height="14" fill="#8e8ad8"/><rect x="740" y="548" width="438" height="4" fill="#3c3a7a"/><rect x="1186" y="526" width="4" height="14" fill="#3c3a7a"/><text x="959" y="542" font-family="'Press Start 2P'" font-size="22" text-anchor="middle" letter-spacing="1" fill="#ffffff">@vercel/node 13</text><polygon points="740,602 1178,602 1178,602 1182,602 1182,606 1182,606 1186,606 1186,610 1186,610 1190,610 1190,614 1190,614 1194,614 1194,618 1194,618 1194,632 1194,632 1194,636 1190,636 1190,636 1190,640 1186,640 1186,640 1186,644 1182,644 1182,644 1182,648 1178,648 1178,648 740,648 740,648 736,648 736,644 736,644 732,644 732,640 732,640 728,640 728,636 728,636 724,636 724,632 724,632 724,618 724,618 724,614 728,614 728,614 728,610 732,610 732,610 732,606 736,606 736,606 736,602 740,602" fill="#100d20"/><polygon points="740,586 1178,586 1178,586 1182,586 1182,590 1182,590 1186,590 1186,594 1186,594 1190,594 1190,598 1190,598 1194,598 1194,602 1194,602 1194,616 1194,616 1194,620 1190,620 1190,620 1190,624 1186,624 1186,624 1186,628 1182,628 1182,628 1182,632 1178,632 1178,632 740,632 740,632 736,632 736,628 736,628 732,628 732,624 732,624 728,624 728,620 728,620 724,620 724,616 724,616 724,602 724,602 724,598 728,598 728,598 728,594 732,594 732,594 732,590 736,590 736,590 736,586 740,586" fill="#272552"/><polygon points="740,590 1178,590 1178,590 1182,590 1182,594 1182,594 1186,594 1186,598 1186,598 1190,598 1190,602 1190,602 1190,616 1190,616 1190,620 1186,620 1186,620 1186,624 1182,624 1182,624 1182,628 1178,628 1178,628 740,628 740,628 736,628 736,624 736,624 732,624 732,620 732,620 728,620 728,616 728,616 728,602 728,602 728,598 732,598 732,598 732,594 736,594 736,594 736,590 740,590" fill="#5b58a8"/><rect x="740" y="590" width="438" height="4" fill="#8e8ad8"/><rect x="728" y="602" width="4" height="14" fill="#8e8ad8"/><rect x="740" y="624" width="438" height="4" fill="#3c3a7a"/><rect x="1186" y="602" width="4" height="14" fill="#3c3a7a"/><text x="959" y="618" font-family="'Press Start 2P'" font-size="22" text-anchor="middle" letter-spacing="1" fill="#ffffff">EDGE CACHE</text><polygon points="740,678 1178,678 1178,678 1182,678 1182,682 1182,682 1186,682 1186,686 1186,686 1190,686 1190,690 1190,690 1194,690 1194,694 1194,694 1194,708 1194,708 1194,712 1190,712 1190,712 1190,716 1186,716 1186,716 1186,720 1182,720 1182,720 1182,724 1178,724 1178,724 740,724 740,724 736,724 736,720 736,720 732,720 732,716 732,716 728,716 728,712 728,712 724,712 724,708 724,708 724,694 724,694 724,690 728,690 728,690 728,686 732,686 732,686 732,682 736,682 736,682 736,678 740,678" fill="#100d20"/><polygon points="740,662 1178,662 1178,662 1182,662 1182,666 1182,666 1186,666 1186,670 1186,670 1190,670 1190,674 1190,674 1194,674 1194,678 1194,678 1194,692 1194,692 1194,696 1190,696 1190,696 1190,700 1186,700 1186,700 1186,704 1182,704 1182,704 1182,708 1178,708 1178,708 740,708 740,708 736,708 736,704 736,704 732,704 732,700 732,700 728,700 728,696 728,696 724,696 724,692 724,692 724,678 724,678 724,674 728,674 728,674 728,670 732,670 732,670 732,666 736,666 736,666 736,662 740,662" fill="#272552"/><polygon points="740,666 1178,666 1178,666 1182,666 1182,670 1182,670 1186,670 1186,674 1186,674 1190,674 1190,678 1190,678 1190,692 1190,692 1190,696 1186,696 1186,696 1186,700 1182,700 1182,700 1182,704 1178,704 1178,704 740,704 740,704 736,704 736,700 736,700 732,700 732,696 732,696 728,696 728,692 728,692 728,678 728,678 728,674 732,674 732,674 732,670 736,670 736,670 736,666 740,666" fill="#5b58a8"/><rect x="740" y="666" width="438" height="4" fill="#8e8ad8"/><rect x="728" y="678" width="4" height="14" fill="#8e8ad8"/><rect x="740" y="700" width="438" height="4" fill="#3c3a7a"/><rect x="1186" y="678" width="4" height="14" fill="#3c3a7a"/><text x="959" y="694" font-family="'Press Start 2P'" font-size="22" text-anchor="middle" letter-spacing="1" fill="#ffffff">GEMINI_API_KEY</text><polygon points="740,754 1178,754 1178,754 1182,754 1182,758 1182,758 1186,758 1186,762 1186,762 1190,762 1190,766 1190,766 1194,766 1194,770 1194,770 1194,784 1194,784 1194,788 1190,788 1190,788 1190,792 1186,792 1186,792 1186,796 1182,796 1182,796 1182,800 1178,800 1178,800 740,800 740,800 736,800 736,796 736,796 732,796 732,792 732,792 728,792 728,788 728,788 724,788 724,784 724,784 724,770 724,770 724,766 728,766 728,766 728,762 732,762 732,762 732,758 736,758 736,758 736,754 740,754" fill="#100d20"/><polygon points="740,738 1178,738 1178,738 1182,738 1182,742 1182,742 1186,742 1186,746 1186,746 1190,746 1190,750 1190,750 1194,750 1194,754 1194,754 1194,768 1194,768 1194,772 1190,772 1190,772 1190,776 1186,776 1186,776 1186,780 1182,780 1182,780 1182,784 1178,784 1178,784 740,784 740,784 736,784 736,780 736,780 732,780 732,776 732,776 728,776 728,772 728,772 724,772 724,768 724,768 724,754 724,754 724,750 728,750 728,750 728,746 732,746 732,746 732,742 736,742 736,742 736,738 740,738" fill="#272552"/><polygon points="740,742 1178,742 1178,742 1182,742 1182,746 1182,746 1186,746 1186,750 1186,750 1190,750 1190,754 1190,754 1190,768 1190,768 1190,772 1186,772 1186,772 1186,776 1182,776 1182,776 1182,780 1178,780 1178,780 740,780 740,780 736,780 736,776 736,776 732,776 732,772 732,772 728,772 728,768 728,768 728,754 728,754 728,750 732,750 732,750 732,746 736,746 736,746 736,742 740,742" fill="#5b58a8"/><rect x="740" y="742" width="438" height="4" fill="#8e8ad8"/><rect x="728" y="754" width="4" height="14" fill="#8e8ad8"/><rect x="740" y="776" width="438" height="4" fill="#3c3a7a"/><rect x="1186" y="754" width="4" height="14" fill="#3c3a7a"/><text x="959" y="770" font-family="'Press Start 2P'" font-size="22" text-anchor="middle" letter-spacing="1" fill="#ffffff">GODADDY DNS</text><rect x="1234" y="239" width="48" height="6" fill="#e8752c"/><rect x="1294" y="239" width="6" height="6" fill="#e8752c"/><rect x="1288" y="233" width="6" height="18" fill="#e8752c"/><rect x="1282" y="227" width="6" height="30" fill="#e8752c"/><text x="1267" y="176" font-family="'Press Start 2P'" font-size="20" text-anchor="middle" letter-spacing="0" fill="#e8752c">the prompt</text><polygon points="1336,214 1814,214 1814,214 1820,214 1820,220 1820,220 1826,220 1826,226 1826,226 1832,226 1832,232 1832,232 1838,232 1838,238 1838,238 1838,286 1838,286 1838,292 1832,292 1832,292 1832,298 1826,298 1826,298 1826,304 1820,304 1820,304 1820,310 1814,310 1814,310 1336,310 1336,310 1330,310 1330,304 1330,304 1324,304 1324,298 1324,298 1318,298 1318,292 1318,292 1312,292 1312,286 1312,286 1312,238 1312,238 1312,232 1318,232 1318,232 1318,226 1324,226 1324,226 1324,220 1330,220 1330,220 1330,214 1336,214" fill="#100d20"/><polygon points="1336,190 1814,190 1814,190 1820,190 1820,196 1820,196 1826,196 1826,202 1826,202 1832,202 1832,208 1832,208 1838,208 1838,214 1838,214 1838,262 1838,262 1838,268 1832,268 1832,268 1832,274 1826,274 1826,274 1826,280 1820,280 1820,280 1820,286 1814,286 1814,286 1336,286 1336,286 1330,286 1330,280 1330,280 1324,280 1324,274 1324,274 1318,274 1318,268 1318,268 1312,268 1312,262 1312,262 1312,214 1312,214 1312,208 1318,208 1318,208 1318,202 1324,202 1324,202 1324,196 1330,196 1330,196 1330,190 1336,190" fill="#7a3310"/><polygon points="1336,196 1814,196 1814,196 1820,196 1820,202 1820,202 1826,202 1826,208 1826,208 1832,208 1832,214 1832,214 1832,262 1832,262 1832,268 1826,268 1826,268 1826,274 1820,274 1820,274 1820,280 1814,280 1814,280 1336,280 1336,280 1330,280 1330,274 1330,274 1324,274 1324,268 1324,268 1318,268 1318,262 1318,262 1318,214 1318,214 1318,208 1324,208 1324,208 1324,202 1330,202 1330,202 1330,196 1336,196" fill="#e8752c"/><rect x="1336" y="196" width="478" height="6" fill="#ffab5e"/><rect x="1318" y="214" width="6" height="48" fill="#ffab5e"/><rect x="1336" y="274" width="478" height="6" fill="#b5501a"/><rect x="1826" y="214" width="6" height="48" fill="#b5501a"/><text x="1579" y="256" font-family="'Press Start 2P'" font-size="32" text-anchor="middle" letter-spacing="2" fill="#100d20">GOOGLE</text><text x="1575" y="252" font-family="'Press Start 2P'" font-size="32" text-anchor="middle" letter-spacing="2" fill="#ffffff">GOOGLE</text><polygon points="1336,330 1814,330 1814,330 1820,330 1820,336 1820,336 1826,336 1826,342 1826,342 1832,342 1832,348 1832,348 1838,348 1838,354 1838,354 1838,804 1838,804 1838,810 1832,810 1832,810 1832,816 1826,816 1826,816 1826,822 1820,822 1820,822 1820,828 1814,828 1814,828 1336,828 1336,828 1330,828 1330,822 1330,822 1324,822 1324,816 1324,816 1318,816 1318,810 1318,810 1312,810 1312,804 1312,804 1312,354 1312,354 1312,348 1318,348 1318,348 1318,342 1324,342 1324,342 1324,336 1330,336 1330,336 1330,330 1336,330" fill="#100d20"/><polygon points="1336,336 1814,336 1814,336 1820,336 1820,342 1820,342 1826,342 1826,348 1826,348 1832,348 1832,354 1832,354 1832,804 1832,804 1832,810 1826,810 1826,810 1826,816 1820,816 1820,816 1820,822 1814,822 1814,822 1336,822 1336,822 1330,822 1330,816 1330,816 1324,816 1324,810 1324,810 1318,810 1318,804 1318,804 1318,354 1318,354 1318,348 1324,348 1324,348 1324,342 1330,342 1330,342 1330,336 1336,336" fill="#1e1b38"/><rect x="1336" y="816" width="478" height="6" fill="#3a3560"/><rect x="1336" y="336" width="478" height="6" fill="#12102a"/><polygon points="1356,374 1794,374 1794,374 1798,374 1798,378 1798,378 1802,378 1802,382 1802,382 1806,382 1806,386 1806,386 1810,386 1810,390 1810,390 1810,404 1810,404 1810,408 1806,408 1806,408 1806,412 1802,412 1802,412 1802,416 1798,416 1798,416 1798,420 1794,420 1794,420 1356,420 1356,420 1352,420 1352,416 1352,416 1348,416 1348,412 1348,412 1344,412 1344,408 1344,408 1340,408 1340,404 1340,404 1340,390 1340,390 1340,386 1344,386 1344,386 1344,382 1348,382 1348,382 1348,378 1352,378 1352,378 1352,374 1356,374" fill="#100d20"/><polygon points="1356,358 1794,358 1794,358 1798,358 1798,362 1798,362 1802,362 1802,366 1802,366 1806,366 1806,370 1806,370 1810,370 1810,374 1810,374 1810,388 1810,388 1810,392 1806,392 1806,392 1806,396 1802,396 1802,396 1802,400 1798,400 1798,400 1798,404 1794,404 1794,404 1356,404 1356,404 1352,404 1352,400 1352,400 1348,400 1348,396 1348,396 1344,396 1344,392 1344,392 1340,392 1340,388 1340,388 1340,374 1340,374 1340,370 1344,370 1344,370 1344,366 1348,366 1348,366 1348,362 1352,362 1352,362 1352,358 1356,358" fill="#272552"/><polygon points="1356,362 1794,362 1794,362 1798,362 1798,366 1798,366 1802,366 1802,370 1802,370 1806,370 1806,374 1806,374 1806,388 1806,388 1806,392 1802,392 1802,392 1802,396 1798,396 1798,396 1798,400 1794,400 1794,400 1356,400 1356,400 1352,400 1352,396 1352,396 1348,396 1348,392 1348,392 1344,392 1344,388 1344,388 1344,374 1344,374 1344,370 1348,370 1348,370 1348,366 1352,366 1352,366 1352,362 1356,362" fill="#5b58a8"/><rect x="1356" y="362" width="438" height="4" fill="#8e8ad8"/><rect x="1344" y="374" width="4" height="14" fill="#8e8ad8"/><rect x="1356" y="396" width="438" height="4" fill="#3c3a7a"/><rect x="1802" y="374" width="4" height="14" fill="#3c3a7a"/><text x="1575" y="390" font-family="'Press Start 2P'" font-size="19" text-anchor="middle" letter-spacing="1" fill="#ffffff">gemini-flash-latest</text><polygon points="1356,450 1794,450 1794,450 1798,450 1798,454 1798,454 1802,454 1802,458 1802,458 1806,458 1806,462 1806,462 1810,462 1810,466 1810,466 1810,480 1810,480 1810,484 1806,484 1806,484 1806,488 1802,488 1802,488 1802,492 1798,492 1798,492 1798,496 1794,496 1794,496 1356,496 1356,496 1352,496 1352,492 1352,492 1348,492 1348,488 1348,488 1344,488 1344,484 1344,484 1340,484 1340,480 1340,480 1340,466 1340,466 1340,462 1344,462 1344,462 1344,458 1348,458 1348,458 1348,454 1352,454 1352,454 1352,450 1356,450" fill="#100d20"/><polygon points="1356,434 1794,434 1794,434 1798,434 1798,438 1798,438 1802,438 1802,442 1802,442 1806,442 1806,446 1806,446 1810,446 1810,450 1810,450 1810,464 1810,464 1810,468 1806,468 1806,468 1806,472 1802,472 1802,472 1802,476 1798,476 1798,476 1798,480 1794,480 1794,480 1356,480 1356,480 1352,480 1352,476 1352,476 1348,476 1348,472 1348,472 1344,472 1344,468 1344,468 1340,468 1340,464 1340,464 1340,450 1340,450 1340,446 1344,446 1344,446 1344,442 1348,442 1348,442 1348,438 1352,438 1352,438 1352,434 1356,434" fill="#272552"/><polygon points="1356,438 1794,438 1794,438 1798,438 1798,442 1798,442 1802,442 1802,446 1802,446 1806,446 1806,450 1806,450 1806,464 1806,464 1806,468 1802,468 1802,468 1802,472 1798,472 1798,472 1798,476 1794,476 1794,476 1356,476 1356,476 1352,476 1352,472 1352,472 1348,472 1348,468 1348,468 1344,468 1344,464 1344,464 1344,450 1344,450 1344,446 1348,446 1348,446 1348,442 1352,442 1352,442 1352,438 1356,438" fill="#5b58a8"/><rect x="1356" y="438" width="438" height="4" fill="#8e8ad8"/><rect x="1344" y="450" width="4" height="14" fill="#8e8ad8"/><rect x="1356" y="472" width="438" height="4" fill="#3c3a7a"/><rect x="1802" y="450" width="4" height="14" fill="#3c3a7a"/><text x="1575" y="466" font-family="'Press Start 2P'" font-size="21" text-anchor="middle" letter-spacing="1" fill="#ffffff">500 / 1,200 TOKENS</text><polygon points="1356,526 1794,526 1794,526 1798,526 1798,530 1798,530 1802,530 1802,534 1802,534 1806,534 1806,538 1806,538 1810,538 1810,542 1810,542 1810,556 1810,556 1810,560 1806,560 1806,560 1806,564 1802,564 1802,564 1802,568 1798,568 1798,568 1798,572 1794,572 1794,572 1356,572 1356,572 1352,572 1352,568 1352,568 1348,568 1348,564 1348,564 1344,564 1344,560 1344,560 1340,560 1340,556 1340,556 1340,542 1340,542 1340,538 1344,538 1344,538 1344,534 1348,534 1348,534 1348,530 1352,530 1352,530 1352,526 1356,526" fill="#100d20"/><polygon points="1356,510 1794,510 1794,510 1798,510 1798,514 1798,514 1802,514 1802,518 1802,518 1806,518 1806,522 1806,522 1810,522 1810,526 1810,526 1810,540 1810,540 1810,544 1806,544 1806,544 1806,548 1802,548 1802,548 1802,552 1798,552 1798,552 1798,556 1794,556 1794,556 1356,556 1356,556 1352,556 1352,552 1352,552 1348,552 1348,548 1348,548 1344,548 1344,544 1344,544 1340,544 1340,540 1340,540 1340,526 1340,526 1340,522 1344,522 1344,522 1344,518 1348,518 1348,518 1348,514 1352,514 1352,514 1352,510 1356,510" fill="#272552"/><polygon points="1356,514 1794,514 1794,514 1798,514 1798,518 1798,518 1802,518 1802,522 1802,522 1806,522 1806,526 1806,526 1806,540 1806,540 1806,544 1802,544 1802,544 1802,548 1798,548 1798,548 1798,552 1794,552 1794,552 1356,552 1356,552 1352,552 1352,548 1352,548 1348,548 1348,544 1348,544 1344,544 1344,540 1344,540 1344,526 1344,526 1344,522 1348,522 1348,522 1348,518 1352,518 1352,518 1352,514 1356,514" fill="#5b58a8"/><rect x="1356" y="514" width="438" height="4" fill="#8e8ad8"/><rect x="1344" y="526" width="4" height="14" fill="#8e8ad8"/><rect x="1356" y="548" width="438" height="4" fill="#3c3a7a"/><rect x="1802" y="526" width="4" height="14" fill="#3c3a7a"/><text x="1575" y="542" font-family="'Press Start 2P'" font-size="22" text-anchor="middle" letter-spacing="1" fill="#ffffff">3 QUESTION KEYS</text><polygon points="1356,602 1794,602 1794,602 1798,602 1798,606 1798,606 1802,606 1802,610 1802,610 1806,610 1806,614 1806,614 1810,614 1810,618 1810,618 1810,632 1810,632 1810,636 1806,636 1806,636 1806,640 1802,640 1802,640 1802,644 1798,644 1798,644 1798,648 1794,648 1794,648 1356,648 1356,648 1352,648 1352,644 1352,644 1348,644 1348,640 1348,640 1344,640 1344,636 1344,636 1340,636 1340,632 1340,632 1340,618 1340,618 1340,614 1344,614 1344,614 1344,610 1348,610 1348,610 1348,606 1352,606 1352,606 1352,602 1356,602" fill="#100d20"/><polygon points="1356,586 1794,586 1794,586 1798,586 1798,590 1798,590 1802,590 1802,594 1802,594 1806,594 1806,598 1806,598 1810,598 1810,602 1810,602 1810,616 1810,616 1810,620 1806,620 1806,620 1806,624 1802,624 1802,624 1802,628 1798,628 1798,628 1798,632 1794,632 1794,632 1356,632 1356,632 1352,632 1352,628 1352,628 1348,628 1348,624 1348,624 1344,624 1344,620 1344,620 1340,620 1340,616 1340,616 1340,602 1340,602 1340,598 1344,598 1344,598 1344,594 1348,594 1348,594 1348,590 1352,590 1352,590 1352,586 1356,586" fill="#272552"/><polygon points="1356,590 1794,590 1794,590 1798,590 1798,594 1798,594 1802,594 1802,598 1802,598 1806,598 1806,602 1806,602 1806,616 1806,616 1806,620 1802,620 1802,620 1802,624 1798,624 1798,624 1798,628 1794,628 1794,628 1356,628 1356,628 1352,628 1352,624 1352,624 1348,624 1348,620 1348,620 1344,620 1344,616 1344,616 1344,602 1344,602 1344,598 1348,598 1348,598 1348,594 1352,594 1352,594 1352,590 1356,590" fill="#5b58a8"/><rect x="1356" y="590" width="438" height="4" fill="#8e8ad8"/><rect x="1344" y="602" width="4" height="14" fill="#8e8ad8"/><rect x="1356" y="624" width="438" height="4" fill="#3c3a7a"/><rect x="1802" y="602" width="4" height="14" fill="#3c3a7a"/><text x="1575" y="618" font-family="'Press Start 2P'" font-size="22" text-anchor="middle" letter-spacing="1" fill="#ffffff">2 REALM VALUES</text><polygon points="1356,678 1794,678 1794,678 1798,678 1798,682 1798,682 1802,682 1802,686 1802,686 1806,686 1806,690 1806,690 1810,690 1810,694 1810,694 1810,708 1810,708 1810,712 1806,712 1806,712 1806,716 1802,716 1802,716 1802,720 1798,720 1798,720 1798,724 1794,724 1794,724 1356,724 1356,724 1352,724 1352,720 1352,720 1348,720 1348,716 1348,716 1344,716 1344,712 1344,712 1340,712 1340,708 1340,708 1340,694 1340,694 1340,690 1344,690 1344,690 1344,686 1348,686 1348,686 1348,682 1352,682 1352,682 1352,678 1356,678" fill="#100d20"/><polygon points="1356,662 1794,662 1794,662 1798,662 1798,666 1798,666 1802,666 1802,670 1802,670 1806,670 1806,674 1806,674 1810,674 1810,678 1810,678 1810,692 1810,692 1810,696 1806,696 1806,696 1806,700 1802,700 1802,700 1802,704 1798,704 1798,704 1798,708 1794,708 1794,708 1356,708 1356,708 1352,708 1352,704 1352,704 1348,704 1348,700 1348,700 1344,700 1344,696 1344,696 1340,696 1340,692 1340,692 1340,678 1340,678 1340,674 1344,674 1344,674 1344,670 1348,670 1348,670 1348,666 1352,666 1352,666 1352,662 1356,662" fill="#272552"/><polygon points="1356,666 1794,666 1794,666 1798,666 1798,670 1798,670 1802,670 1802,674 1802,674 1806,674 1806,678 1806,678 1806,692 1806,692 1806,696 1802,696 1802,696 1802,700 1798,700 1798,700 1798,704 1794,704 1794,704 1356,704 1356,704 1352,704 1352,700 1352,700 1348,700 1348,696 1348,696 1344,696 1344,692 1344,692 1344,678 1344,678 1344,674 1348,674 1348,674 1348,670 1352,670 1352,670 1352,666 1356,666" fill="#5b58a8"/><rect x="1356" y="666" width="438" height="4" fill="#8e8ad8"/><rect x="1344" y="678" width="4" height="14" fill="#8e8ad8"/><rect x="1356" y="700" width="438" height="4" fill="#3c3a7a"/><rect x="1802" y="678" width="4" height="14" fill="#3c3a7a"/><text x="1575" y="694" font-family="'Press Start 2P'" font-size="22" text-anchor="middle" letter-spacing="1" fill="#ffffff">NO FREE TEXT</text><polygon points="1356,754 1794,754 1794,754 1798,754 1798,758 1798,758 1802,758 1802,762 1802,762 1806,762 1806,766 1806,766 1810,766 1810,770 1810,770 1810,784 1810,784 1810,788 1806,788 1806,788 1806,792 1802,792 1802,792 1802,796 1798,796 1798,796 1798,800 1794,800 1794,800 1356,800 1356,800 1352,800 1352,796 1352,796 1348,796 1348,792 1348,792 1344,792 1344,788 1344,788 1340,788 1340,784 1340,784 1340,770 1340,770 1340,766 1344,766 1344,766 1344,762 1348,762 1348,762 1348,758 1352,758 1352,758 1352,754 1356,754" fill="#100d20"/><polygon points="1356,738 1794,738 1794,738 1798,738 1798,742 1798,742 1802,742 1802,746 1802,746 1806,746 1806,750 1806,750 1810,750 1810,754 1810,754 1810,768 1810,768 1810,772 1806,772 1806,772 1806,776 1802,776 1802,776 1802,780 1798,780 1798,780 1798,784 1794,784 1794,784 1356,784 1356,784 1352,784 1352,780 1352,780 1348,780 1348,776 1348,776 1344,776 1344,772 1344,772 1340,772 1340,768 1340,768 1340,754 1340,754 1340,750 1344,750 1344,750 1344,746 1348,746 1348,746 1348,742 1352,742 1352,742 1352,738 1356,738" fill="#272552"/><polygon points="1356,742 1794,742 1794,742 1798,742 1798,746 1798,746 1802,746 1802,750 1802,750 1806,750 1806,754 1806,754 1806,768 1806,768 1806,772 1802,772 1802,772 1802,776 1798,776 1798,776 1798,780 1794,780 1794,780 1356,780 1356,780 1352,780 1352,776 1352,776 1348,776 1348,772 1348,772 1344,772 1344,768 1344,768 1344,754 1344,754 1344,750 1348,750 1348,750 1348,746 1352,746 1352,746 1352,742 1356,742" fill="#5b58a8"/><rect x="1356" y="742" width="438" height="4" fill="#8e8ad8"/><rect x="1344" y="754" width="4" height="14" fill="#8e8ad8"/><rect x="1356" y="776" width="438" height="4" fill="#3c3a7a"/><rect x="1802" y="754" width="4" height="14" fill="#3c3a7a"/><text x="1575" y="770" font-family="'Press Start 2P'" font-size="22" text-anchor="middle" letter-spacing="1" fill="#ffffff">NO NUMBERS OUT</text><polygon points="104,890 384,890 384,890 390,890 390,896 390,896 396,896 396,902 396,902 402,902 402,908 402,908 408,908 408,914 408,914 408,938 408,938 408,944 402,944 402,944 402,950 396,950 396,950 396,956 390,956 390,956 390,962 384,962 384,962 104,962 104,962 98,962 98,956 98,956 92,956 92,950 92,950 86,950 86,944 86,944 80,944 80,938 80,938 80,914 80,914 80,908 86,908 86,908 86,902 92,902 92,902 92,896 98,896 98,896 98,890 104,890" fill="#100d20"/><polygon points="104,866 384,866 384,866 390,866 390,872 390,872 396,872 396,878 396,878 402,878 402,884 402,884 408,884 408,890 408,890 408,914 408,914 408,920 402,920 402,920 402,926 396,926 396,926 396,932 390,932 390,932 390,938 384,938 384,938 104,938 104,938 98,938 98,932 98,932 92,932 92,926 92,926 86,926 86,920 86,920 80,920 80,914 80,914 80,890 80,890 80,884 86,884 86,884 86,878 92,878 92,878 92,872 98,872 98,872 98,866 104,866" fill="#1b4229"/><polygon points="104,872 384,872 384,872 390,872 390,878 390,878 396,878 396,884 396,884 402,884 402,890 402,890 402,914 402,914 402,920 396,920 396,920 396,926 390,926 390,926 390,932 384,932 384,932 104,932 104,932 98,932 98,926 98,926 92,926 92,920 92,920 86,920 86,914 86,914 86,890 86,890 86,884 92,884 92,884 92,878 98,878 98,878 98,872 104,872" fill="#4f9e6b"/><rect x="104" y="872" width="280" height="6" fill="#8fd7a8"/><rect x="86" y="890" width="6" height="24" fill="#8fd7a8"/><rect x="104" y="926" width="280" height="6" fill="#2f6c46"/><rect x="396" y="890" width="6" height="24" fill="#2f6c46"/><text x="247" y="923" font-family="'Press Start 2P'" font-size="24" text-anchor="middle" letter-spacing="1" fill="#100d20">VITE 8.3</text><text x="244" y="920" font-family="'Press Start 2P'" font-size="24" text-anchor="middle" letter-spacing="1" fill="#ffffff">VITE 8.3</text><polygon points="462,890 742,890 742,890 748,890 748,896 748,896 754,896 754,902 754,902 760,902 760,908 760,908 766,908 766,914 766,914 766,938 766,938 766,944 760,944 760,944 760,950 754,950 754,950 754,956 748,956 748,956 748,962 742,962 742,962 462,962 462,962 456,962 456,956 456,956 450,956 450,950 450,950 444,950 444,944 444,944 438,944 438,938 438,938 438,914 438,914 438,908 444,908 444,908 444,902 450,902 450,902 450,896 456,896 456,896 456,890 462,890" fill="#100d20"/><polygon points="462,866 742,866 742,866 748,866 748,872 748,872 754,872 754,878 754,878 760,878 760,884 760,884 766,884 766,890 766,890 766,914 766,914 766,920 760,920 760,920 760,926 754,926 754,926 754,932 748,932 748,932 748,938 742,938 742,938 462,938 462,938 456,938 456,932 456,932 450,932 450,926 450,926 444,926 444,920 444,920 438,920 438,914 438,914 438,890 438,890 438,884 444,884 444,884 444,878 450,878 450,878 450,872 456,872 456,872 456,866 462,866" fill="#1b4229"/><polygon points="462,872 742,872 742,872 748,872 748,878 748,878 754,878 754,884 754,884 760,884 760,890 760,890 760,914 760,914 760,920 754,920 754,920 754,926 748,926 748,926 748,932 742,932 742,932 462,932 462,932 456,932 456,926 456,926 450,926 450,920 450,920 444,920 444,914 444,914 444,890 444,890 444,884 450,884 450,884 450,878 456,878 456,878 456,872 462,872" fill="#4f9e6b"/><rect x="462" y="872" width="280" height="6" fill="#8fd7a8"/><rect x="444" y="890" width="6" height="24" fill="#8fd7a8"/><rect x="462" y="926" width="280" height="6" fill="#2f6c46"/><rect x="754" y="890" width="6" height="24" fill="#2f6c46"/><text x="605" y="923" font-family="'Press Start 2P'" font-size="24" text-anchor="middle" letter-spacing="1" fill="#100d20">OXLINT 1.82</text><text x="602" y="920" font-family="'Press Start 2P'" font-size="24" text-anchor="middle" letter-spacing="1" fill="#ffffff">OXLINT 1.82</text><polygon points="820,890 1100,890 1100,890 1106,890 1106,896 1106,896 1112,896 1112,902 1112,902 1118,902 1118,908 1118,908 1124,908 1124,914 1124,914 1124,938 1124,938 1124,944 1118,944 1118,944 1118,950 1112,950 1112,950 1112,956 1106,956 1106,956 1106,962 1100,962 1100,962 820,962 820,962 814,962 814,956 814,956 808,956 808,950 808,950 802,950 802,944 802,944 796,944 796,938 796,938 796,914 796,914 796,908 802,908 802,908 802,902 808,902 808,902 808,896 814,896 814,896 814,890 820,890" fill="#100d20"/><polygon points="820,866 1100,866 1100,866 1106,866 1106,872 1106,872 1112,872 1112,878 1112,878 1118,878 1118,884 1118,884 1124,884 1124,890 1124,890 1124,914 1124,914 1124,920 1118,920 1118,920 1118,926 1112,926 1112,926 1112,932 1106,932 1106,932 1106,938 1100,938 1100,938 820,938 820,938 814,938 814,932 814,932 808,932 808,926 808,926 802,926 802,920 802,920 796,920 796,914 796,914 796,890 796,890 796,884 802,884 802,884 802,878 808,878 808,878 808,872 814,872 814,872 814,866 820,866" fill="#1b4229"/><polygon points="820,872 1100,872 1100,872 1106,872 1106,878 1106,878 1112,878 1112,884 1112,884 1118,884 1118,890 1118,890 1118,914 1118,914 1118,920 1112,920 1112,920 1112,926 1106,926 1106,926 1106,932 1100,932 1100,932 820,932 820,932 814,932 814,926 814,926 808,926 808,920 808,920 802,920 802,914 802,914 802,890 802,890 802,884 808,884 808,884 808,878 814,878 814,878 814,872 820,872" fill="#4f9e6b"/><rect x="820" y="872" width="280" height="6" fill="#8fd7a8"/><rect x="802" y="890" width="6" height="24" fill="#8fd7a8"/><rect x="820" y="926" width="280" height="6" fill="#2f6c46"/><rect x="1112" y="890" width="6" height="24" fill="#2f6c46"/><text x="963" y="923" font-family="'Press Start 2P'" font-size="24" text-anchor="middle" letter-spacing="1" fill="#100d20">TSX</text><text x="960" y="920" font-family="'Press Start 2P'" font-size="24" text-anchor="middle" letter-spacing="1" fill="#ffffff">TSX</text><polygon points="1178,890 1458,890 1458,890 1464,890 1464,896 1464,896 1470,896 1470,902 1470,902 1476,902 1476,908 1476,908 1482,908 1482,914 1482,914 1482,938 1482,938 1482,944 1476,944 1476,944 1476,950 1470,950 1470,950 1470,956 1464,956 1464,956 1464,962 1458,962 1458,962 1178,962 1178,962 1172,962 1172,956 1172,956 1166,956 1166,950 1166,950 1160,950 1160,944 1160,944 1154,944 1154,938 1154,938 1154,914 1154,914 1154,908 1160,908 1160,908 1160,902 1166,902 1166,902 1166,896 1172,896 1172,896 1172,890 1178,890" fill="#100d20"/><polygon points="1178,866 1458,866 1458,866 1464,866 1464,872 1464,872 1470,872 1470,878 1470,878 1476,878 1476,884 1476,884 1482,884 1482,890 1482,890 1482,914 1482,914 1482,920 1476,920 1476,920 1476,926 1470,926 1470,926 1470,932 1464,932 1464,932 1464,938 1458,938 1458,938 1178,938 1178,938 1172,938 1172,932 1172,932 1166,932 1166,926 1166,926 1160,926 1160,920 1160,920 1154,920 1154,914 1154,914 1154,890 1154,890 1154,884 1160,884 1160,884 1160,878 1166,878 1166,878 1166,872 1172,872 1172,872 1172,866 1178,866" fill="#1b4229"/><polygon points="1178,872 1458,872 1458,872 1464,872 1464,878 1464,878 1470,878 1470,884 1470,884 1476,884 1476,890 1476,890 1476,914 1476,914 1476,920 1470,920 1470,920 1470,926 1464,926 1464,926 1464,932 1458,932 1458,932 1178,932 1178,932 1172,932 1172,926 1172,926 1166,926 1166,920 1166,920 1160,920 1160,914 1160,914 1160,890 1160,890 1160,884 1166,884 1166,884 1166,878 1172,878 1172,878 1172,872 1178,872" fill="#4f9e6b"/><rect x="1178" y="872" width="280" height="6" fill="#8fd7a8"/><rect x="1160" y="890" width="6" height="24" fill="#8fd7a8"/><rect x="1178" y="926" width="280" height="6" fill="#2f6c46"/><rect x="1470" y="890" width="6" height="24" fill="#2f6c46"/><text x="1321" y="923" font-family="'Press Start 2P'" font-size="24" text-anchor="middle" letter-spacing="1" fill="#100d20">PLAYWRIGHT</text><text x="1318" y="920" font-family="'Press Start 2P'" font-size="24" text-anchor="middle" letter-spacing="1" fill="#ffffff">PLAYWRIGHT</text><polygon points="1536,890 1816,890 1816,890 1822,890 1822,896 1822,896 1828,896 1828,902 1828,902 1834,902 1834,908 1834,908 1840,908 1840,914 1840,914 1840,938 1840,938 1840,944 1834,944 1834,944 1834,950 1828,950 1828,950 1828,956 1822,956 1822,956 1822,962 1816,962 1816,962 1536,962 1536,962 1530,962 1530,956 1530,956 1524,956 1524,950 1524,950 1518,950 1518,944 1518,944 1512,944 1512,938 1512,938 1512,914 1512,914 1512,908 1518,908 1518,908 1518,902 1524,902 1524,902 1524,896 1530,896 1530,896 1530,890 1536,890" fill="#100d20"/><polygon points="1536,866 1816,866 1816,866 1822,866 1822,872 1822,872 1828,872 1828,878 1828,878 1834,878 1834,884 1834,884 1840,884 1840,890 1840,890 1840,914 1840,914 1840,920 1834,920 1834,920 1834,926 1828,926 1828,926 1828,932 1822,932 1822,932 1822,938 1816,938 1816,938 1536,938 1536,938 1530,938 1530,932 1530,932 1524,932 1524,926 1524,926 1518,926 1518,920 1518,920 1512,920 1512,914 1512,914 1512,890 1512,890 1512,884 1518,884 1518,884 1518,878 1524,878 1524,878 1524,872 1530,872 1530,872 1530,866 1536,866" fill="#1b4229"/><polygon points="1536,872 1816,872 1816,872 1822,872 1822,878 1822,878 1828,878 1828,884 1828,884 1834,884 1834,890 1834,890 1834,914 1834,914 1834,920 1828,920 1828,920 1828,926 1822,926 1822,926 1822,932 1816,932 1816,932 1536,932 1536,932 1530,932 1530,926 1530,926 1524,926 1524,920 1524,920 1518,920 1518,914 1518,914 1518,890 1518,890 1518,884 1524,884 1524,884 1524,878 1530,878 1530,878 1530,872 1536,872" fill="#4f9e6b"/><rect x="1536" y="872" width="280" height="6" fill="#8fd7a8"/><rect x="1518" y="890" width="6" height="24" fill="#8fd7a8"/><rect x="1536" y="926" width="280" height="6" fill="#2f6c46"/><rect x="1828" y="890" width="6" height="24" fill="#2f6c46"/><text x="1679" y="923" font-family="'Press Start 2P'" font-size="24" text-anchor="middle" letter-spacing="1" fill="#100d20">K6</text><text x="1676" y="920" font-family="'Press Start 2P'" font-size="24" text-anchor="middle" letter-spacing="1" fill="#ffffff">K6</text>
<text x="960" y="1022" font-family="'Press Start 2P'" font-size="24" text-anchor="middle" letter-spacing="1" fill="#6fc48d">four runtime dependencies. the model has never seen the recipe list.</text>
</svg>