<svg xmlns="http://www.w3.org/2000/svg" width="1920" height="1080" viewBox="0 0 1920 1080" shape-rendering="crispEdges">
<rect width="1920" height="1080" fill="#191536"/><rect x="1320" y="585" width="3" height="3" fill="#6f6c9a"/><rect x="1773" y="765" width="3" height="3" fill="#6f6c9a"/><rect x="942" y="171" width="3" height="3" fill="#6f6c9a"/><rect x="1560" y="873" width="3" height="3" fill="#6f6c9a"/><rect x="618" y="642" width="3" height="3" fill="#a8a6c8"/><rect x="1281" y="948" width="3" height="3" fill="#a8a6c8"/><rect x="1761" y="819" width="3" height="3" fill="#a8a6c8"/><rect x="540" y="786" width="3" height="3" fill="#a8a6c8"/><rect x="537" y="789" width="9" height="3" fill="#a8a6c8"/><rect x="540" y="792" width="3" height="3" fill="#a8a6c8"/><rect x="855" y="789" width="3" height="3" fill="#a8a6c8"/><rect x="1839" y="375" width="3" height="3" fill="#6f6c9a"/><rect x="525" y="768" width="3" height="3" fill="#a8a6c8"/><rect x="285" y="882" width="3" height="3" fill="#6f6c9a"/><rect x="1173" y="51" width="3" height="3" fill="#a8a6c8"/><rect x="1119" y="303" width="3" height="3" fill="#a8a6c8"/><rect x="1116" y="306" width="9" height="3" fill="#a8a6c8"/><rect x="1119" y="309" width="3" height="3" fill="#a8a6c8"/><rect x="1293" y="948" width="3" height="3" fill="#6f6c9a"/><rect x="1692" y="24" width="3" height="3" fill="#ffffff"/><rect x="159" y="192" width="3" height="3" fill="#a8a6c8"/><rect x="1206" y="207" width="3" height="3" fill="#6f6c9a"/><rect x="1917" y="96" width="3" height="3" fill="#a8a6c8"/><rect x="1482" y="723" width="3" height="3" fill="#a8a6c8"/><rect x="1479" y="726" width="9" height="3" fill="#a8a6c8"/><rect x="1482" y="729" width="3" height="3" fill="#a8a6c8"/><rect x="399" y="627" width="3" height="3" fill="#a8a6c8"/><rect x="1392" y="1002" width="3" height="3" fill="#6f6c9a"/><rect x="1911" y="51" width="3" height="3" fill="#a8a6c8"/><rect x="1908" y="54" width="9" height="3" fill="#a8a6c8"/><rect x="1911" y="57" width="3" height="3" fill="#a8a6c8"/><rect x="423" y="1029" width="3" height="3" fill="#6f6c9a"/><rect x="912" y="882" width="3" height="3" fill="#a8a6c8"/><rect x="1674" y="213" width="3" height="3" fill="#6f6c9a"/><rect x="51" y="435" width="3" height="3" fill="#ffffff"/><rect x="234" y="852" width="3" height="3" fill="#6f6c9a"/><rect x="456" y="600" width="3" height="3" fill="#6f6c9a"/><rect x="1770" y="75" width="3" height="3" fill="#a8a6c8"/><rect x="960" y="357" width="3" height="3" fill="#6f6c9a"/><rect x="957" y="360" width="9" height="3" fill="#6f6c9a"/><rect x="960" y="363" width="3" height="3" fill="#6f6c9a"/><rect x="147" y="708" width="3" height="3" fill="#6f6c9a"/><rect x="144" y="711" width="9" height="3" fill="#6f6c9a"/><rect x="147" y="714" width="3" height="3" fill="#6f6c9a"/><rect x="441" y="687" width="3" height="3" fill="#6f6c9a"/><rect x="438" y="690" width="9" height="3" fill="#6f6c9a"/><rect x="441" y="693" width="3" height="3" fill="#6f6c9a"/><rect x="612" y="90" width="3" height="3" fill="#a8a6c8"/><rect x="378" y="402" width="3" height="3" fill="#6f6c9a"/><rect x="375" y="405" width="9" height="3" fill="#6f6c9a"/><rect x="378" y="408" width="3" height="3" fill="#6f6c9a"/><rect x="918" y="942" width="3" height="3" fill="#a8a6c8"/><rect x="1548" y="762" width="3" height="3" fill="#a8a6c8"/><rect x="636" y="873" width="3" height="3" fill="#a8a6c8"/><rect x="633" y="876" width="9" height="3" fill="#a8a6c8"/><rect x="636" y="879" width="3" height="3" fill="#a8a6c8"/><rect x="1605" y="126" width="3" height="3" fill="#6f6c9a"/><rect x="195" y="993" width="3" height="3" fill="#6f6c9a"/><rect x="1572" y="60" width="3" height="3" fill="#ffffff"/><rect x="18" y="1029" width="3" height="3" fill="#6f6c9a"/><rect x="1425" y="3" width="3" height="3" fill="#ffffff"/><rect x="348" y="996" width="3" height="3" fill="#a8a6c8"/><rect x="888" y="9" width="3" height="3" fill="#6f6c9a"/><rect x="1377" y="840" width="3" height="3" fill="#ffffff"/><rect x="1371" y="234" width="3" height="3" fill="#6f6c9a"/><rect x="24" y="891" width="3" height="3" fill="#6f6c9a"/><rect x="1092" y="396" width="3" height="3" fill="#6f6c9a"/><rect x="288" y="1032" width="3" height="3" fill="#a8a6c8"/><rect x="285" y="1035" width="9" height="3" fill="#a8a6c8"/><rect x="288" y="1038" width="3" height="3" fill="#a8a6c8"/><rect x="561" y="255" width="3" height="3" fill="#6f6c9a"/><rect x="255" y="1002" width="3" height="3" fill="#a8a6c8"/><rect x="1047" y="870" width="3" height="3" fill="#a8a6c8"/><rect x="1383" y="315" width="3" height="3" fill="#6f6c9a"/><rect x="1827" y="891" width="3" height="3" fill="#ffffff"/><rect x="870" y="276" width="3" height="3" fill="#a8a6c8"/><rect x="1485" y="771" width="3" height="3" fill="#a8a6c8"/><rect x="792" y="384" width="3" height="3" fill="#6f6c9a"/><rect x="579" y="411" width="3" height="3" fill="#6f6c9a"/><rect x="315" y="879" width="3" height="3" fill="#a8a6c8"/><rect x="312" y="882" width="9" height="3" fill="#a8a6c8"/><rect x="315" y="885" width="3" height="3" fill="#a8a6c8"/><rect x="60" y="480" width="3" height="3" fill="#a8a6c8"/><rect x="1713" y="60" width="3" height="3" fill="#6f6c9a"/><rect x="1512" y="792" width="3" height="3" fill="#6f6c9a"/><rect x="1803" y="27" width="3" height="3" fill="#a8a6c8"/><rect x="1734" y="219" width="3" height="3" fill="#6f6c9a"/><rect x="1902" y="456" width="3" height="3" fill="#a8a6c8"/><rect x="165" y="900" width="3" height="3" fill="#6f6c9a"/><rect x="1311" y="555" width="3" height="3" fill="#6f6c9a"/><rect x="1308" y="558" width="9" height="3" fill="#6f6c9a"/><rect x="1311" y="561" width="3" height="3" fill="#6f6c9a"/><rect x="9" y="855" width="3" height="3" fill="#6f6c9a"/><rect x="402" y="108" width="3" height="3" fill="#6f6c9a"/><rect x="399" y="111" width="9" height="3" fill="#6f6c9a"/><rect x="402" y="114" width="3" height="3" fill="#6f6c9a"/><rect x="1428" y="597" width="3" height="3" fill="#ffffff"/><rect x="1623" y="984" width="3" height="3" fill="#6f6c9a"/><rect x="639" y="300" width="3" height="3" fill="#6f6c9a"/><rect x="639" y="348" width="3" height="3" fill="#6f6c9a"/><rect x="174" y="168" width="3" height="3" fill="#6f6c9a"/><rect x="1146" y="216" width="3" height="3" fill="#a8a6c8"/><rect x="255" y="207" width="3" height="3" fill="#6f6c9a"/><rect x="1005" y="1047" width="3" height="3" fill="#6f6c9a"/><rect x="228" y="381" width="3" height="3" fill="#6f6c9a"/><rect x="1710" y="327" width="3" height="3" fill="#ffffff"/><rect x="450" y="18" width="3" height="3" fill="#6f6c9a"/><rect x="102" y="792" width="3" height="3" fill="#ffffff"/><rect x="1617" y="159" width="3" height="3" fill="#6f6c9a"/><rect x="1614" y="162" width="9" height="3" fill="#6f6c9a"/><rect x="1617" y="165" width="3" height="3" fill="#6f6c9a"/><rect x="570" y="87" width="3" height="3" fill="#a8a6c8"/><rect x="567" y="90" width="9" height="3" fill="#a8a6c8"/><rect x="570" y="93" width="3" height="3" fill="#a8a6c8"/><rect x="534" y="60" width="3" height="3" fill="#ffffff"/><rect x="531" y="63" width="9" height="3" fill="#ffffff"/><rect x="534" y="66" width="3" height="3" fill="#ffffff"/><rect x="417" y="1047" width="3" height="3" fill="#6f6c9a"/><rect x="1257" y="462" width="3" height="3" fill="#6f6c9a"/><rect x="1254" y="615" width="3" height="3" fill="#6f6c9a"/><rect x="1767" y="636" width="3" height="3" fill="#a8a6c8"/><rect x="273" y="372" width="3" height="3" fill="#a8a6c8"/><rect x="270" y="375" width="9" height="3" fill="#a8a6c8"/><rect x="273" y="378" width="3" height="3" fill="#a8a6c8"/><rect x="1545" y="297" width="3" height="3" fill="#6f6c9a"/><rect x="444" y="1047" width="3" height="3" fill="#6f6c9a"/><rect x="1389" y="402" width="3" height="3" fill="#6f6c9a"/><rect x="75" y="219" width="3" height="3" fill="#a8a6c8"/><rect x="1233" y="837" width="3" height="3" fill="#6f6c9a"/><rect x="1005" y="180" width="3" height="3" fill="#a8a6c8"/><rect x="1002" y="183" width="9" height="3" fill="#a8a6c8"/><rect x="1005" y="186" width="3" height="3" fill="#a8a6c8"/><rect x="930" y="231" width="3" height="3" fill="#6f6c9a"/><rect x="1575" y="135" width="3" height="3" fill="#6f6c9a"/><rect x="6" y="246" width="3" height="3" fill="#a8a6c8"/><rect x="3" y="249" width="9" height="3" fill="#a8a6c8"/><rect x="6" y="252" width="3" height="3" fill="#a8a6c8"/><rect x="216" y="924" width="3" height="3" fill="#6f6c9a"/><rect x="1656" y="186" width="3" height="3" fill="#6f6c9a"/><rect x="1653" y="189" width="9" height="3" fill="#6f6c9a"/><rect x="1656" y="192" width="3" height="3" fill="#6f6c9a"/><rect x="960" y="828" width="3" height="3" fill="#6f6c9a"/><rect x="957" y="831" width="9" height="3" fill="#6f6c9a"/><rect x="960" y="834" width="3" height="3" fill="#6f6c9a"/><rect x="1707" y="180" width="3" height="3" fill="#6f6c9a"/><rect x="879" y="366" width="3" height="3" fill="#ffffff"/><rect x="966" y="759" width="3" height="3" fill="#6f6c9a"/><rect x="750" y="903" width="3" height="3" fill="#6f6c9a"/><rect x="1512" y="141" width="3" height="3" fill="#a8a6c8"/><rect x="1509" y="144" width="9" height="3" fill="#a8a6c8"/><rect x="1512" y="147" width="3" height="3" fill="#a8a6c8"/><rect x="1032" y="411" width="3" height="3" fill="#6f6c9a"/><rect x="48" y="981" width="3" height="3" fill="#a8a6c8"/><rect x="930" y="318" width="3" height="3" fill="#6f6c9a"/><rect x="927" y="321" width="9" height="3" fill="#6f6c9a"/><rect x="930" y="324" width="3" height="3" fill="#6f6c9a"/><rect x="1002" y="156" width="3" height="3" fill="#6f6c9a"/><rect x="1227" y="702" width="3" height="3" fill="#a8a6c8"/><rect x="1440" y="102" width="3" height="3" fill="#a8a6c8"/><rect x="12" y="351" width="3" height="3" fill="#ffffff"/><rect x="1872" y="300" width="3" height="3" fill="#6f6c9a"/><rect x="1512" y="1068" width="3" height="3" fill="#a8a6c8"/><rect x="99" y="111" width="3" height="3" fill="#6f6c9a"/><rect x="1248" y="168" width="3" height="3" fill="#6f6c9a"/><rect x="1812" y="321" width="3" height="3" fill="#a8a6c8"/><rect x="159" y="288" width="3" height="3" fill="#a8a6c8"/><rect x="156" y="291" width="9" height="3" fill="#a8a6c8"/><rect x="159" y="294" width="3" height="3" fill="#a8a6c8"/><rect x="1902" y="1005" width="3" height="3" fill="#6f6c9a"/><rect x="45" y="207" width="3" height="3" fill="#a8a6c8"/><rect x="1821" y="108" width="3" height="3" fill="#6f6c9a"/><rect x="144" y="15" width="3" height="3" fill="#a8a6c8"/><rect x="807" y="729" width="3" height="3" fill="#a8a6c8"/><rect x="1350" y="780" width="3" height="3" fill="#6f6c9a"/><rect x="612" y="756" width="3" height="3" fill="#a8a6c8"/><rect x="609" y="759" width="9" height="3" fill="#a8a6c8"/><rect x="612" y="762" width="3" height="3" fill="#a8a6c8"/><rect x="210" y="678" width="3" height="3" fill="#ffffff"/><rect x="1182" y="762" width="3" height="3" fill="#a8a6c8"/><rect x="1179" y="765" width="9" height="3" fill="#a8a6c8"/><rect x="1182" y="768" width="3" height="3" fill="#a8a6c8"/><rect x="1887" y="294" width="3" height="3" fill="#ffffff"/><rect x="33" y="450" width="3" height="3" fill="#ffffff"/><rect x="1014" y="282" width="3" height="3" fill="#6f6c9a"/><rect x="1299" y="504" width="3" height="3" fill="#6f6c9a"/><rect x="1296" y="507" width="9" height="3" fill="#6f6c9a"/><rect x="1299" y="510" width="3" height="3" fill="#6f6c9a"/><rect x="543" y="624" width="3" height="3" fill="#6f6c9a"/><rect x="540" y="627" width="9" height="3" fill="#6f6c9a"/><rect x="543" y="630" width="3" height="3" fill="#6f6c9a"/><rect x="651" y="336" width="3" height="3" fill="#a8a6c8"/><rect x="1647" y="69" width="3" height="3" fill="#6f6c9a"/><rect x="939" y="909" width="3" height="3" fill="#a8a6c8"/><rect x="1194" y="213" width="3" height="3" fill="#6f6c9a"/><rect x="63" y="402" width="3" height="3" fill="#a8a6c8"/><rect x="819" y="798" width="3" height="3" fill="#6f6c9a"/><rect x="510" y="201" width="3" height="3" fill="#6f6c9a"/><rect x="546" y="918" width="3" height="3" fill="#6f6c9a"/><rect x="456" y="948" width="3" height="3" fill="#a8a6c8"/><rect x="1440" y="54" width="3" height="3" fill="#a8a6c8"/><rect x="366" y="288" width="3" height="3" fill="#6f6c9a"/><rect x="1497" y="867" width="3" height="3" fill="#6f6c9a"/><rect x="1494" y="870" width="9" height="3" fill="#6f6c9a"/><rect x="1497" y="873" width="3" height="3" fill="#6f6c9a"/><rect x="1119" y="201" width="3" height="3" fill="#a8a6c8"/><rect x="552" y="174" width="3" height="3" fill="#a8a6c8"/><rect x="1509" y="759" width="3" height="3" fill="#a8a6c8"/><rect x="498" y="75" width="3" height="3" fill="#a8a6c8"/><rect x="603" y="24" width="3" height="3" fill="#6f6c9a"/><rect x="600" y="27" width="9" height="3" fill="#6f6c9a"/><rect x="603" y="30" width="3" height="3" fill="#6f6c9a"/><rect x="279" y="90" width="3" height="3" fill="#6f6c9a"/><rect x="1545" y="78" width="3" height="3" fill="#6f6c9a"/><rect x="1215" y="777" width="3" height="3" fill="#ffffff"/><rect x="1455" y="795" width="3" height="3" fill="#6f6c9a"/><rect x="1452" y="798" width="9" height="3" fill="#6f6c9a"/><rect x="1455" y="801" width="3" height="3" fill="#6f6c9a"/><rect x="1572" y="615" width="3" height="3" fill="#6f6c9a"/><rect x="1569" y="618" width="9" height="3" fill="#6f6c9a"/><rect x="1572" y="621" width="3" height="3" fill="#6f6c9a"/><rect x="744" y="972" width="3" height="3" fill="#a8a6c8"/><rect x="1071" y="393" width="3" height="3" fill="#ffffff"/><rect x="393" y="288" width="3" height="3" fill="#6f6c9a"/><rect x="666" y="417" width="3" height="3" fill="#a8a6c8"/><rect x="489" y="63" width="3" height="3" fill="#a8a6c8"/><rect x="486" y="66" width="9" height="3" fill="#a8a6c8"/><rect x="489" y="69" width="3" height="3" fill="#a8a6c8"/><rect x="129" y="390" width="3" height="3" fill="#a8a6c8"/><rect x="837" y="795" width="3" height="3" fill="#a8a6c8"/><rect x="834" y="798" width="9" height="3" fill="#a8a6c8"/><rect x="837" y="801" width="3" height="3" fill="#a8a6c8"/><rect x="1491" y="984" width="3" height="3" fill="#6f6c9a"/><rect x="1833" y="210" width="3" height="3" fill="#6f6c9a"/><rect x="768" y="153" width="3" height="3" fill="#6f6c9a"/><rect x="675" y="621" width="3" height="3" fill="#6f6c9a"/><rect x="444" y="363" width="3" height="3" fill="#6f6c9a"/><rect x="630" y="102" width="3" height="3" fill="#6f6c9a"/><rect x="555" y="687" width="3" height="3" fill="#a8a6c8"/><rect x="528" y="702" width="3" height="3" fill="#6f6c9a"/><rect x="1098" y="936" width="3" height="3" fill="#a8a6c8"/><rect x="1095" y="939" width="9" height="3" fill="#a8a6c8"/><rect x="1098" y="942" width="3" height="3" fill="#a8a6c8"/><rect x="546" y="933" width="3" height="3" fill="#6f6c9a"/><rect x="339" y="852" width="3" height="3" fill="#6f6c9a"/><rect x="309" y="282" width="3" height="3" fill="#6f6c9a"/><rect x="306" y="285" width="9" height="3" fill="#6f6c9a"/><rect x="309" y="288" width="3" height="3" fill="#6f6c9a"/><rect x="0" y="333" width="3" height="3" fill="#6f6c9a"/><rect x="66" y="96" width="3" height="3" fill="#6f6c9a"/><rect x="390" y="828" width="3" height="3" fill="#6f6c9a"/><rect x="387" y="831" width="9" height="3" fill="#6f6c9a"/><rect x="390" y="834" width="3" height="3" fill="#6f6c9a"/><rect x="399" y="69" width="3" height="3" fill="#6f6c9a"/><rect x="396" y="72" width="9" height="3" fill="#6f6c9a"/><rect x="399" y="75" width="3" height="3" fill="#6f6c9a"/><rect x="480" y="321" width="3" height="3" fill="#6f6c9a"/><rect x="1197" y="693" width="3" height="3" fill="#6f6c9a"/><rect x="147" y="60" width="3" height="3" fill="#a8a6c8"/><rect x="324" y="771" width="3" height="3" fill="#a8a6c8"/><rect x="1611" y="90" width="3" height="3" fill="#a8a6c8"/><rect x="285" y="933" width="3" height="3" fill="#a8a6c8"/><rect x="1620" y="18" width="3" height="3" fill="#6f6c9a"/><rect x="1284" y="909" width="3" height="3" fill="#6f6c9a"/><rect x="669" y="177" width="3" height="3" fill="#6f6c9a"/><rect x="666" y="180" width="9" height="3" fill="#6f6c9a"/><rect x="669" y="183" width="3" height="3" fill="#6f6c9a"/><rect x="1071" y="795" width="3" height="3" fill="#6f6c9a"/><rect x="108" y="693" width="3" height="3" fill="#a8a6c8"/><rect x="1806" y="252" width="3" height="3" fill="#6f6c9a"/><rect x="693" y="951" width="3" height="3" fill="#6f6c9a"/><rect x="888" y="363" width="3" height="3" fill="#6f6c9a"/><rect x="1416" y="183" width="3" height="3" fill="#6f6c9a"/><rect x="1413" y="186" width="9" height="3" fill="#6f6c9a"/><rect x="1416" y="189" width="3" height="3" fill="#6f6c9a"/><rect x="78" y="384" width="3" height="3" fill="#a8a6c8"/><rect x="1845" y="894" width="3" height="3" fill="#6f6c9a"/><rect x="804" y="336" width="3" height="3" fill="#6f6c9a"/><rect x="801" y="339" width="9" height="3" fill="#6f6c9a"/><rect x="804" y="342" width="3" height="3" fill="#6f6c9a"/><rect x="1176" y="942" width="3" height="3" fill="#ffffff"/><rect x="663" y="786" width="3" height="3" fill="#6f6c9a"/><rect x="660" y="789" width="9" height="3" fill="#6f6c9a"/><rect x="663" y="792" width="3" height="3" fill="#6f6c9a"/><rect x="75" y="288" width="3" height="3" fill="#6f6c9a"/><rect x="618" y="99" width="3" height="3" fill="#ffffff"/><rect x="699" y="54" width="3" height="3" fill="#6f6c9a"/><rect x="327" y="24" width="3" height="3" fill="#6f6c9a"/><rect x="324" y="27" width="9" height="3" fill="#6f6c9a"/><rect x="327" y="30" width="3" height="3" fill="#6f6c9a"/><rect x="18" y="204" width="3" height="3" fill="#6f6c9a"/><rect x="15" y="207" width="9" height="3" fill="#6f6c9a"/><rect x="18" y="210" width="3" height="3" fill="#6f6c9a"/><rect x="1386" y="768" width="3" height="3" fill="#ffffff"/><rect x="1902" y="768" width="3" height="3" fill="#6f6c9a"/><rect x="1632" y="849" width="3" height="3" fill="#6f6c9a"/><rect x="1419" y="846" width="3" height="3" fill="#a8a6c8"/><rect x="1473" y="93" width="3" height="3" fill="#6f6c9a"/><rect x="570" y="237" width="3" height="3" fill="#6f6c9a"/><rect x="717" y="879" width="3" height="3" fill="#6f6c9a"/><rect x="1881" y="768" width="3" height="3" fill="#a8a6c8"/><rect x="1878" y="771" width="9" height="3" fill="#a8a6c8"/><rect x="1881" y="774" width="3" height="3" fill="#a8a6c8"/><rect x="1497" y="354" width="3" height="3" fill="#6f6c9a"/><rect x="213" y="936" width="3" height="3" fill="#6f6c9a"/><rect x="1044" y="258" width="3" height="3" fill="#6f6c9a"/><rect x="402" y="846" width="3" height="3" fill="#6f6c9a"/><rect x="978" y="948" width="3" height="3" fill="#a8a6c8"/><rect x="975" y="951" width="9" height="3" fill="#a8a6c8"/><rect x="978" y="954" width="3" height="3" fill="#a8a6c8"/><rect x="1566" y="786" width="3" height="3" fill="#a8a6c8"/><rect x="1563" y="789" width="9" height="3" fill="#a8a6c8"/><rect x="1566" y="792" width="3" height="3" fill="#a8a6c8"/><rect x="456" y="909" width="3" height="3" fill="#a8a6c8"/><rect x="87" y="903" width="3" height="3" fill="#6f6c9a"/><rect x="177" y="1023" width="3" height="3" fill="#6f6c9a"/><rect x="1701" y="93" width="3" height="3" fill="#6f6c9a"/><rect x="1698" y="96" width="9" height="3" fill="#6f6c9a"/><rect x="1701" y="99" width="3" height="3" fill="#6f6c9a"/><rect x="54" y="207" width="3" height="3" fill="#6f6c9a"/><rect x="243" y="129" width="3" height="3" fill="#a8a6c8"/><rect x="240" y="132" width="9" height="3" fill="#a8a6c8"/><rect x="243" y="135" width="3" height="3" fill="#a8a6c8"/><rect x="0" y="504" width="3" height="3" fill="#a8a6c8"/><rect x="1524" y="924" width="3" height="3" fill="#6f6c9a"/><rect x="861" y="24" width="3" height="3" fill="#a8a6c8"/><rect x="600" y="639" width="3" height="3" fill="#a8a6c8"/><rect x="1722" y="618" width="3" height="3" fill="#6f6c9a"/><rect x="819" y="165" width="3" height="3" fill="#ffffff"/><rect x="1035" y="1068" width="3" height="3" fill="#6f6c9a"/><rect x="1032" y="1071" width="9" height="3" fill="#6f6c9a"/><rect x="1035" y="1074" width="3" height="3" fill="#6f6c9a"/><rect x="1344" y="297" width="3" height="3" fill="#a8a6c8"/><rect x="471" y="132" width="3" height="3" fill="#6f6c9a"/><rect x="468" y="135" width="9" height="3" fill="#6f6c9a"/><rect x="471" y="138" width="3" height="3" fill="#6f6c9a"/><rect x="1569" y="138" width="3" height="3" fill="#a8a6c8"/><rect x="1374" y="855" width="3" height="3" fill="#6f6c9a"/><rect x="1572" y="276" width="3" height="3" fill="#6f6c9a"/><rect x="1275" y="489" width="3" height="3" fill="#6f6c9a"/><rect x="1248" y="912" width="3" height="3" fill="#a8a6c8"/><rect x="321" y="153" width="3" height="3" fill="#a8a6c8"/><rect x="741" y="312" width="3" height="3" fill="#6f6c9a"/><rect x="714" y="225" width="3" height="3" fill="#a8a6c8"/><rect x="666" y="411" width="3" height="3" fill="#6f6c9a"/><rect x="1374" y="669" width="3" height="3" fill="#6f6c9a"/><rect x="1575" y="180" width="3" height="3" fill="#6f6c9a"/><rect x="1257" y="297" width="3" height="3" fill="#6f6c9a"/><rect x="342" y="1068" width="3" height="3" fill="#a8a6c8"/><rect x="504" y="1008" width="3" height="3" fill="#a8a6c8"/><rect x="219" y="744" width="3" height="3" fill="#6f6c9a"/><rect x="216" y="747" width="9" height="3" fill="#6f6c9a"/><rect x="219" y="750" width="3" height="3" fill="#6f6c9a"/><rect x="1509" y="840" width="3" height="3" fill="#a8a6c8"/><rect x="1839" y="861" width="3" height="3" fill="#6f6c9a"/><rect x="576" y="1044" width="3" height="3" fill="#a8a6c8"/><rect x="699" y="606" width="3" height="3" fill="#6f6c9a"/><rect x="1836" y="75" width="3" height="3" fill="#6f6c9a"/><rect x="960" y="705" width="3" height="3" fill="#6f6c9a"/><rect x="633" y="882" width="3" height="3" fill="#6f6c9a"/><rect x="933" y="846" width="3" height="3" fill="#a8a6c8"/><rect x="699" y="12" width="3" height="3" fill="#a8a6c8"/><rect x="561" y="645" width="3" height="3" fill="#6f6c9a"/><rect x="855" y="942" width="3" height="3" fill="#6f6c9a"/><rect x="852" y="408" width="3" height="3" fill="#a8a6c8"/><rect x="1296" y="585" width="3" height="3" fill="#6f6c9a"/><rect x="45" y="111" width="3" height="3" fill="#6f6c9a"/><rect x="42" y="114" width="9" height="3" fill="#6f6c9a"/><rect x="45" y="117" width="3" height="3" fill="#6f6c9a"/><rect x="12" y="408" width="3" height="3" fill="#a8a6c8"/><rect x="1320" y="87" width="3" height="3" fill="#a8a6c8"/><rect x="669" y="318" width="3" height="3" fill="#6f6c9a"/><rect x="1866" y="150" width="3" height="3" fill="#ffffff"/><rect x="1833" y="246" width="3" height="3" fill="#a8a6c8"/><rect x="369" y="189" width="3" height="3" fill="#a8a6c8"/><rect x="366" y="192" width="9" height="3" fill="#a8a6c8"/><rect x="369" y="195" width="3" height="3" fill="#a8a6c8"/><rect x="387" y="1008" width="3" height="3" fill="#a8a6c8"/><rect x="1869" y="201" width="3" height="3" fill="#6f6c9a"/><rect x="1866" y="204" width="9" height="3" fill="#6f6c9a"/><rect x="1869" y="207" width="3" height="3" fill="#6f6c9a"/><rect x="1545" y="1017" width="3" height="3" fill="#6f6c9a"/>
<text x="967" y="125" font-family="'Press Start 2P'" font-size="56" text-anchor="middle" letter-spacing="5" fill="#100d20">WHAT IT IS</text><text x="960" y="118" font-family="'Press Start 2P'" font-size="56" text-anchor="middle" letter-spacing="5" fill="#ffffff">WHAT IT IS</text>
<polygon points="94,444 546,444 546,444 552,444 552,450 552,450 558,450 558,456 558,456 564,456 564,462 564,462 570,462 570,468 570,468 570,566 570,566 570,572 564,572 564,572 564,578 558,578 558,578 558,584 552,584 552,584 552,590 546,590 546,590 94,590 94,590 88,590 88,584 88,584 82,584 82,578 82,578 76,578 76,572 76,572 70,572 70,566 70,566 70,468 70,468 70,462 76,462 76,462 76,456 82,456 82,456 82,450 88,450 88,450 88,444 94,444" fill="#100d20"/><polygon points="94,420 546,420 546,420 552,420 552,426 552,426 558,426 558,432 558,432 564,432 564,438 564,438 570,438 570,444 570,444 570,542 570,542 570,548 564,548 564,548 564,554 558,554 558,554 558,560 552,560 552,560 552,566 546,566 546,566 94,566 94,566 88,566 88,560 88,560 82,560 82,554 82,554 76,554 76,548 76,548 70,548 70,542 70,542 70,444 70,444 70,438 76,438 76,438 76,432 82,432 82,432 82,426 88,426 88,426 88,420 94,420" fill="#0b4a59"/><polygon points="94,426 546,426 546,426 552,426 552,432 552,432 558,432 558,438 558,438 564,438 564,444 564,444 564,542 564,542 564,548 558,548 558,548 558,554 552,554 552,554 552,560 546,560 546,560 94,560 94,560 88,560 88,554 88,554 82,554 82,548 82,548 76,548 76,542 76,542 76,444 76,444 76,438 82,438 82,438 82,432 88,432 88,432 88,426 94,426" fill="#22a2bd"/><rect x="94" y="426" width="452" height="6" fill="#68dcef"/><rect x="76" y="444" width="6" height="98" fill="#68dcef"/><rect x="94" y="554" width="452" height="6" fill="#137689"/><rect x="558" y="444" width="6" height="98" fill="#137689"/><text x="324" y="512" font-family="'Press Start 2P'" font-size="30" text-anchor="middle" letter-spacing="2" fill="#100d20">YOU START</text><text x="320" y="508" font-family="'Press Start 2P'" font-size="30" text-anchor="middle" letter-spacing="2" fill="#ffffff">YOU START</text><text x="320" y="662" font-family="'Press Start 2P'" font-size="25" text-anchor="middle" letter-spacing="0" fill="#b8b4dc">with 12 things</text><rect x="584" y="490" width="94" height="6" fill="#e8752c"/><rect x="690" y="490" width="6" height="6" fill="#e8752c"/><rect x="684" y="484" width="6" height="18" fill="#e8752c"/><rect x="678" y="478" width="6" height="30" fill="#e8752c"/><polygon points="734,444 1186,444 1186,444 1192,444 1192,450 1192,450 1198,450 1198,456 1198,456 1204,456 1204,462 1204,462 1210,462 1210,468 1210,468 1210,566 1210,566 1210,572 1204,572 1204,572 1204,578 1198,578 1198,578 1198,584 1192,584 1192,584 1192,590 1186,590 1186,590 734,590 734,590 728,590 728,584 728,584 722,584 722,578 722,578 716,578 716,572 716,572 710,572 710,566 710,566 710,468 710,468 710,462 716,462 716,462 716,456 722,456 722,456 722,450 728,450 728,450 728,444 734,444" fill="#100d20"/><polygon points="734,420 1186,420 1186,420 1192,420 1192,426 1192,426 1198,426 1198,432 1198,432 1204,432 1204,438 1204,438 1210,438 1210,444 1210,444 1210,542 1210,542 1210,548 1204,548 1204,548 1204,554 1198,554 1198,554 1198,560 1192,560 1192,560 1192,566 1186,566 1186,566 734,566 734,566 728,566 728,560 728,560 722,560 722,554 722,554 716,554 716,548 716,548 710,548 710,542 710,542 710,444 710,444 710,438 716,438 716,438 716,432 722,432 722,432 722,426 728,426 728,426 728,420 734,420" fill="#272552"/><polygon points="734,426 1186,426 1186,426 1192,426 1192,432 1192,432 1198,432 1198,438 1198,438 1204,438 1204,444 1204,444 1204,542 1204,542 1204,548 1198,548 1198,548 1198,554 1192,554 1192,554 1192,560 1186,560 1186,560 734,560 734,560 728,560 728,554 728,554 722,554 722,548 722,548 716,548 716,542 716,542 716,444 716,444 716,438 722,438 722,438 722,432 728,432 728,432 728,426 734,426" fill="#5b58a8"/><rect x="734" y="426" width="452" height="6" fill="#8e8ad8"/><rect x="716" y="444" width="6" height="98" fill="#8e8ad8"/><rect x="734" y="554" width="452" height="6" fill="#3c3a7a"/><rect x="1198" y="444" width="6" height="98" fill="#3c3a7a"/><text x="964" y="512" font-family="'Press Start 2P'" font-size="30" text-anchor="middle" letter-spacing="2" fill="#100d20">YOU COMBINE</text><text x="960" y="508" font-family="'Press Start 2P'" font-size="30" text-anchor="middle" letter-spacing="2" fill="#ffffff">YOU COMBINE</text><text x="960" y="662" font-family="'Press Start 2P'" font-size="25" text-anchor="middle" letter-spacing="0" fill="#b8b4dc">two at a time</text><rect x="1224" y="490" width="94" height="6" fill="#e8752c"/><rect x="1330" y="490" width="6" height="6" fill="#e8752c"/><rect x="1324" y="484" width="6" height="18" fill="#e8752c"/><rect x="1318" y="478" width="6" height="30" fill="#e8752c"/><polygon points="1374,444 1826,444 1826,444 1832,444 1832,450 1832,450 1838,450 1838,456 1838,456 1844,456 1844,462 1844,462 1850,462 1850,468 1850,468 1850,566 1850,566 1850,572 1844,572 1844,572 1844,578 1838,578 1838,578 1838,584 1832,584 1832,584 1832,590 1826,590 1826,590 1374,590 1374,590 1368,590 1368,584 1368,584 1362,584 1362,578 1362,578 1356,578 1356,572 1356,572 1350,572 1350,566 1350,566 1350,468 1350,468 1350,462 1356,462 1356,462 1356,456 1362,456 1362,456 1362,450 1368,450 1368,450 1368,444 1374,444" fill="#100d20"/><polygon points="1374,420 1826,420 1826,420 1832,420 1832,426 1832,426 1838,426 1838,432 1838,432 1844,432 1844,438 1844,438 1850,438 1850,444 1850,444 1850,542 1850,542 1850,548 1844,548 1844,548 1844,554 1838,554 1838,554 1838,560 1832,560 1832,560 1832,566 1826,566 1826,566 1374,566 1374,566 1368,566 1368,560 1368,560 1362,560 1362,554 1362,554 1356,554 1356,548 1356,548 1350,548 1350,542 1350,542 1350,444 1350,444 1350,438 1356,438 1356,438 1356,432 1362,432 1362,432 1362,426 1368,426 1368,426 1368,420 1374,420" fill="#7a3310"/><polygon points="1374,426 1826,426 1826,426 1832,426 1832,432 1832,432 1838,432 1838,438 1838,438 1844,438 1844,444 1844,444 1844,542 1844,542 1844,548 1838,548 1838,548 1838,554 1832,554 1832,554 1832,560 1826,560 1826,560 1374,560 1374,560 1368,560 1368,554 1368,554 1362,554 1362,548 1362,548 1356,548 1356,542 1356,542 1356,444 1356,444 1356,438 1362,438 1362,438 1362,432 1368,432 1368,432 1368,426 1374,426" fill="#e8752c"/><rect x="1374" y="426" width="452" height="6" fill="#ffab5e"/><rect x="1356" y="444" width="6" height="98" fill="#ffab5e"/><rect x="1374" y="554" width="452" height="6" fill="#b5501a"/><rect x="1838" y="444" width="6" height="98" fill="#b5501a"/><text x="1604" y="512" font-family="'Press Start 2P'" font-size="30" text-anchor="middle" letter-spacing="2" fill="#100d20">YOU FIND OUT</text><text x="1600" y="508" font-family="'Press Start 2P'" font-size="30" text-anchor="middle" letter-spacing="2" fill="#ffffff">YOU FIND OUT</text><text x="1600" y="662" font-family="'Press Start 2P'" font-size="25" text-anchor="middle" letter-spacing="0" fill="#b8b4dc">what it took</text>
<text x="960" y="1022" font-family="'Press Start 2P'" font-size="24" text-anchor="middle" letter-spacing="1" fill="#6fc48d">no account. no install. no ads.</text>
</svg>