<svg xmlns="http://www.w3.org/2000/svg" width="1920" height="1080" viewBox="0 0 1920 1080" shape-rendering="crispEdges">
<rect width="1920" height="1080" fill="#191536"/><rect x="510" y="822" width="3" height="3" fill="#6f6c9a"/><rect x="1227" y="228" width="3" height="3" fill="#6f6c9a"/><rect x="1833" y="717" width="3" height="3" fill="#a8a6c8"/><rect x="228" y="159" width="3" height="3" fill="#a8a6c8"/><rect x="1725" y="342" width="3" height="3" fill="#6f6c9a"/><rect x="1722" y="345" width="9" height="3" fill="#6f6c9a"/><rect x="1725" y="348" width="3" height="3" fill="#6f6c9a"/><rect x="1896" y="951" width="3" height="3" fill="#6f6c9a"/><rect x="243" y="810" width="3" height="3" fill="#a8a6c8"/><rect x="1689" y="225" width="3" height="3" fill="#a8a6c8"/><rect x="1671" y="975" width="3" height="3" fill="#ffffff"/><rect x="1515" y="30" width="3" height="3" fill="#a8a6c8"/><rect x="264" y="588" width="3" height="3" fill="#6f6c9a"/><rect x="1341" y="480" width="3" height="3" fill="#a8a6c8"/><rect x="1896" y="660" width="3" height="3" fill="#6f6c9a"/><rect x="111" y="1038" width="3" height="3" fill="#6f6c9a"/><rect x="1677" y="207" width="3" height="3" fill="#ffffff"/><rect x="1674" y="210" width="9" height="3" fill="#ffffff"/><rect x="1677" y="213" width="3" height="3" fill="#ffffff"/><rect x="1545" y="510" width="3" height="3" fill="#ffffff"/><rect x="1458" y="423" width="3" height="3" fill="#6f6c9a"/><rect x="1761" y="27" width="3" height="3" fill="#6f6c9a"/><rect x="1881" y="579" width="3" height="3" fill="#6f6c9a"/><rect x="747" y="255" width="3" height="3" fill="#a8a6c8"/><rect x="744" y="258" width="9" height="3" fill="#a8a6c8"/><rect x="747" y="261" width="3" height="3" fill="#a8a6c8"/><rect x="1884" y="756" width="3" height="3" fill="#a8a6c8"/><rect x="1476" y="165" width="3" height="3" fill="#6f6c9a"/><rect x="84" y="492" width="3" height="3" fill="#6f6c9a"/><rect x="1488" y="525" width="3" height="3" fill="#6f6c9a"/><rect x="1659" y="312" width="3" height="3" fill="#a8a6c8"/><rect x="663" y="18" width="3" height="3" fill="#6f6c9a"/><rect x="63" y="468" width="3" height="3" fill="#a8a6c8"/><rect x="1368" y="885" width="3" height="3" fill="#6f6c9a"/><rect x="675" y="531" width="3" height="3" fill="#a8a6c8"/><rect x="846" y="936" width="3" height="3" fill="#a8a6c8"/><rect x="186" y="9" width="3" height="3" fill="#6f6c9a"/><rect x="294" y="456" width="3" height="3" fill="#6f6c9a"/><rect x="1677" y="63" width="3" height="3" fill="#6f6c9a"/><rect x="9" y="789" width="3" height="3" fill="#6f6c9a"/><rect x="273" y="405" width="3" height="3" fill="#a8a6c8"/><rect x="1605" y="333" width="3" height="3" fill="#a8a6c8"/><rect x="1758" y="57" width="3" height="3" fill="#a8a6c8"/><rect x="1755" y="60" width="9" height="3" fill="#a8a6c8"/><rect x="1758" y="63" width="3" height="3" fill="#a8a6c8"/><rect x="69" y="1059" width="3" height="3" fill="#6f6c9a"/><rect x="66" y="1062" width="9" height="3" fill="#6f6c9a"/><rect x="69" y="1065" width="3" height="3" fill="#6f6c9a"/><rect x="1077" y="1062" width="3" height="3" fill="#ffffff"/><rect x="1449" y="972" width="3" height="3" fill="#6f6c9a"/><rect x="1473" y="597" width="3" height="3" fill="#6f6c9a"/><rect x="1173" y="603" width="3" height="3" fill="#a8a6c8"/><rect x="1275" y="864" width="3" height="3" fill="#a8a6c8"/><rect x="1644" y="318" width="3" height="3" fill="#6f6c9a"/><rect x="1758" y="789" width="3" height="3" fill="#a8a6c8"/><rect x="1440" y="147" width="3" height="3" fill="#a8a6c8"/><rect x="1704" y="384" width="3" height="3" fill="#ffffff"/><rect x="570" y="609" width="3" height="3" fill="#ffffff"/><rect x="1581" y="885" width="3" height="3" fill="#6f6c9a"/><rect x="1170" y="918" width="3" height="3" fill="#6f6c9a"/><rect x="309" y="957" width="3" height="3" fill="#6f6c9a"/><rect x="258" y="867" width="3" height="3" fill="#6f6c9a"/><rect x="444" y="837" width="3" height="3" fill="#6f6c9a"/><rect x="441" y="840" width="9" height="3" fill="#6f6c9a"/><rect x="444" y="843" width="3" height="3" fill="#6f6c9a"/><rect x="1584" y="111" width="3" height="3" fill="#6f6c9a"/><rect x="1443" y="90" width="3" height="3" fill="#a8a6c8"/><rect x="1566" y="651" width="3" height="3" fill="#ffffff"/><rect x="1563" y="654" width="9" height="3" fill="#ffffff"/><rect x="1566" y="657" width="3" height="3" fill="#ffffff"/><rect x="9" y="234" width="3" height="3" fill="#a8a6c8"/><rect x="990" y="249" width="3" height="3" fill="#a8a6c8"/><rect x="1845" y="507" width="3" height="3" fill="#6f6c9a"/><rect x="240" y="963" width="3" height="3" fill="#ffffff"/><rect x="1449" y="429" width="3" height="3" fill="#a8a6c8"/><rect x="660" y="582" width="3" height="3" fill="#6f6c9a"/><rect x="1266" y="933" width="3" height="3" fill="#6f6c9a"/><rect x="426" y="258" width="3" height="3" fill="#6f6c9a"/><rect x="1344" y="1038" width="3" height="3" fill="#6f6c9a"/><rect x="1662" y="573" width="3" height="3" fill="#6f6c9a"/><rect x="1785" y="258" width="3" height="3" fill="#a8a6c8"/><rect x="1782" y="261" width="9" height="3" fill="#a8a6c8"/><rect x="1785" y="264" width="3" height="3" fill="#a8a6c8"/><rect x="1623" y="753" width="3" height="3" fill="#a8a6c8"/><rect x="363" y="744" width="3" height="3" fill="#6f6c9a"/><rect x="1437" y="1068" width="3" height="3" fill="#a8a6c8"/><rect x="54" y="774" width="3" height="3" fill="#6f6c9a"/><rect x="1488" y="855" width="3" height="3" fill="#6f6c9a"/><rect x="444" y="9" width="3" height="3" fill="#ffffff"/><rect x="1473" y="465" width="3" height="3" fill="#6f6c9a"/><rect x="861" y="855" width="3" height="3" fill="#6f6c9a"/><rect x="1563" y="78" width="3" height="3" fill="#6f6c9a"/><rect x="1560" y="81" width="9" height="3" fill="#6f6c9a"/><rect x="1563" y="84" width="3" height="3" fill="#6f6c9a"/><rect x="219" y="681" width="3" height="3" fill="#ffffff"/><rect x="381" y="621" width="3" height="3" fill="#a8a6c8"/><rect x="1617" y="579" width="3" height="3" fill="#6f6c9a"/><rect x="114" y="306" width="3" height="3" fill="#a8a6c8"/><rect x="1407" y="630" width="3" height="3" fill="#a8a6c8"/><rect x="1038" y="981" width="3" height="3" fill="#a8a6c8"/><rect x="315" y="513" width="3" height="3" fill="#6f6c9a"/><rect x="1770" y="783" width="3" height="3" fill="#6f6c9a"/><rect x="1635" y="264" width="3" height="3" fill="#6f6c9a"/><rect x="417" y="453" width="3" height="3" fill="#6f6c9a"/><rect x="414" y="456" width="9" height="3" fill="#6f6c9a"/><rect x="417" y="459" width="3" height="3" fill="#6f6c9a"/><rect x="1836" y="663" width="3" height="3" fill="#6f6c9a"/><rect x="420" y="216" width="3" height="3" fill="#ffffff"/><rect x="1638" y="675" width="3" height="3" fill="#6f6c9a"/><rect x="126" y="882" width="3" height="3" fill="#ffffff"/><rect x="123" y="885" width="9" height="3" fill="#ffffff"/><rect x="126" y="888" width="3" height="3" fill="#ffffff"/><rect x="1218" y="618" width="3" height="3" fill="#ffffff"/><rect x="1344" y="516" width="3" height="3" fill="#6f6c9a"/><rect x="1791" y="597" width="3" height="3" fill="#a8a6c8"/><rect x="441" y="15" width="3" height="3" fill="#a8a6c8"/><rect x="1854" y="576" width="3" height="3" fill="#a8a6c8"/><rect x="18" y="294" width="3" height="3" fill="#6f6c9a"/><rect x="645" y="561" width="3" height="3" fill="#6f6c9a"/><rect x="1593" y="219" width="3" height="3" fill="#6f6c9a"/><rect x="1221" y="279" width="3" height="3" fill="#a8a6c8"/><rect x="1200" y="1056" width="3" height="3" fill="#6f6c9a"/><rect x="1197" y="1059" width="9" height="3" fill="#6f6c9a"/><rect x="1200" y="1062" width="3" height="3" fill="#6f6c9a"/><rect x="816" y="588" width="3" height="3" fill="#ffffff"/><rect x="1623" y="168" width="3" height="3" fill="#a8a6c8"/><rect x="39" y="462" width="3" height="3" fill="#6f6c9a"/><rect x="78" y="453" width="3" height="3" fill="#a8a6c8"/><rect x="1794" y="144" width="3" height="3" fill="#6f6c9a"/><rect x="6" y="579" width="3" height="3" fill="#6f6c9a"/><rect x="261" y="36" width="3" height="3" fill="#6f6c9a"/><rect x="1146" y="270" width="3" height="3" fill="#a8a6c8"/><rect x="1557" y="1041" width="3" height="3" fill="#a8a6c8"/><rect x="1770" y="495" width="3" height="3" fill="#a8a6c8"/><rect x="1767" y="498" width="9" height="3" fill="#a8a6c8"/><rect x="1770" y="501" width="3" height="3" fill="#a8a6c8"/><rect x="21" y="411" width="3" height="3" fill="#6f6c9a"/><rect x="18" y="414" width="9" height="3" fill="#6f6c9a"/><rect x="21" y="417" width="3" height="3" fill="#6f6c9a"/><rect x="1242" y="48" width="3" height="3" fill="#6f6c9a"/><rect x="1107" y="852" width="3" height="3" fill="#6f6c9a"/><rect x="1539" y="1071" width="3" height="3" fill="#6f6c9a"/><rect x="699" y="219" width="3" height="3" fill="#ffffff"/><rect x="696" y="222" width="9" height="3" fill="#ffffff"/><rect x="699" y="225" width="3" height="3" fill="#ffffff"/><rect x="198" y="183" width="3" height="3" fill="#a8a6c8"/><rect x="195" y="186" width="9" height="3" fill="#a8a6c8"/><rect x="198" y="189" width="3" height="3" fill="#a8a6c8"/><rect x="954" y="978" width="3" height="3" fill="#6f6c9a"/><rect x="1134" y="822" width="3" height="3" fill="#a8a6c8"/><rect x="1677" y="924" width="3" height="3" fill="#a8a6c8"/><rect x="1602" y="633" width="3" height="3" fill="#a8a6c8"/><rect x="1881" y="162" width="3" height="3" fill="#a8a6c8"/><rect x="1134" y="891" width="3" height="3" fill="#a8a6c8"/><rect x="984" y="246" width="3" height="3" fill="#6f6c9a"/><rect x="1263" y="951" width="3" height="3" fill="#6f6c9a"/><rect x="1260" y="954" width="9" height="3" fill="#6f6c9a"/><rect x="1263" y="957" width="3" height="3" fill="#6f6c9a"/><rect x="813" y="828" width="3" height="3" fill="#ffffff"/><rect x="1218" y="885" width="3" height="3" fill="#a8a6c8"/><rect x="372" y="831" width="3" height="3" fill="#6f6c9a"/><rect x="1644" y="882" width="3" height="3" fill="#a8a6c8"/><rect x="1641" y="885" width="9" height="3" fill="#a8a6c8"/><rect x="1644" y="888" width="3" height="3" fill="#a8a6c8"/><rect x="1161" y="600" width="3" height="3" fill="#a8a6c8"/><rect x="1158" y="180" width="3" height="3" fill="#6f6c9a"/><rect x="651" y="141" width="3" height="3" fill="#6f6c9a"/><rect x="1569" y="279" width="3" height="3" fill="#6f6c9a"/><rect x="1650" y="264" width="3" height="3" fill="#6f6c9a"/><rect x="1320" y="279" width="3" height="3" fill="#6f6c9a"/><rect x="468" y="858" width="3" height="3" fill="#ffffff"/><rect x="465" y="861" width="9" height="3" fill="#ffffff"/><rect x="468" y="864" width="3" height="3" fill="#ffffff"/><rect x="42" y="666" width="3" height="3" fill="#a8a6c8"/><rect x="39" y="669" width="9" height="3" fill="#a8a6c8"/><rect x="42" y="672" width="3" height="3" fill="#a8a6c8"/><rect x="1773" y="1068" width="3" height="3" fill="#6f6c9a"/><rect x="894" y="633" width="3" height="3" fill="#6f6c9a"/><rect x="1665" y="342" width="3" height="3" fill="#6f6c9a"/><rect x="1584" y="810" width="3" height="3" fill="#6f6c9a"/><rect x="228" y="630" width="3" height="3" fill="#a8a6c8"/><rect x="1170" y="0" width="3" height="3" fill="#6f6c9a"/><rect x="1845" y="930" width="3" height="3" fill="#6f6c9a"/><rect x="354" y="912" width="3" height="3" fill="#6f6c9a"/><rect x="612" y="477" width="3" height="3" fill="#6f6c9a"/><rect x="396" y="990" width="3" height="3" fill="#6f6c9a"/><rect x="1494" y="471" width="3" height="3" fill="#a8a6c8"/><rect x="1722" y="447" width="3" height="3" fill="#6f6c9a"/><rect x="378" y="981" width="3" height="3" fill="#ffffff"/><rect x="279" y="843" width="3" height="3" fill="#6f6c9a"/><rect x="849" y="528" width="3" height="3" fill="#6f6c9a"/><rect x="846" y="531" width="9" height="3" fill="#6f6c9a"/><rect x="849" y="534" width="3" height="3" fill="#6f6c9a"/><rect x="1167" y="225" width="3" height="3" fill="#ffffff"/><rect x="1164" y="228" width="9" height="3" fill="#ffffff"/><rect x="1167" y="231" width="3" height="3" fill="#ffffff"/><rect x="1806" y="81" width="3" height="3" fill="#ffffff"/><rect x="30" y="108" width="3" height="3" fill="#6f6c9a"/><rect x="750" y="252" width="3" height="3" fill="#6f6c9a"/><rect x="1146" y="267" width="3" height="3" fill="#ffffff"/><rect x="1824" y="912" width="3" height="3" fill="#6f6c9a"/><rect x="192" y="336" width="3" height="3" fill="#6f6c9a"/><rect x="294" y="687" width="3" height="3" fill="#6f6c9a"/><rect x="1575" y="792" width="3" height="3" fill="#ffffff"/><rect x="1758" y="36" width="3" height="3" fill="#6f6c9a"/><rect x="1755" y="39" width="9" height="3" fill="#6f6c9a"/><rect x="1758" y="42" width="3" height="3" fill="#6f6c9a"/><rect x="1353" y="861" width="3" height="3" fill="#6f6c9a"/><rect x="123" y="918" width="3" height="3" fill="#6f6c9a"/><rect x="1707" y="495" width="3" height="3" fill="#6f6c9a"/><rect x="1674" y="807" width="3" height="3" fill="#6f6c9a"/><rect x="1275" y="909" width="3" height="3" fill="#6f6c9a"/><rect x="1623" y="771" width="3" height="3" fill="#a8a6c8"/><rect x="1620" y="774" width="9" height="3" fill="#a8a6c8"/><rect x="1623" y="777" width="3" height="3" fill="#a8a6c8"/><rect x="1503" y="171" width="3" height="3" fill="#a8a6c8"/><rect x="1440" y="888" width="3" height="3" fill="#6f6c9a"/><rect x="390" y="585" width="3" height="3" fill="#a8a6c8"/><rect x="1875" y="567" width="3" height="3" fill="#6f6c9a"/><rect x="1872" y="570" width="9" height="3" fill="#6f6c9a"/><rect x="1875" y="573" width="3" height="3" fill="#6f6c9a"/><rect x="165" y="1029" width="3" height="3" fill="#6f6c9a"/><rect x="162" y="1032" width="9" height="3" fill="#6f6c9a"/><rect x="165" y="1035" width="3" height="3" fill="#6f6c9a"/><rect x="0" y="456" width="3" height="3" fill="#a8a6c8"/><rect x="1158" y="867" width="3" height="3" fill="#6f6c9a"/><rect x="27" y="966" width="3" height="3" fill="#6f6c9a"/><rect x="24" y="969" width="9" height="3" fill="#6f6c9a"/><rect x="27" y="972" width="3" height="3" fill="#6f6c9a"/><rect x="1131" y="861" width="3" height="3" fill="#6f6c9a"/><rect x="1659" y="735" width="3" height="3" fill="#6f6c9a"/><rect x="1791" y="141" width="3" height="3" fill="#a8a6c8"/><rect x="1833" y="54" width="3" height="3" fill="#a8a6c8"/><rect x="1845" y="597" width="3" height="3" fill="#6f6c9a"/><rect x="1842" y="819" width="3" height="3" fill="#6f6c9a"/><rect x="1512" y="849" width="3" height="3" fill="#6f6c9a"/><rect x="1017" y="192" width="3" height="3" fill="#6f6c9a"/><rect x="1848" y="678" width="3" height="3" fill="#6f6c9a"/><rect x="1845" y="681" width="9" height="3" fill="#6f6c9a"/><rect x="1848" y="684" width="3" height="3" fill="#6f6c9a"/><rect x="1785" y="747" width="3" height="3" fill="#a8a6c8"/><rect x="1110" y="1056" width="3" height="3" fill="#6f6c9a"/><rect x="1767" y="558" width="3" height="3" fill="#a8a6c8"/><rect x="393" y="498" width="3" height="3" fill="#a8a6c8"/><rect x="1674" y="546" width="3" height="3" fill="#6f6c9a"/><rect x="1257" y="840" width="3" height="3" fill="#6f6c9a"/><rect x="1617" y="1068" width="3" height="3" fill="#6f6c9a"/><rect x="1599" y="768" width="3" height="3" fill="#6f6c9a"/><rect x="1596" y="771" width="9" height="3" fill="#6f6c9a"/><rect x="1599" y="774" width="3" height="3" fill="#6f6c9a"/><rect x="705" y="615" width="3" height="3" fill="#a8a6c8"/><rect x="402" y="876" width="3" height="3" fill="#6f6c9a"/><rect x="366" y="93" width="3" height="3" fill="#a8a6c8"/><rect x="363" y="96" width="9" height="3" fill="#a8a6c8"/><rect x="366" y="99" width="3" height="3" fill="#a8a6c8"/><rect x="936" y="819" width="3" height="3" fill="#a8a6c8"/><rect x="177" y="108" width="3" height="3" fill="#a8a6c8"/><rect x="174" y="111" width="9" height="3" fill="#a8a6c8"/><rect x="177" y="114" width="3" height="3" fill="#a8a6c8"/><rect x="798" y="918" width="3" height="3" fill="#6f6c9a"/><rect x="1263" y="201" width="3" height="3" fill="#a8a6c8"/><rect x="1836" y="762" width="3" height="3" fill="#a8a6c8"/><rect x="1833" y="765" width="9" height="3" fill="#a8a6c8"/><rect x="1836" y="768" width="3" height="3" fill="#a8a6c8"/><rect x="1479" y="1047" width="3" height="3" fill="#a8a6c8"/><rect x="216" y="804" width="3" height="3" fill="#a8a6c8"/><rect x="348" y="915" width="3" height="3" fill="#6f6c9a"/><rect x="801" y="906" width="3" height="3" fill="#6f6c9a"/><rect x="648" y="825" width="3" height="3" fill="#a8a6c8"/><rect x="447" y="1062" width="3" height="3" fill="#a8a6c8"/><rect x="1773" y="606" width="3" height="3" fill="#6f6c9a"/><rect x="1770" y="609" width="9" height="3" fill="#6f6c9a"/><rect x="1773" y="612" width="3" height="3" fill="#6f6c9a"/><rect x="1248" y="171" width="3" height="3" fill="#a8a6c8"/><rect x="1557" y="171" width="3" height="3" fill="#6f6c9a"/><rect x="1314" y="39" width="3" height="3" fill="#a8a6c8"/><rect x="201" y="201" width="3" height="3" fill="#6f6c9a"/><rect x="1728" y="141" width="3" height="3" fill="#ffffff"/><rect x="1752" y="708" width="3" height="3" fill="#ffffff"/><rect x="1791" y="12" width="3" height="3" fill="#ffffff"/><rect x="1311" y="246" width="3" height="3" fill="#6f6c9a"/><rect x="1437" y="159" width="3" height="3" fill="#6f6c9a"/><rect x="1902" y="1011" width="3" height="3" fill="#a8a6c8"/><rect x="858" y="918" width="3" height="3" fill="#6f6c9a"/><rect x="1512" y="156" width="3" height="3" fill="#a8a6c8"/><rect x="1398" y="126" width="3" height="3" fill="#a8a6c8"/><rect x="1395" y="129" width="9" height="3" fill="#a8a6c8"/><rect x="1398" y="132" width="3" height="3" fill="#a8a6c8"/><rect x="942" y="1038" width="3" height="3" fill="#ffffff"/><rect x="1605" y="735" width="3" height="3" fill="#6f6c9a"/><rect x="1896" y="993" width="3" height="3" fill="#a8a6c8"/><rect x="813" y="1038" width="3" height="3" fill="#6f6c9a"/><rect x="1737" y="30" width="3" height="3" fill="#6f6c9a"/><rect x="1734" y="33" width="9" height="3" fill="#6f6c9a"/><rect x="1737" y="36" width="3" height="3" fill="#6f6c9a"/><rect x="864" y="834" width="3" height="3" fill="#ffffff"/><rect x="558" y="519" width="3" height="3" fill="#6f6c9a"/><rect x="366" y="216" width="3" height="3" fill="#a8a6c8"/><rect x="42" y="552" width="3" height="3" fill="#6f6c9a"/><rect x="408" y="489" width="3" height="3" fill="#6f6c9a"/><rect x="6" y="777" width="3" height="3" fill="#6f6c9a"/><rect x="39" y="603" width="3" height="3" fill="#ffffff"/><rect x="219" y="906" width="3" height="3" fill="#6f6c9a"/><rect x="1749" y="546" width="3" height="3" fill="#a8a6c8"/><rect x="1746" y="549" width="9" height="3" fill="#a8a6c8"/><rect x="1749" y="552" width="3" height="3" fill="#a8a6c8"/><rect x="1671" y="288" width="3" height="3" fill="#6f6c9a"/><rect x="1668" y="291" width="9" height="3" fill="#6f6c9a"/><rect x="1671" y="294" width="3" height="3" fill="#6f6c9a"/><rect x="822" y="267" width="3" height="3" fill="#a8a6c8"/><rect x="912" y="189" width="3" height="3" fill="#6f6c9a"/><rect x="1326" y="966" width="3" height="3" fill="#a8a6c8"/><rect x="627" y="1059" width="3" height="3" fill="#6f6c9a"/><rect x="624" y="1062" width="9" height="3" fill="#6f6c9a"/><rect x="627" y="1065" width="3" height="3" fill="#6f6c9a"/><rect x="1143" y="432" width="3" height="3" fill="#a8a6c8"/><rect x="1710" y="135" width="3" height="3" fill="#ffffff"/><rect x="1716" y="888" width="3" height="3" fill="#6f6c9a"/><rect x="1848" y="609" width="3" height="3" fill="#6f6c9a"/><rect x="1845" y="612" width="9" height="3" fill="#6f6c9a"/><rect x="1848" y="615" width="3" height="3" fill="#6f6c9a"/><rect x="297" y="498" width="3" height="3" fill="#6f6c9a"/><rect x="186" y="147" width="3" height="3" fill="#ffffff"/><rect x="453" y="108" width="3" height="3" fill="#a8a6c8"/><rect x="1818" y="651" width="3" height="3" fill="#6f6c9a"/><rect x="393" y="846" width="3" height="3" fill="#a8a6c8"/><rect x="366" y="159" width="3" height="3" fill="#6f6c9a"/>
<text x="967" y="125" font-family="'Press Start 2P'" font-size="56" text-anchor="middle" letter-spacing="5" fill="#100d20">FROM SCRATCH</text><text x="960" y="118" font-family="'Press Start 2P'" font-size="56" text-anchor="middle" letter-spacing="5" fill="#ffffff">FROM SCRATCH</text>
<text x="960" y="330" font-family="'Press Start 2P'" font-size="40" text-anchor="middle" letter-spacing="3" fill="#b8b4dc">WE ASKED FOUR PEOPLE TO DRAW</text><text x="960" y="400" font-family="'Press Start 2P'" font-size="40" text-anchor="middle" letter-spacing="3" fill="#b8b4dc">HOW SOMETHING THEY OWN IS MADE.</text><text x="967" y="507" font-family="'Press Start 2P'" font-size="56" text-anchor="middle" letter-spacing="5" fill="#100d20">NONE COULD.</text><text x="960" y="500" font-family="'Press Start 2P'" font-size="56" text-anchor="middle" letter-spacing="5" fill="#e8752c">NONE COULD.</text><polygon points="394,664 1526,664 1526,664 1532,664 1532,670 1532,670 1538,670 1538,676 1538,676 1544,676 1544,682 1544,682 1550,682 1550,688 1550,688 1550,786 1550,786 1550,792 1544,792 1544,792 1544,798 1538,798 1538,798 1538,804 1532,804 1532,804 1532,810 1526,810 1526,810 394,810 394,810 388,810 388,804 388,804 382,804 382,798 382,798 376,798 376,792 376,792 370,792 370,786 370,786 370,688 370,688 370,682 376,682 376,682 376,676 382,676 382,676 382,670 388,670 388,670 388,664 394,664" fill="#100d20"/><polygon points="394,640 1526,640 1526,640 1532,640 1532,646 1532,646 1538,646 1538,652 1538,652 1544,652 1544,658 1544,658 1550,658 1550,664 1550,664 1550,762 1550,762 1550,768 1544,768 1544,768 1544,774 1538,774 1538,774 1538,780 1532,780 1532,780 1532,786 1526,786 1526,786 394,786 394,786 388,786 388,780 388,780 382,780 382,774 382,774 376,774 376,768 376,768 370,768 370,762 370,762 370,664 370,664 370,658 376,658 376,658 376,652 382,652 382,652 382,646 388,646 388,646 388,640 394,640" fill="#0b4a59"/><polygon points="394,646 1526,646 1526,646 1532,646 1532,652 1532,652 1538,652 1538,658 1538,658 1544,658 1544,664 1544,664 1544,762 1544,762 1544,768 1538,768 1538,768 1538,774 1532,774 1532,774 1532,780 1526,780 1526,780 394,780 394,780 388,780 388,774 388,774 382,774 382,768 382,768 376,768 376,762 376,762 376,664 376,664 376,658 382,658 382,658 382,652 388,652 388,652 388,646 394,646" fill="#22a2bd"/><rect x="394" y="646" width="1132" height="6" fill="#68dcef"/><rect x="376" y="664" width="6" height="98" fill="#68dcef"/><rect x="394" y="774" width="1132" height="6" fill="#137689"/><rect x="1538" y="664" width="6" height="98" fill="#137689"/><text x="964" y="734" font-family="'Press Start 2P'" font-size="35" text-anchor="middle" letter-spacing="2" fill="#100d20">from-scratch-three.vercel.app</text><text x="960" y="730" font-family="'Press Start 2P'" font-size="35" text-anchor="middle" letter-spacing="2" fill="#ffffff">from-scratch-three.vercel.app</text>
<text x="960" y="1022" font-family="'Press Start 2P'" font-size="24" text-anchor="middle" letter-spacing="1" fill="#6fc48d">no account. no install. it works on the phone in your pocket.</text>
</svg>