<svg xmlns="http://www.w3.org/2000/svg" width="1920" height="1080" viewBox="0 0 1920 1080" shape-rendering="crispEdges">
<rect width="1920" height="1080" fill="#191536"/><rect x="222" y="972" width="3" height="3" fill="#6f6c9a"/><rect x="513" y="513" width="3" height="3" fill="#6f6c9a"/><rect x="1350" y="1065" width="3" height="3" fill="#a8a6c8"/><rect x="1347" y="1068" width="9" height="3" fill="#a8a6c8"/><rect x="1350" y="1071" width="3" height="3" fill="#a8a6c8"/><rect x="885" y="168" width="3" height="3" fill="#6f6c9a"/><rect x="15" y="66" width="3" height="3" fill="#6f6c9a"/><rect x="168" y="597" width="3" height="3" fill="#6f6c9a"/><rect x="138" y="657" width="3" height="3" fill="#6f6c9a"/><rect x="1428" y="861" width="3" height="3" fill="#6f6c9a"/><rect x="291" y="933" width="3" height="3" fill="#6f6c9a"/><rect x="1779" y="72" width="3" height="3" fill="#a8a6c8"/><rect x="1776" y="75" width="9" height="3" fill="#a8a6c8"/><rect x="1779" y="78" width="3" height="3" fill="#a8a6c8"/><rect x="372" y="564" width="3" height="3" fill="#6f6c9a"/><rect x="1248" y="585" width="3" height="3" fill="#a8a6c8"/><rect x="1104" y="903" width="3" height="3" fill="#6f6c9a"/><rect x="1701" y="975" width="3" height="3" fill="#a8a6c8"/><rect x="498" y="510" width="3" height="3" fill="#6f6c9a"/><rect x="1470" y="606" width="3" height="3" fill="#6f6c9a"/><rect x="1590" y="972" width="3" height="3" fill="#6f6c9a"/><rect x="1842" y="894" width="3" height="3" fill="#6f6c9a"/><rect x="1680" y="147" width="3" height="3" fill="#6f6c9a"/><rect x="1329" y="420" width="3" height="3" fill="#6f6c9a"/><rect x="1377" y="180" width="3" height="3" fill="#a8a6c8"/><rect x="642" y="864" width="3" height="3" fill="#a8a6c8"/><rect x="933" y="456" width="3" height="3" fill="#6f6c9a"/><rect x="930" y="459" width="9" height="3" fill="#6f6c9a"/><rect x="933" y="462" width="3" height="3" fill="#6f6c9a"/><rect x="1644" y="555" width="3" height="3" fill="#a8a6c8"/><rect x="333" y="639" width="3" height="3" fill="#a8a6c8"/><rect x="330" y="642" width="9" height="3" fill="#a8a6c8"/><rect x="333" y="645" width="3" height="3" fill="#a8a6c8"/><rect x="309" y="912" width="3" height="3" fill="#a8a6c8"/><rect x="630" y="258" width="3" height="3" fill="#6f6c9a"/><rect x="846" y="219" width="3" height="3" fill="#6f6c9a"/><rect x="843" y="222" width="9" height="3" fill="#6f6c9a"/><rect x="846" y="225" width="3" height="3" fill="#6f6c9a"/><rect x="1608" y="132" width="3" height="3" fill="#ffffff"/><rect x="642" y="6" width="3" height="3" fill="#ffffff"/><rect x="639" y="9" width="9" height="3" fill="#ffffff"/><rect x="642" y="12" width="3" height="3" fill="#ffffff"/><rect x="1872" y="339" width="3" height="3" fill="#6f6c9a"/><rect x="477" y="234" width="3" height="3" fill="#6f6c9a"/><rect x="1155" y="639" width="3" height="3" fill="#6f6c9a"/><rect x="1170" y="207" width="3" height="3" fill="#a8a6c8"/><rect x="294" y="126" width="3" height="3" fill="#6f6c9a"/><rect x="1881" y="150" width="3" height="3" fill="#6f6c9a"/><rect x="1107" y="159" width="3" height="3" fill="#ffffff"/><rect x="78" y="747" width="3" height="3" fill="#6f6c9a"/><rect x="1254" y="516" width="3" height="3" fill="#a8a6c8"/><rect x="1251" y="519" width="9" height="3" fill="#a8a6c8"/><rect x="1254" y="522" width="3" height="3" fill="#a8a6c8"/><rect x="1536" y="570" width="3" height="3" fill="#a8a6c8"/><rect x="351" y="912" width="3" height="3" fill="#a8a6c8"/><rect x="453" y="570" width="3" height="3" fill="#a8a6c8"/><rect x="462" y="873" width="3" height="3" fill="#6f6c9a"/><rect x="459" y="876" width="9" height="3" fill="#6f6c9a"/><rect x="462" y="879" width="3" height="3" fill="#6f6c9a"/><rect x="198" y="984" width="3" height="3" fill="#6f6c9a"/><rect x="1143" y="228" width="3" height="3" fill="#6f6c9a"/><rect x="1113" y="213" width="3" height="3" fill="#a8a6c8"/><rect x="930" y="165" width="3" height="3" fill="#6f6c9a"/><rect x="1530" y="930" width="3" height="3" fill="#a8a6c8"/><rect x="1527" y="933" width="9" height="3" fill="#a8a6c8"/><rect x="1530" y="936" width="3" height="3" fill="#a8a6c8"/><rect x="1269" y="288" width="3" height="3" fill="#a8a6c8"/><rect x="1266" y="291" width="9" height="3" fill="#a8a6c8"/><rect x="1269" y="294" width="3" height="3" fill="#a8a6c8"/><rect x="1173" y="603" width="3" height="3" fill="#6f6c9a"/><rect x="1170" y="606" width="9" height="3" fill="#6f6c9a"/><rect x="1173" y="609" width="3" height="3" fill="#6f6c9a"/><rect x="558" y="636" width="3" height="3" fill="#ffffff"/><rect x="555" y="639" width="9" height="3" fill="#ffffff"/><rect x="558" y="642" width="3" height="3" fill="#ffffff"/><rect x="396" y="615" width="3" height="3" fill="#6f6c9a"/><rect x="96" y="432" width="3" height="3" fill="#a8a6c8"/><rect x="261" y="810" width="3" height="3" fill="#6f6c9a"/><rect x="606" y="633" width="3" height="3" fill="#6f6c9a"/><rect x="657" y="879" width="3" height="3" fill="#6f6c9a"/><rect x="1029" y="987" width="3" height="3" fill="#6f6c9a"/><rect x="1911" y="231" width="3" height="3" fill="#a8a6c8"/><rect x="1464" y="1068" width="3" height="3" fill="#ffffff"/><rect x="1386" y="573" width="3" height="3" fill="#a8a6c8"/><rect x="1695" y="1074" width="3" height="3" fill="#a8a6c8"/><rect x="843" y="864" width="3" height="3" fill="#6f6c9a"/><rect x="1317" y="342" width="3" height="3" fill="#a8a6c8"/><rect x="1314" y="345" width="9" height="3" fill="#a8a6c8"/><rect x="1317" y="348" width="3" height="3" fill="#a8a6c8"/><rect x="1842" y="576" width="3" height="3" fill="#6f6c9a"/><rect x="246" y="198" width="3" height="3" fill="#6f6c9a"/><rect x="1326" y="498" width="3" height="3" fill="#a8a6c8"/><rect x="438" y="852" width="3" height="3" fill="#6f6c9a"/><rect x="570" y="876" width="3" height="3" fill="#6f6c9a"/><rect x="1368" y="96" width="3" height="3" fill="#a8a6c8"/><rect x="768" y="204" width="3" height="3" fill="#6f6c9a"/><rect x="765" y="207" width="9" height="3" fill="#6f6c9a"/><rect x="768" y="210" width="3" height="3" fill="#6f6c9a"/><rect x="1503" y="873" width="3" height="3" fill="#6f6c9a"/><rect x="654" y="936" width="3" height="3" fill="#6f6c9a"/><rect x="639" y="615" width="3" height="3" fill="#6f6c9a"/><rect x="585" y="21" width="3" height="3" fill="#a8a6c8"/><rect x="1116" y="579" width="3" height="3" fill="#a8a6c8"/><rect x="627" y="876" width="3" height="3" fill="#a8a6c8"/><rect x="1680" y="669" width="3" height="3" fill="#6f6c9a"/><rect x="1677" y="672" width="9" height="3" fill="#6f6c9a"/><rect x="1680" y="675" width="3" height="3" fill="#6f6c9a"/><rect x="1833" y="237" width="3" height="3" fill="#6f6c9a"/><rect x="321" y="198" width="3" height="3" fill="#a8a6c8"/><rect x="609" y="1077" width="3" height="3" fill="#6f6c9a"/><rect x="225" y="231" width="3" height="3" fill="#a8a6c8"/><rect x="1914" y="285" width="3" height="3" fill="#6f6c9a"/><rect x="48" y="1002" width="3" height="3" fill="#6f6c9a"/><rect x="84" y="681" width="3" height="3" fill="#6f6c9a"/><rect x="1806" y="57" width="3" height="3" fill="#6f6c9a"/><rect x="675" y="966" width="3" height="3" fill="#6f6c9a"/><rect x="168" y="1038" width="3" height="3" fill="#6f6c9a"/><rect x="594" y="630" width="3" height="3" fill="#a8a6c8"/><rect x="591" y="633" width="9" height="3" fill="#a8a6c8"/><rect x="594" y="636" width="3" height="3" fill="#a8a6c8"/><rect x="810" y="1068" width="3" height="3" fill="#6f6c9a"/><rect x="1779" y="156" width="3" height="3" fill="#a8a6c8"/><rect x="1776" y="159" width="9" height="3" fill="#a8a6c8"/><rect x="1779" y="162" width="3" height="3" fill="#a8a6c8"/><rect x="1584" y="1053" width="3" height="3" fill="#6f6c9a"/><rect x="558" y="882" width="3" height="3" fill="#6f6c9a"/><rect x="1233" y="528" width="3" height="3" fill="#6f6c9a"/><rect x="9" y="177" width="3" height="3" fill="#a8a6c8"/><rect x="1356" y="192" width="3" height="3" fill="#a8a6c8"/><rect x="1353" y="195" width="9" height="3" fill="#a8a6c8"/><rect x="1356" y="198" width="3" height="3" fill="#a8a6c8"/><rect x="78" y="36" width="3" height="3" fill="#6f6c9a"/><rect x="1311" y="471" width="3" height="3" fill="#a8a6c8"/><rect x="201" y="186" width="3" height="3" fill="#a8a6c8"/><rect x="1746" y="942" width="3" height="3" fill="#a8a6c8"/><rect x="510" y="1068" width="3" height="3" fill="#6f6c9a"/><rect x="69" y="90" width="3" height="3" fill="#6f6c9a"/><rect x="786" y="966" width="3" height="3" fill="#a8a6c8"/><rect x="1734" y="630" width="3" height="3" fill="#6f6c9a"/><rect x="192" y="174" width="3" height="3" fill="#6f6c9a"/><rect x="1584" y="12" width="3" height="3" fill="#6f6c9a"/><rect x="1566" y="927" width="3" height="3" fill="#6f6c9a"/><rect x="1563" y="930" width="9" height="3" fill="#6f6c9a"/><rect x="1566" y="933" width="3" height="3" fill="#6f6c9a"/><rect x="750" y="156" width="3" height="3" fill="#a8a6c8"/><rect x="1383" y="189" width="3" height="3" fill="#6f6c9a"/><rect x="1380" y="192" width="9" height="3" fill="#6f6c9a"/><rect x="1383" y="195" width="3" height="3" fill="#6f6c9a"/><rect x="1170" y="960" width="3" height="3" fill="#6f6c9a"/><rect x="960" y="618" width="3" height="3" fill="#a8a6c8"/><rect x="957" y="621" width="9" height="3" fill="#a8a6c8"/><rect x="960" y="624" width="3" height="3" fill="#a8a6c8"/><rect x="618" y="534" width="3" height="3" fill="#6f6c9a"/><rect x="615" y="537" width="9" height="3" fill="#6f6c9a"/><rect x="618" y="540" width="3" height="3" fill="#6f6c9a"/><rect x="1740" y="528" width="3" height="3" fill="#6f6c9a"/><rect x="594" y="855" width="3" height="3" fill="#6f6c9a"/><rect x="1347" y="555" width="3" height="3" fill="#6f6c9a"/><rect x="1071" y="930" width="3" height="3" fill="#a8a6c8"/><rect x="1914" y="993" width="3" height="3" fill="#6f6c9a"/><rect x="129" y="189" width="3" height="3" fill="#6f6c9a"/><rect x="126" y="192" width="9" height="3" fill="#6f6c9a"/><rect x="129" y="195" width="3" height="3" fill="#6f6c9a"/><rect x="1482" y="171" width="3" height="3" fill="#6f6c9a"/><rect x="1479" y="174" width="9" height="3" fill="#6f6c9a"/><rect x="1482" y="177" width="3" height="3" fill="#6f6c9a"/><rect x="369" y="891" width="3" height="3" fill="#6f6c9a"/><rect x="639" y="351" width="3" height="3" fill="#6f6c9a"/><rect x="597" y="279" width="3" height="3" fill="#ffffff"/><rect x="18" y="237" width="3" height="3" fill="#a8a6c8"/><rect x="1404" y="864" width="3" height="3" fill="#6f6c9a"/><rect x="1401" y="867" width="9" height="3" fill="#6f6c9a"/><rect x="1404" y="870" width="3" height="3" fill="#6f6c9a"/><rect x="264" y="234" width="3" height="3" fill="#6f6c9a"/><rect x="42" y="531" width="3" height="3" fill="#6f6c9a"/><rect x="468" y="987" width="3" height="3" fill="#6f6c9a"/><rect x="708" y="564" width="3" height="3" fill="#a8a6c8"/><rect x="705" y="567" width="9" height="3" fill="#a8a6c8"/><rect x="708" y="570" width="3" height="3" fill="#a8a6c8"/><rect x="1467" y="75" width="3" height="3" fill="#ffffff"/><rect x="1446" y="147" width="3" height="3" fill="#a8a6c8"/><rect x="294" y="882" width="3" height="3" fill="#a8a6c8"/><rect x="1617" y="966" width="3" height="3" fill="#a8a6c8"/><rect x="273" y="597" width="3" height="3" fill="#a8a6c8"/><rect x="345" y="651" width="3" height="3" fill="#6f6c9a"/><rect x="774" y="1050" width="3" height="3" fill="#6f6c9a"/><rect x="549" y="489" width="3" height="3" fill="#6f6c9a"/><rect x="768" y="609" width="3" height="3" fill="#ffffff"/><rect x="456" y="987" width="3" height="3" fill="#a8a6c8"/><rect x="453" y="990" width="9" height="3" fill="#a8a6c8"/><rect x="456" y="993" width="3" height="3" fill="#a8a6c8"/><rect x="1701" y="1050" width="3" height="3" fill="#6f6c9a"/><rect x="1656" y="690" width="3" height="3" fill="#ffffff"/><rect x="681" y="975" width="3" height="3" fill="#a8a6c8"/><rect x="54" y="675" width="3" height="3" fill="#6f6c9a"/><rect x="51" y="678" width="9" height="3" fill="#6f6c9a"/><rect x="54" y="681" width="3" height="3" fill="#6f6c9a"/><rect x="1602" y="210" width="3" height="3" fill="#a8a6c8"/><rect x="1599" y="213" width="9" height="3" fill="#a8a6c8"/><rect x="1602" y="216" width="3" height="3" fill="#a8a6c8"/><rect x="42" y="576" width="3" height="3" fill="#6f6c9a"/><rect x="39" y="579" width="9" height="3" fill="#6f6c9a"/><rect x="42" y="582" width="3" height="3" fill="#6f6c9a"/><rect x="330" y="99" width="3" height="3" fill="#6f6c9a"/><rect x="1503" y="225" width="3" height="3" fill="#6f6c9a"/><rect x="1101" y="51" width="3" height="3" fill="#a8a6c8"/><rect x="1098" y="54" width="9" height="3" fill="#a8a6c8"/><rect x="1101" y="57" width="3" height="3" fill="#a8a6c8"/><rect x="258" y="942" width="3" height="3" fill="#a8a6c8"/><rect x="768" y="180" width="3" height="3" fill="#6f6c9a"/><rect x="813" y="141" width="3" height="3" fill="#6f6c9a"/><rect x="1362" y="957" width="3" height="3" fill="#6f6c9a"/><rect x="15" y="171" width="3" height="3" fill="#a8a6c8"/><rect x="12" y="174" width="9" height="3" fill="#a8a6c8"/><rect x="15" y="177" width="3" height="3" fill="#a8a6c8"/><rect x="1356" y="555" width="3" height="3" fill="#ffffff"/><rect x="1353" y="558" width="9" height="3" fill="#ffffff"/><rect x="1356" y="561" width="3" height="3" fill="#ffffff"/><rect x="1191" y="894" width="3" height="3" fill="#a8a6c8"/><rect x="1218" y="408" width="3" height="3" fill="#6f6c9a"/><rect x="1602" y="210" width="3" height="3" fill="#a8a6c8"/><rect x="1599" y="213" width="9" height="3" fill="#a8a6c8"/><rect x="1602" y="216" width="3" height="3" fill="#a8a6c8"/><rect x="1290" y="849" width="3" height="3" fill="#6f6c9a"/><rect x="1704" y="825" width="3" height="3" fill="#6f6c9a"/><rect x="1530" y="633" width="3" height="3" fill="#6f6c9a"/><rect x="18" y="750" width="3" height="3" fill="#a8a6c8"/><rect x="372" y="15" width="3" height="3" fill="#ffffff"/><rect x="1071" y="183" width="3" height="3" fill="#6f6c9a"/><rect x="1068" y="186" width="9" height="3" fill="#6f6c9a"/><rect x="1071" y="189" width="3" height="3" fill="#6f6c9a"/><rect x="57" y="30" width="3" height="3" fill="#6f6c9a"/><rect x="1608" y="117" width="3" height="3" fill="#ffffff"/><rect x="1818" y="990" width="3" height="3" fill="#6f6c9a"/><rect x="1470" y="576" width="3" height="3" fill="#6f6c9a"/><rect x="1494" y="585" width="3" height="3" fill="#6f6c9a"/><rect x="1491" y="588" width="9" height="3" fill="#6f6c9a"/><rect x="1494" y="591" width="3" height="3" fill="#6f6c9a"/><rect x="972" y="519" width="3" height="3" fill="#a8a6c8"/><rect x="198" y="156" width="3" height="3" fill="#6f6c9a"/><rect x="747" y="45" width="3" height="3" fill="#6f6c9a"/><rect x="1548" y="24" width="3" height="3" fill="#ffffff"/><rect x="675" y="378" width="3" height="3" fill="#6f6c9a"/><rect x="1002" y="552" width="3" height="3" fill="#6f6c9a"/><rect x="282" y="957" width="3" height="3" fill="#6f6c9a"/><rect x="486" y="636" width="3" height="3" fill="#6f6c9a"/><rect x="483" y="639" width="9" height="3" fill="#6f6c9a"/><rect x="486" y="642" width="3" height="3" fill="#6f6c9a"/><rect x="1911" y="336" width="3" height="3" fill="#6f6c9a"/><rect x="24" y="321" width="3" height="3" fill="#6f6c9a"/><rect x="1278" y="483" width="3" height="3" fill="#a8a6c8"/><rect x="1041" y="459" width="3" height="3" fill="#6f6c9a"/><rect x="1296" y="954" width="3" height="3" fill="#a8a6c8"/><rect x="126" y="507" width="3" height="3" fill="#6f6c9a"/><rect x="741" y="438" width="3" height="3" fill="#6f6c9a"/><rect x="738" y="441" width="9" height="3" fill="#6f6c9a"/><rect x="741" y="444" width="3" height="3" fill="#6f6c9a"/><rect x="174" y="771" width="3" height="3" fill="#6f6c9a"/><rect x="1269" y="921" width="3" height="3" fill="#ffffff"/><rect x="1842" y="105" width="3" height="3" fill="#6f6c9a"/><rect x="636" y="1053" width="3" height="3" fill="#6f6c9a"/><rect x="1161" y="1041" width="3" height="3" fill="#a8a6c8"/><rect x="1158" y="1044" width="9" height="3" fill="#a8a6c8"/><rect x="1161" y="1047" width="3" height="3" fill="#a8a6c8"/><rect x="63" y="711" width="3" height="3" fill="#6f6c9a"/><rect x="1875" y="267" width="3" height="3" fill="#a8a6c8"/><rect x="1872" y="270" width="9" height="3" fill="#a8a6c8"/><rect x="1875" y="273" width="3" height="3" fill="#a8a6c8"/><rect x="1326" y="642" width="3" height="3" fill="#6f6c9a"/><rect x="1596" y="987" width="3" height="3" fill="#a8a6c8"/><rect x="711" y="627" width="3" height="3" fill="#ffffff"/><rect x="1176" y="954" width="3" height="3" fill="#6f6c9a"/><rect x="120" y="888" width="3" height="3" fill="#a8a6c8"/><rect x="117" y="891" width="9" height="3" fill="#a8a6c8"/><rect x="120" y="894" width="3" height="3" fill="#a8a6c8"/><rect x="1908" y="468" width="3" height="3" fill="#6f6c9a"/><rect x="81" y="1053" width="3" height="3" fill="#a8a6c8"/><rect x="972" y="225" width="3" height="3" fill="#a8a6c8"/><rect x="1917" y="504" width="3" height="3" fill="#6f6c9a"/><rect x="240" y="9" width="3" height="3" fill="#ffffff"/><rect x="237" y="12" width="9" height="3" fill="#ffffff"/><rect x="240" y="15" width="3" height="3" fill="#ffffff"/><rect x="1089" y="879" width="3" height="3" fill="#6f6c9a"/><rect x="1086" y="882" width="9" height="3" fill="#6f6c9a"/><rect x="1089" y="885" width="3" height="3" fill="#6f6c9a"/><rect x="903" y="171" width="3" height="3" fill="#a8a6c8"/><rect x="1020" y="537" width="3" height="3" fill="#a8a6c8"/><rect x="1017" y="540" width="9" height="3" fill="#a8a6c8"/><rect x="1020" y="543" width="3" height="3" fill="#a8a6c8"/><rect x="885" y="945" width="3" height="3" fill="#a8a6c8"/><rect x="882" y="948" width="9" height="3" fill="#a8a6c8"/><rect x="885" y="951" width="3" height="3" fill="#a8a6c8"/><rect x="1521" y="183" width="3" height="3" fill="#a8a6c8"/><rect x="30" y="537" width="3" height="3" fill="#6f6c9a"/><rect x="255" y="225" width="3" height="3" fill="#6f6c9a"/><rect x="1713" y="714" width="3" height="3" fill="#6f6c9a"/><rect x="1266" y="525" width="3" height="3" fill="#6f6c9a"/><rect x="1443" y="222" width="3" height="3" fill="#ffffff"/><rect x="1440" y="225" width="9" height="3" fill="#ffffff"/><rect x="1443" y="228" width="3" height="3" fill="#ffffff"/><rect x="954" y="165" width="3" height="3" fill="#6f6c9a"/><rect x="591" y="264" width="3" height="3" fill="#6f6c9a"/><rect x="1836" y="831" width="3" height="3" fill="#6f6c9a"/><rect x="1773" y="1062" width="3" height="3" fill="#a8a6c8"/><rect x="1428" y="84" width="3" height="3" fill="#6f6c9a"/><rect x="1425" y="87" width="9" height="3" fill="#6f6c9a"/><rect x="1428" y="90" width="3" height="3" fill="#6f6c9a"/><rect x="396" y="900" width="3" height="3" fill="#a8a6c8"/><rect x="393" y="903" width="9" height="3" fill="#a8a6c8"/><rect x="396" y="906" width="3" height="3" fill="#a8a6c8"/><rect x="615" y="477" width="3" height="3" fill="#ffffff"/><rect x="612" y="480" width="9" height="3" fill="#ffffff"/><rect x="615" y="483" width="3" height="3" fill="#ffffff"/><rect x="1002" y="513" width="3" height="3" fill="#a8a6c8"/><rect x="885" y="225" width="3" height="3" fill="#ffffff"/><rect x="0" y="192" width="3" height="3" fill="#a8a6c8"/><rect x="1500" y="918" width="3" height="3" fill="#6f6c9a"/><rect x="1305" y="612" width="3" height="3" fill="#6f6c9a"/><rect x="1707" y="864" width="3" height="3" fill="#6f6c9a"/><rect x="1704" y="867" width="9" height="3" fill="#6f6c9a"/><rect x="1707" y="870" width="3" height="3" fill="#6f6c9a"/><rect x="1680" y="714" width="3" height="3" fill="#6f6c9a"/>
<text x="967" y="125" font-family="'Press Start 2P'" font-size="56" text-anchor="middle" letter-spacing="5" fill="#100d20">UNDER LOAD</text><text x="960" y="118" font-family="'Press Start 2P'" font-size="56" text-anchor="middle" letter-spacing="5" fill="#ffffff">UNDER LOAD</text>
<polygon points="94,274 546,274 546,274 552,274 552,280 552,280 558,280 558,286 558,286 564,286 564,292 564,292 570,292 570,298 570,298 570,396 570,396 570,402 564,402 564,402 564,408 558,408 558,408 558,414 552,414 552,414 552,420 546,420 546,420 94,420 94,420 88,420 88,414 88,414 82,414 82,408 82,408 76,408 76,402 76,402 70,402 70,396 70,396 70,298 70,298 70,292 76,292 76,292 76,286 82,286 82,286 82,280 88,280 88,280 88,274 94,274" fill="#100d20"/><polygon points="94,250 546,250 546,250 552,250 552,256 552,256 558,256 558,262 558,262 564,262 564,268 564,268 570,268 570,274 570,274 570,372 570,372 570,378 564,378 564,378 564,384 558,384 558,384 558,390 552,390 552,390 552,396 546,396 546,396 94,396 94,396 88,396 88,390 88,390 82,390 82,384 82,384 76,384 76,378 76,378 70,378 70,372 70,372 70,274 70,274 70,268 76,268 76,268 76,262 82,262 82,262 82,256 88,256 88,256 88,250 94,250" fill="#0b4a59"/><polygon points="94,256 546,256 546,256 552,256 552,262 552,262 558,262 558,268 558,268 564,268 564,274 564,274 564,372 564,372 564,378 558,378 558,378 558,384 552,384 552,384 552,390 546,390 546,390 94,390 94,390 88,390 88,384 88,384 82,384 82,378 82,378 76,378 76,372 76,372 76,274 76,274 76,268 82,268 82,268 82,262 88,262 88,262 88,256 94,256" fill="#22a2bd"/><rect x="94" y="256" width="452" height="6" fill="#68dcef"/><rect x="76" y="274" width="6" height="98" fill="#68dcef"/><rect x="94" y="384" width="452" height="6" fill="#137689"/><rect x="558" y="274" width="6" height="98" fill="#137689"/><text x="324" y="342" font-family="'Press Start 2P'" font-size="30" text-anchor="middle" letter-spacing="2" fill="#100d20">20 / SEC</text><text x="320" y="338" font-family="'Press Start 2P'" font-size="30" text-anchor="middle" letter-spacing="2" fill="#ffffff">20 / SEC</text><text x="320" y="492" font-family="'Press Start 2P'" font-size="25" text-anchor="middle" letter-spacing="0" fill="#b8b4dc">a table of judges</text><rect x="584" y="320" width="94" height="6" fill="#e8752c"/><rect x="690" y="320" width="6" height="6" fill="#e8752c"/><rect x="684" y="314" width="6" height="18" fill="#e8752c"/><rect x="678" y="308" width="6" height="30" fill="#e8752c"/><polygon points="734,274 1186,274 1186,274 1192,274 1192,280 1192,280 1198,280 1198,286 1198,286 1204,286 1204,292 1204,292 1210,292 1210,298 1210,298 1210,396 1210,396 1210,402 1204,402 1204,402 1204,408 1198,408 1198,408 1198,414 1192,414 1192,414 1192,420 1186,420 1186,420 734,420 734,420 728,420 728,414 728,414 722,414 722,408 722,408 716,408 716,402 716,402 710,402 710,396 710,396 710,298 710,298 710,292 716,292 716,292 716,286 722,286 722,286 722,280 728,280 728,280 728,274 734,274" fill="#100d20"/><polygon points="734,250 1186,250 1186,250 1192,250 1192,256 1192,256 1198,256 1198,262 1198,262 1204,262 1204,268 1204,268 1210,268 1210,274 1210,274 1210,372 1210,372 1210,378 1204,378 1204,378 1204,384 1198,384 1198,384 1198,390 1192,390 1192,390 1192,396 1186,396 1186,396 734,396 734,396 728,396 728,390 728,390 722,390 722,384 722,384 716,384 716,378 716,378 710,378 710,372 710,372 710,274 710,274 710,268 716,268 716,268 716,262 722,262 722,262 722,256 728,256 728,256 728,250 734,250" fill="#272552"/><polygon points="734,256 1186,256 1186,256 1192,256 1192,262 1192,262 1198,262 1198,268 1198,268 1204,268 1204,274 1204,274 1204,372 1204,372 1204,378 1198,378 1198,378 1198,384 1192,384 1192,384 1192,390 1186,390 1186,390 734,390 734,390 728,390 728,384 728,384 722,384 722,378 722,378 716,378 716,372 716,372 716,274 716,274 716,268 722,268 722,268 722,262 728,262 728,262 728,256 734,256" fill="#5b58a8"/><rect x="734" y="256" width="452" height="6" fill="#8e8ad8"/><rect x="716" y="274" width="6" height="98" fill="#8e8ad8"/><rect x="734" y="384" width="452" height="6" fill="#3c3a7a"/><rect x="1198" y="274" width="6" height="98" fill="#3c3a7a"/><text x="964" y="342" font-family="'Press Start 2P'" font-size="30" text-anchor="middle" letter-spacing="2" fill="#100d20">100 / SEC</text><text x="960" y="338" font-family="'Press Start 2P'" font-size="30" text-anchor="middle" letter-spacing="2" fill="#ffffff">100 / SEC</text><text x="960" y="492" font-family="'Press Start 2P'" font-size="25" text-anchor="middle" letter-spacing="0" fill="#b8b4dc">round the room</text><rect x="1224" y="320" width="94" height="6" fill="#e8752c"/><rect x="1330" y="320" width="6" height="6" fill="#e8752c"/><rect x="1324" y="314" width="6" height="18" fill="#e8752c"/><rect x="1318" y="308" width="6" height="30" fill="#e8752c"/><polygon points="1374,274 1826,274 1826,274 1832,274 1832,280 1832,280 1838,280 1838,286 1838,286 1844,286 1844,292 1844,292 1850,292 1850,298 1850,298 1850,396 1850,396 1850,402 1844,402 1844,402 1844,408 1838,408 1838,408 1838,414 1832,414 1832,414 1832,420 1826,420 1826,420 1374,420 1374,420 1368,420 1368,414 1368,414 1362,414 1362,408 1362,408 1356,408 1356,402 1356,402 1350,402 1350,396 1350,396 1350,298 1350,298 1350,292 1356,292 1356,292 1356,286 1362,286 1362,286 1362,280 1368,280 1368,280 1368,274 1374,274" fill="#100d20"/><polygon points="1374,250 1826,250 1826,250 1832,250 1832,256 1832,256 1838,256 1838,262 1838,262 1844,262 1844,268 1844,268 1850,268 1850,274 1850,274 1850,372 1850,372 1850,378 1844,378 1844,378 1844,384 1838,384 1838,384 1838,390 1832,390 1832,390 1832,396 1826,396 1826,396 1374,396 1374,396 1368,396 1368,390 1368,390 1362,390 1362,384 1362,384 1356,384 1356,378 1356,378 1350,378 1350,372 1350,372 1350,274 1350,274 1350,268 1356,268 1356,268 1356,262 1362,262 1362,262 1362,256 1368,256 1368,256 1368,250 1374,250" fill="#7a3310"/><polygon points="1374,256 1826,256 1826,256 1832,256 1832,262 1832,262 1838,262 1838,268 1838,268 1844,268 1844,274 1844,274 1844,372 1844,372 1844,378 1838,378 1838,378 1838,384 1832,384 1832,384 1832,390 1826,390 1826,390 1374,390 1374,390 1368,390 1368,384 1368,384 1362,384 1362,378 1362,378 1356,378 1356,372 1356,372 1356,274 1356,274 1356,268 1362,268 1362,268 1362,262 1368,262 1368,262 1368,256 1374,256" fill="#e8752c"/><rect x="1374" y="256" width="452" height="6" fill="#ffab5e"/><rect x="1356" y="274" width="6" height="98" fill="#ffab5e"/><rect x="1374" y="384" width="452" height="6" fill="#b5501a"/><rect x="1838" y="274" width="6" height="98" fill="#b5501a"/><text x="1604" y="342" font-family="'Press Start 2P'" font-size="30" text-anchor="middle" letter-spacing="2" fill="#100d20">250 / SEC</text><text x="1600" y="338" font-family="'Press Start 2P'" font-size="30" text-anchor="middle" letter-spacing="2" fill="#ffffff">250 / SEC</text><text x="1600" y="492" font-family="'Press Start 2P'" font-size="25" text-anchor="middle" letter-spacing="0" fill="#b8b4dc">round the hackathon</text><polygon points="324,660 1596,660 1596,660 1602,660 1602,666 1602,666 1608,666 1608,672 1608,672 1614,672 1614,678 1614,678 1620,678 1620,684 1620,684 1620,816 1620,816 1620,822 1614,822 1614,822 1614,828 1608,828 1608,828 1608,834 1602,834 1602,834 1602,840 1596,840 1596,840 324,840 324,840 318,840 318,834 318,834 312,834 312,828 312,828 306,828 306,822 306,822 300,822 300,816 300,816 300,684 300,684 300,678 306,678 306,678 306,672 312,672 312,672 312,666 318,666 318,666 318,660 324,660" fill="#100d20"/><polygon points="324,666 1596,666 1596,666 1602,666 1602,672 1602,672 1608,672 1608,678 1608,678 1614,678 1614,684 1614,684 1614,816 1614,816 1614,822 1608,822 1608,822 1608,828 1602,828 1602,828 1602,834 1596,834 1596,834 324,834 324,834 318,834 318,828 318,828 312,828 312,822 312,822 306,822 306,816 306,816 306,684 306,684 306,678 312,678 312,678 312,672 318,672 318,672 318,666 324,666" fill="#1e1b38"/><rect x="324" y="828" width="1272" height="6" fill="#3a3560"/><rect x="324" y="666" width="1272" height="6" fill="#12102a"/><text x="960" y="740" font-family="'Press Start 2P'" font-size="34" text-anchor="middle" letter-spacing="2" fill="#e8752c">x-vercel-mitigated: deny</text><text x="960" y="800" font-family="'Press Start 2P'" font-size="26" text-anchor="middle" letter-spacing="2" fill="#b8b4dc">WE AIMED IT AT PRODUCTION ONCE.</text>
<text x="960" y="1022" font-family="'Press Start 2P'" font-size="24" text-anchor="middle" letter-spacing="1" fill="#6fc48d">it runs against a local preview now. that measures the app, not the CDN.</text>
</svg>