<svg xmlns="http://www.w3.org/2000/svg" width="1920" height="1080" viewBox="0 0 1920 1080" shape-rendering="crispEdges">
<rect width="1920" height="1080" fill="#191536"/><rect x="69" y="834" width="3" height="3" fill="#6f6c9a"/><rect x="1872" y="732" width="3" height="3" fill="#a8a6c8"/><rect x="87" y="765" width="3" height="3" fill="#6f6c9a"/><rect x="1086" y="945" width="3" height="3" fill="#a8a6c8"/><rect x="1083" y="948" width="9" height="3" fill="#a8a6c8"/><rect x="1086" y="951" width="3" height="3" fill="#a8a6c8"/><rect x="942" y="387" width="3" height="3" fill="#6f6c9a"/><rect x="1794" y="237" width="3" height="3" fill="#6f6c9a"/><rect x="807" y="1053" width="3" height="3" fill="#6f6c9a"/><rect x="66" y="291" width="3" height="3" fill="#6f6c9a"/><rect x="1590" y="1050" width="3" height="3" fill="#6f6c9a"/><rect x="624" y="210" width="3" height="3" fill="#6f6c9a"/><rect x="1830" y="243" width="3" height="3" fill="#a8a6c8"/><rect x="1704" y="147" width="3" height="3" fill="#6f6c9a"/><rect x="1293" y="969" width="3" height="3" fill="#6f6c9a"/><rect x="1290" y="972" width="9" height="3" fill="#6f6c9a"/><rect x="1293" y="975" width="3" height="3" fill="#6f6c9a"/><rect x="543" y="900" width="3" height="3" fill="#a8a6c8"/><rect x="120" y="360" width="3" height="3" fill="#6f6c9a"/><rect x="33" y="1044" width="3" height="3" fill="#a8a6c8"/><rect x="30" y="1047" width="9" height="3" fill="#a8a6c8"/><rect x="33" y="1050" width="3" height="3" fill="#a8a6c8"/><rect x="1734" y="162" width="3" height="3" fill="#6f6c9a"/><rect x="1731" y="165" width="9" height="3" fill="#6f6c9a"/><rect x="1734" y="168" width="3" height="3" fill="#6f6c9a"/><rect x="1383" y="3" width="3" height="3" fill="#6f6c9a"/><rect x="1872" y="591" width="3" height="3" fill="#6f6c9a"/><rect x="456" y="204" width="3" height="3" fill="#6f6c9a"/><rect x="405" y="741" width="3" height="3" fill="#6f6c9a"/><rect x="3" y="480" width="3" height="3" fill="#ffffff"/><rect x="1770" y="216" width="3" height="3" fill="#6f6c9a"/><rect x="1767" y="219" width="9" height="3" fill="#6f6c9a"/><rect x="1770" y="222" width="3" height="3" fill="#6f6c9a"/><rect x="297" y="984" width="3" height="3" fill="#a8a6c8"/><rect x="735" y="939" width="3" height="3" fill="#6f6c9a"/><rect x="732" y="942" width="9" height="3" fill="#6f6c9a"/><rect x="735" y="945" width="3" height="3" fill="#6f6c9a"/><rect x="90" y="306" width="3" height="3" fill="#6f6c9a"/><rect x="81" y="702" width="3" height="3" fill="#6f6c9a"/><rect x="1581" y="1041" width="3" height="3" fill="#6f6c9a"/><rect x="1353" y="174" width="3" height="3" fill="#a8a6c8"/><rect x="1350" y="177" width="9" height="3" fill="#a8a6c8"/><rect x="1353" y="180" width="3" height="3" fill="#a8a6c8"/><rect x="1572" y="174" width="3" height="3" fill="#6f6c9a"/><rect x="153" y="1038" width="3" height="3" fill="#6f6c9a"/><rect x="396" y="906" width="3" height="3" fill="#6f6c9a"/><rect x="582" y="399" width="3" height="3" fill="#6f6c9a"/><rect x="1596" y="198" width="3" height="3" fill="#a8a6c8"/><rect x="1767" y="78" width="3" height="3" fill="#6f6c9a"/><rect x="1032" y="948" width="3" height="3" fill="#6f6c9a"/><rect x="1851" y="543" width="3" height="3" fill="#ffffff"/><rect x="15" y="1041" width="3" height="3" fill="#6f6c9a"/><rect x="240" y="918" width="3" height="3" fill="#6f6c9a"/><rect x="144" y="162" width="3" height="3" fill="#a8a6c8"/><rect x="705" y="39" width="3" height="3" fill="#6f6c9a"/><rect x="63" y="939" width="3" height="3" fill="#a8a6c8"/><rect x="612" y="933" width="3" height="3" fill="#a8a6c8"/><rect x="609" y="936" width="9" height="3" fill="#a8a6c8"/><rect x="612" y="939" width="3" height="3" fill="#a8a6c8"/><rect x="1818" y="525" width="3" height="3" fill="#6f6c9a"/><rect x="825" y="186" width="3" height="3" fill="#6f6c9a"/><rect x="72" y="378" width="3" height="3" fill="#a8a6c8"/><rect x="1203" y="912" width="3" height="3" fill="#6f6c9a"/><rect x="57" y="1071" width="3" height="3" fill="#a8a6c8"/><rect x="54" y="1074" width="9" height="3" fill="#a8a6c8"/><rect x="57" y="1077" width="3" height="3" fill="#a8a6c8"/><rect x="1914" y="1047" width="3" height="3" fill="#a8a6c8"/><rect x="33" y="120" width="3" height="3" fill="#a8a6c8"/><rect x="330" y="201" width="3" height="3" fill="#a8a6c8"/><rect x="102" y="498" width="3" height="3" fill="#ffffff"/><rect x="99" y="501" width="9" height="3" fill="#ffffff"/><rect x="102" y="504" width="3" height="3" fill="#ffffff"/><rect x="1281" y="183" width="3" height="3" fill="#6f6c9a"/><rect x="1278" y="186" width="9" height="3" fill="#6f6c9a"/><rect x="1281" y="189" width="3" height="3" fill="#6f6c9a"/><rect x="384" y="1062" width="3" height="3" fill="#6f6c9a"/><rect x="9" y="114" width="3" height="3" fill="#6f6c9a"/><rect x="1806" y="348" width="3" height="3" fill="#6f6c9a"/><rect x="1896" y="660" width="3" height="3" fill="#6f6c9a"/><rect x="1848" y="804" width="3" height="3" fill="#6f6c9a"/><rect x="1803" y="90" width="3" height="3" fill="#6f6c9a"/><rect x="69" y="741" width="3" height="3" fill="#6f6c9a"/><rect x="66" y="744" width="9" height="3" fill="#6f6c9a"/><rect x="69" y="747" width="3" height="3" fill="#6f6c9a"/><rect x="1611" y="558" width="3" height="3" fill="#6f6c9a"/><rect x="123" y="405" width="3" height="3" fill="#6f6c9a"/><rect x="1464" y="33" width="3" height="3" fill="#6f6c9a"/><rect x="423" y="720" width="3" height="3" fill="#a8a6c8"/><rect x="519" y="48" width="3" height="3" fill="#a8a6c8"/><rect x="141" y="51" width="3" height="3" fill="#6f6c9a"/><rect x="1839" y="339" width="3" height="3" fill="#6f6c9a"/><rect x="1806" y="555" width="3" height="3" fill="#6f6c9a"/><rect x="1803" y="558" width="9" height="3" fill="#6f6c9a"/><rect x="1806" y="561" width="3" height="3" fill="#6f6c9a"/><rect x="924" y="894" width="3" height="3" fill="#6f6c9a"/><rect x="921" y="897" width="9" height="3" fill="#6f6c9a"/><rect x="924" y="900" width="3" height="3" fill="#6f6c9a"/><rect x="1908" y="744" width="3" height="3" fill="#6f6c9a"/><rect x="1905" y="747" width="9" height="3" fill="#6f6c9a"/><rect x="1908" y="750" width="3" height="3" fill="#6f6c9a"/><rect x="1803" y="711" width="3" height="3" fill="#a8a6c8"/><rect x="1056" y="978" width="3" height="3" fill="#6f6c9a"/><rect x="1053" y="981" width="9" height="3" fill="#6f6c9a"/><rect x="1056" y="984" width="3" height="3" fill="#6f6c9a"/><rect x="942" y="1050" width="3" height="3" fill="#6f6c9a"/><rect x="939" y="1053" width="9" height="3" fill="#6f6c9a"/><rect x="942" y="1056" width="3" height="3" fill="#6f6c9a"/><rect x="1011" y="915" width="3" height="3" fill="#a8a6c8"/><rect x="1866" y="471" width="3" height="3" fill="#6f6c9a"/><rect x="1863" y="474" width="9" height="3" fill="#6f6c9a"/><rect x="1866" y="477" width="3" height="3" fill="#6f6c9a"/><rect x="1203" y="174" width="3" height="3" fill="#a8a6c8"/><rect x="945" y="168" width="3" height="3" fill="#6f6c9a"/><rect x="1812" y="261" width="3" height="3" fill="#a8a6c8"/><rect x="474" y="732" width="3" height="3" fill="#a8a6c8"/><rect x="210" y="63" width="3" height="3" fill="#6f6c9a"/><rect x="1797" y="522" width="3" height="3" fill="#a8a6c8"/><rect x="1641" y="900" width="3" height="3" fill="#a8a6c8"/><rect x="216" y="927" width="3" height="3" fill="#a8a6c8"/><rect x="636" y="165" width="3" height="3" fill="#6f6c9a"/><rect x="633" y="168" width="9" height="3" fill="#6f6c9a"/><rect x="636" y="171" width="3" height="3" fill="#6f6c9a"/><rect x="636" y="15" width="3" height="3" fill="#6f6c9a"/><rect x="123" y="135" width="3" height="3" fill="#a8a6c8"/><rect x="1755" y="216" width="3" height="3" fill="#a8a6c8"/><rect x="1752" y="219" width="9" height="3" fill="#a8a6c8"/><rect x="1755" y="222" width="3" height="3" fill="#a8a6c8"/><rect x="1878" y="822" width="3" height="3" fill="#a8a6c8"/><rect x="1587" y="903" width="3" height="3" fill="#a8a6c8"/><rect x="1584" y="906" width="9" height="3" fill="#a8a6c8"/><rect x="1587" y="909" width="3" height="3" fill="#a8a6c8"/><rect x="63" y="144" width="3" height="3" fill="#a8a6c8"/><rect x="1818" y="498" width="3" height="3" fill="#a8a6c8"/><rect x="960" y="177" width="3" height="3" fill="#a8a6c8"/><rect x="1917" y="765" width="3" height="3" fill="#6f6c9a"/><rect x="1197" y="984" width="3" height="3" fill="#6f6c9a"/><rect x="1902" y="810" width="3" height="3" fill="#6f6c9a"/><rect x="1899" y="813" width="9" height="3" fill="#6f6c9a"/><rect x="1902" y="816" width="3" height="3" fill="#6f6c9a"/><rect x="1374" y="33" width="3" height="3" fill="#6f6c9a"/><rect x="546" y="909" width="3" height="3" fill="#6f6c9a"/><rect x="543" y="912" width="9" height="3" fill="#6f6c9a"/><rect x="546" y="915" width="3" height="3" fill="#6f6c9a"/><rect x="66" y="753" width="3" height="3" fill="#ffffff"/><rect x="954" y="1050" width="3" height="3" fill="#6f6c9a"/><rect x="1575" y="192" width="3" height="3" fill="#a8a6c8"/><rect x="1572" y="195" width="9" height="3" fill="#a8a6c8"/><rect x="1575" y="198" width="3" height="3" fill="#a8a6c8"/><rect x="57" y="765" width="3" height="3" fill="#6f6c9a"/><rect x="708" y="1059" width="3" height="3" fill="#6f6c9a"/><rect x="1824" y="1077" width="3" height="3" fill="#ffffff"/><rect x="1137" y="957" width="3" height="3" fill="#6f6c9a"/><rect x="1650" y="948" width="3" height="3" fill="#6f6c9a"/><rect x="687" y="732" width="3" height="3" fill="#6f6c9a"/><rect x="1812" y="738" width="3" height="3" fill="#6f6c9a"/><rect x="675" y="396" width="3" height="3" fill="#ffffff"/><rect x="165" y="165" width="3" height="3" fill="#6f6c9a"/><rect x="1857" y="111" width="3" height="3" fill="#6f6c9a"/><rect x="810" y="978" width="3" height="3" fill="#6f6c9a"/><rect x="159" y="1059" width="3" height="3" fill="#6f6c9a"/><rect x="15" y="963" width="3" height="3" fill="#6f6c9a"/><rect x="1917" y="858" width="3" height="3" fill="#6f6c9a"/><rect x="348" y="975" width="3" height="3" fill="#6f6c9a"/><rect x="114" y="477" width="3" height="3" fill="#6f6c9a"/><rect x="111" y="480" width="9" height="3" fill="#6f6c9a"/><rect x="114" y="483" width="3" height="3" fill="#6f6c9a"/><rect x="1464" y="1062" width="3" height="3" fill="#a8a6c8"/><rect x="1461" y="1065" width="9" height="3" fill="#a8a6c8"/><rect x="1464" y="1068" width="3" height="3" fill="#a8a6c8"/><rect x="105" y="423" width="3" height="3" fill="#6f6c9a"/><rect x="1515" y="51" width="3" height="3" fill="#a8a6c8"/><rect x="1512" y="54" width="9" height="3" fill="#a8a6c8"/><rect x="1515" y="57" width="3" height="3" fill="#a8a6c8"/><rect x="1827" y="435" width="3" height="3" fill="#6f6c9a"/><rect x="3" y="372" width="3" height="3" fill="#6f6c9a"/><rect x="1212" y="729" width="3" height="3" fill="#6f6c9a"/><rect x="1431" y="906" width="3" height="3" fill="#a8a6c8"/><rect x="615" y="984" width="3" height="3" fill="#a8a6c8"/><rect x="843" y="162" width="3" height="3" fill="#a8a6c8"/><rect x="1338" y="984" width="3" height="3" fill="#6f6c9a"/><rect x="423" y="930" width="3" height="3" fill="#6f6c9a"/><rect x="132" y="285" width="3" height="3" fill="#a8a6c8"/><rect x="129" y="288" width="9" height="3" fill="#a8a6c8"/><rect x="132" y="291" width="3" height="3" fill="#a8a6c8"/><rect x="651" y="3" width="3" height="3" fill="#6f6c9a"/><rect x="1005" y="39" width="3" height="3" fill="#a8a6c8"/><rect x="1830" y="519" width="3" height="3" fill="#6f6c9a"/><rect x="1866" y="261" width="3" height="3" fill="#6f6c9a"/><rect x="1863" y="264" width="9" height="3" fill="#6f6c9a"/><rect x="1866" y="267" width="3" height="3" fill="#6f6c9a"/><rect x="117" y="183" width="3" height="3" fill="#6f6c9a"/><rect x="1590" y="957" width="3" height="3" fill="#a8a6c8"/><rect x="1587" y="960" width="9" height="3" fill="#a8a6c8"/><rect x="1590" y="963" width="3" height="3" fill="#a8a6c8"/><rect x="1800" y="663" width="3" height="3" fill="#6f6c9a"/><rect x="57" y="921" width="3" height="3" fill="#6f6c9a"/><rect x="561" y="1065" width="3" height="3" fill="#6f6c9a"/><rect x="1347" y="963" width="3" height="3" fill="#6f6c9a"/><rect x="1719" y="105" width="3" height="3" fill="#6f6c9a"/><rect x="1053" y="42" width="3" height="3" fill="#ffffff"/><rect x="1851" y="405" width="3" height="3" fill="#6f6c9a"/><rect x="474" y="51" width="3" height="3" fill="#a8a6c8"/>
<text x="967" y="125" font-family="'Press Start 2P'" font-size="56" text-anchor="middle" letter-spacing="5" fill="#100d20">RULES THE BUILD ENFORCES</text><text x="960" y="118" font-family="'Press Start 2P'" font-size="56" text-anchor="middle" letter-spacing="5" fill="#ffffff">RULES THE BUILD ENFORCES</text>
<polygon points="164,240 1756,240 1756,240 1762,240 1762,246 1762,246 1768,246 1768,252 1768,252 1774,252 1774,258 1774,258 1780,258 1780,264 1780,264 1780,346 1780,346 1780,352 1774,352 1774,352 1774,358 1768,358 1768,358 1768,364 1762,364 1762,364 1762,370 1756,370 1756,370 164,370 164,370 158,370 158,364 158,364 152,364 152,358 152,358 146,358 146,352 146,352 140,352 140,346 140,346 140,264 140,264 140,258 146,258 146,258 146,252 152,252 152,252 152,246 158,246 158,246 158,240 164,240" fill="#100d20"/><polygon points="164,246 1756,246 1756,246 1762,246 1762,252 1762,252 1768,252 1768,258 1768,258 1774,258 1774,264 1774,264 1774,346 1774,346 1774,352 1768,352 1768,352 1768,358 1762,358 1762,358 1762,364 1756,364 1756,364 164,364 164,364 158,364 158,358 158,358 152,358 152,352 152,352 146,352 146,346 146,346 146,264 146,264 146,258 152,258 152,258 152,252 158,252 158,252 158,246 164,246" fill="#1e1b38"/><rect x="164" y="358" width="1592" height="6" fill="#3a3560"/><rect x="164" y="246" width="1592" height="6" fill="#12102a"/><text x="960" y="322" font-family="'Press Start 2P'" font-size="30" text-anchor="middle" letter-spacing="2" fill="#ffffff">A FOOTPRINT NUMBER NEEDS A PAGE A HUMAN READ</text><polygon points="164,410 1756,410 1756,410 1762,410 1762,416 1762,416 1768,416 1768,422 1768,422 1774,422 1774,428 1774,428 1780,428 1780,434 1780,434 1780,516 1780,516 1780,522 1774,522 1774,522 1774,528 1768,528 1768,528 1768,534 1762,534 1762,534 1762,540 1756,540 1756,540 164,540 164,540 158,540 158,534 158,534 152,534 152,528 152,528 146,528 146,522 146,522 140,522 140,516 140,516 140,434 140,434 140,428 146,428 146,428 146,422 152,422 152,422 152,416 158,416 158,416 158,410 164,410" fill="#100d20"/><polygon points="164,416 1756,416 1756,416 1762,416 1762,422 1762,422 1768,422 1768,428 1768,428 1774,428 1774,434 1774,434 1774,516 1774,516 1774,522 1768,522 1768,522 1768,528 1762,528 1762,528 1762,534 1756,534 1756,534 164,534 164,534 158,534 158,528 158,528 152,528 152,522 152,522 146,522 146,516 146,516 146,434 146,434 146,428 152,428 152,428 152,422 158,422 158,422 158,416 164,416" fill="#1e1b38"/><rect x="164" y="528" width="1592" height="6" fill="#3a3560"/><rect x="164" y="416" width="1592" height="6" fill="#12102a"/><text x="960" y="492" font-family="'Press Start 2P'" font-size="30" text-anchor="middle" letter-spacing="2" fill="#ffffff">EVERY CITATION IS FETCHED AND TITLE-MATCHED</text><polygon points="164,580 1756,580 1756,580 1762,580 1762,586 1762,586 1768,586 1768,592 1768,592 1774,592 1774,598 1774,598 1780,598 1780,604 1780,604 1780,686 1780,686 1780,692 1774,692 1774,692 1774,698 1768,698 1768,698 1768,704 1762,704 1762,704 1762,710 1756,710 1756,710 164,710 164,710 158,710 158,704 158,704 152,704 152,698 152,698 146,698 146,692 146,692 140,692 140,686 140,686 140,604 140,604 140,598 146,598 146,598 146,592 152,592 152,592 152,586 158,586 158,586 158,580 164,580" fill="#100d20"/><polygon points="164,586 1756,586 1756,586 1762,586 1762,592 1762,592 1768,592 1768,598 1768,598 1774,598 1774,604 1774,604 1774,686 1774,686 1774,692 1768,692 1768,692 1768,698 1762,698 1762,698 1762,704 1756,704 1756,704 164,704 164,704 158,704 158,698 158,698 152,698 152,692 152,692 146,692 146,686 146,686 146,604 146,604 146,598 152,598 152,598 152,592 158,592 158,592 158,586 164,586" fill="#1e1b38"/><rect x="164" y="698" width="1592" height="6" fill="#3a3560"/><rect x="164" y="586" width="1592" height="6" fill="#12102a"/><text x="960" y="662" font-family="'Press Start 2P'" font-size="30" text-anchor="middle" letter-spacing="2" fill="#ffffff">NO MODEL OUTPUT IS EVER A NUMBER</text><polygon points="164,750 1756,750 1756,750 1762,750 1762,756 1762,756 1768,756 1768,762 1768,762 1774,762 1774,768 1774,768 1780,768 1780,774 1780,774 1780,856 1780,856 1780,862 1774,862 1774,862 1774,868 1768,868 1768,868 1768,874 1762,874 1762,874 1762,880 1756,880 1756,880 164,880 164,880 158,880 158,874 158,874 152,874 152,868 152,868 146,868 146,862 146,862 140,862 140,856 140,856 140,774 140,774 140,768 146,768 146,768 146,762 152,762 152,762 152,756 158,756 158,756 158,750 164,750" fill="#100d20"/><polygon points="164,756 1756,756 1756,756 1762,756 1762,762 1762,762 1768,762 1768,768 1768,768 1774,768 1774,774 1774,774 1774,856 1774,856 1774,862 1768,862 1768,862 1768,868 1762,868 1762,868 1762,874 1756,874 1756,874 164,874 164,874 158,874 158,868 158,868 152,868 152,862 152,862 146,862 146,856 146,856 146,774 146,774 146,768 152,768 152,768 152,762 158,762 158,762 158,756 164,756" fill="#1e1b38"/><rect x="164" y="868" width="1592" height="6" fill="#3a3560"/><rect x="164" y="756" width="1592" height="6" fill="#12102a"/><text x="960" y="832" font-family="'Press Start 2P'" font-size="30" text-anchor="middle" letter-spacing="2" fill="#ffffff">THE MODEL PROPOSES. A HUMAN SHIPS.</text>
<text x="960" y="1022" font-family="'Press Start 2P'" font-size="24" text-anchor="middle" letter-spacing="1" fill="#6fc48d">npm test fails on all four. the rule is in the repo, not in a prompt.</text>
</svg>