<svg xmlns="http://www.w3.org/2000/svg" width="1640" height="463" viewBox="0 0 1640 463" shape-rendering="crispEdges">
<rect width="1640" height="463" fill="#191536"/>
<text x="820" y="60" font-family="'Press Start 2P'" font-size="22" fill="#ffffff" text-anchor="middle" letter-spacing="3">ONE CHAIN, END TO END</text>
<text x="820" y="98" font-family="'Press Start 2P'" font-size="10" fill="#e8752c" text-anchor="middle" letter-spacing="1">twenty-four steps from the opening board.  this is one of its three branches.</text>
<rect x="138" y="190" width="35" height="5" fill="#20150e"/><rect x="133" y="195" width="5" height="5" fill="#20150e"/><rect x="138" y="195" width="5" height="5" fill="#6b4a2c"/><rect x="143" y="195" width="5" height="5" fill="#42301c"/><rect x="148" y="195" width="10" height="5" fill="#6b4a2c"/><rect x="158" y="195" width="5" height="5" fill="#42301c"/><rect x="163" y="195" width="10" height="5" fill="#6b4a2c"/><rect x="173" y="195" width="5" height="5" fill="#20150e"/><rect x="128" y="200" width="5" height="5" fill="#20150e"/><rect x="133" y="200" width="15" height="5" fill="#6b4a2c"/><rect x="148" y="200" width="5" height="5" fill="#42301c"/><rect x="153" y="200" width="15" height="5" fill="#6b4a2c"/><rect x="168" y="200" width="5" height="5" fill="#42301c"/><rect x="173" y="200" width="5" height="5" fill="#6b4a2c"/><rect x="178" y="200" width="5" height="5" fill="#20150e"/><rect x="128" y="205" width="5" height="5" fill="#20150e"/><rect x="133" y="205" width="5" height="5" fill="#42301c"/><rect x="138" y="205" width="15" height="5" fill="#6b4a2c"/><rect x="153" y="205" width="5" height="5" fill="#42301c"/><rect x="158" y="205" width="15" height="5" fill="#6b4a2c"/><rect x="173" y="205" width="5" height="5" fill="#42301c"/><rect x="178" y="205" width="5" height="5" fill="#20150e"/><rect x="128" y="210" width="5" height="5" fill="#20150e"/><rect x="133" y="210" width="10" height="5" fill="#6b4a2c"/><rect x="143" y="210" width="5" height="5" fill="#42301c"/><rect x="148" y="210" width="15" height="5" fill="#6b4a2c"/><rect x="163" y="210" width="5" height="5" fill="#42301c"/><rect x="168" y="210" width="10" height="5" fill="#6b4a2c"/><rect x="178" y="210" width="5" height="5" fill="#20150e"/><rect x="133" y="215" width="5" height="5" fill="#20150e"/><rect x="138" y="215" width="15" height="5" fill="#6b4a2c"/><rect x="153" y="215" width="5" height="5" fill="#42301c"/><rect x="158" y="215" width="15" height="5" fill="#6b4a2c"/><rect x="173" y="215" width="5" height="5" fill="#20150e"/><rect x="138" y="220" width="35" height="5" fill="#20150e"/>
<text x="155" y="261" font-family="'Press Start 2P'" font-size="9" fill="#ffffff" text-anchor="middle" letter-spacing="0">Soil</text>
<rect x="215" y="206" width="58" height="4" fill="#e8752c"/>
<rect x="281" y="206" width="4" height="4" fill="#e8752c"/>
<rect x="277" y="202" width="4" height="12" fill="#e8752c"/>
<rect x="273" y="198" width="4" height="20" fill="#e8752c"/>
<text x="250" y="192" font-family="'Press Start 2P'" font-size="8" fill="#e8752c" text-anchor="middle" letter-spacing="0">fertilising</text>
<rect x="328" y="185" width="35" height="5" fill="#6abe30"/><rect x="323" y="190" width="45" height="5" fill="#8b5a2b"/><rect x="323" y="195" width="5" height="5" fill="#8b5a2b"/><rect x="328" y="195" width="5" height="5" fill="#6b4220"/><rect x="333" y="195" width="5" height="5" fill="#8b5a2b"/><rect x="338" y="195" width="5" height="5" fill="#6b4220"/><rect x="343" y="195" width="5" height="5" fill="#8b5a2b"/><rect x="348" y="195" width="5" height="5" fill="#6b4220"/><rect x="353" y="195" width="5" height="5" fill="#8b5a2b"/><rect x="358" y="195" width="5" height="5" fill="#6b4220"/><rect x="363" y="195" width="5" height="5" fill="#8b5a2b"/><rect x="323" y="200" width="45" height="5" fill="#8b5a2b"/><rect x="323" y="205" width="5" height="5" fill="#8b5a2b"/><rect x="328" y="205" width="5" height="5" fill="#6b4220"/><rect x="333" y="205" width="5" height="5" fill="#8b5a2b"/><rect x="338" y="205" width="5" height="5" fill="#6b4220"/><rect x="343" y="205" width="5" height="5" fill="#8b5a2b"/><rect x="348" y="205" width="5" height="5" fill="#6b4220"/><rect x="353" y="205" width="5" height="5" fill="#8b5a2b"/><rect x="358" y="205" width="5" height="5" fill="#6b4220"/><rect x="363" y="205" width="5" height="5" fill="#8b5a2b"/><rect x="323" y="210" width="45" height="5" fill="#8b5a2b"/><rect x="323" y="215" width="5" height="5" fill="#8b5a2b"/><rect x="328" y="215" width="5" height="5" fill="#6b4220"/><rect x="333" y="215" width="5" height="5" fill="#8b5a2b"/><rect x="338" y="215" width="5" height="5" fill="#6b4220"/><rect x="343" y="215" width="5" height="5" fill="#8b5a2b"/><rect x="348" y="215" width="5" height="5" fill="#6b4220"/><rect x="353" y="215" width="5" height="5" fill="#8b5a2b"/><rect x="358" y="215" width="5" height="5" fill="#6b4220"/><rect x="363" y="215" width="5" height="5" fill="#8b5a2b"/><rect x="323" y="220" width="45" height="5" fill="#6b4220"/>
<text x="345" y="261" font-family="'Press Start 2P'" font-size="9" fill="#ffffff" text-anchor="middle" letter-spacing="0">Farmland</text>
<rect x="405" y="206" width="58" height="4" fill="#e8752c"/>
<rect x="471" y="206" width="4" height="4" fill="#e8752c"/>
<rect x="467" y="202" width="4" height="12" fill="#e8752c"/>
<rect x="463" y="198" width="4" height="20" fill="#e8752c"/>
<text x="440" y="192" font-family="'Press Start 2P'" font-size="8" fill="#e8752c" text-anchor="middle" letter-spacing="0">cultivating</text>
<rect x="528" y="185" width="15" height="5" fill="#9aa0a8"/><rect x="518" y="190" width="5" height="5" fill="#9aa0a8"/><rect x="523" y="190" width="25" height="5" fill="#ffffff"/><rect x="548" y="190" width="5" height="5" fill="#9aa0a8"/><rect x="513" y="195" width="5" height="5" fill="#9aa0a8"/><rect x="518" y="195" width="25" height="5" fill="#ffffff"/><rect x="543" y="195" width="5" height="5" fill="#d8dde3"/><rect x="548" y="195" width="5" height="5" fill="#ffffff"/><rect x="553" y="195" width="5" height="5" fill="#9aa0a8"/><rect x="513" y="200" width="5" height="5" fill="#9aa0a8"/><rect x="518" y="200" width="20" height="5" fill="#ffffff"/><rect x="538" y="200" width="10" height="5" fill="#d8dde3"/><rect x="548" y="200" width="5" height="5" fill="#ffffff"/><rect x="553" y="200" width="5" height="5" fill="#9aa0a8"/><rect x="518" y="205" width="5" height="5" fill="#9aa0a8"/><rect x="523" y="205" width="10" height="5" fill="#ffffff"/><rect x="533" y="205" width="10" height="5" fill="#d8dde3"/><rect x="543" y="205" width="5" height="5" fill="#ffffff"/><rect x="548" y="205" width="5" height="5" fill="#9aa0a8"/><rect x="523" y="210" width="5" height="5" fill="#9aa0a8"/><rect x="528" y="210" width="15" height="5" fill="#6abe30"/><rect x="543" y="210" width="5" height="5" fill="#9aa0a8"/><rect x="528" y="215" width="15" height="5" fill="#6abe30"/><rect x="533" y="220" width="5" height="5" fill="#4a8c22"/><rect x="533" y="225" width="5" height="5" fill="#4a8c22"/>
<text x="535" y="261" font-family="'Press Start 2P'" font-size="9" fill="#ffffff" text-anchor="middle" letter-spacing="0">Raw Cotton</text>
<rect x="595" y="206" width="58" height="4" fill="#e8752c"/>
<rect x="661" y="206" width="4" height="4" fill="#e8752c"/>
<rect x="657" y="202" width="4" height="12" fill="#e8752c"/>
<rect x="653" y="198" width="4" height="20" fill="#e8752c"/>
<text x="630" y="192" font-family="'Press Start 2P'" font-size="8" fill="#e8752c" text-anchor="middle" letter-spacing="0">ginning</text>
<rect x="708" y="190" width="35" height="5" fill="#9aa0a8"/><rect x="708" y="195" width="5" height="5" fill="#9aa0a8"/><rect x="713" y="195" width="25" height="5" fill="#ffffff"/><rect x="738" y="195" width="5" height="5" fill="#9aa0a8"/><rect x="708" y="200" width="5" height="5" fill="#9aa0a8"/><rect x="713" y="200" width="5" height="5" fill="#ffffff"/><rect x="718" y="200" width="5" height="5" fill="#d8dde3"/><rect x="723" y="200" width="5" height="5" fill="#ffffff"/><rect x="728" y="200" width="5" height="5" fill="#d8dde3"/><rect x="733" y="200" width="5" height="5" fill="#ffffff"/><rect x="738" y="200" width="5" height="5" fill="#9aa0a8"/><rect x="708" y="205" width="5" height="5" fill="#9aa0a8"/><rect x="713" y="205" width="25" height="5" fill="#ffffff"/><rect x="738" y="205" width="5" height="5" fill="#9aa0a8"/><rect x="708" y="210" width="5" height="5" fill="#9aa0a8"/><rect x="713" y="210" width="5" height="5" fill="#ffffff"/><rect x="718" y="210" width="5" height="5" fill="#d8dde3"/><rect x="723" y="210" width="5" height="5" fill="#ffffff"/><rect x="728" y="210" width="5" height="5" fill="#d8dde3"/><rect x="733" y="210" width="5" height="5" fill="#ffffff"/><rect x="738" y="210" width="5" height="5" fill="#9aa0a8"/><rect x="708" y="215" width="5" height="5" fill="#9aa0a8"/><rect x="713" y="215" width="25" height="5" fill="#ffffff"/><rect x="738" y="215" width="5" height="5" fill="#9aa0a8"/><rect x="708" y="220" width="5" height="5" fill="#9aa0a8"/><rect x="713" y="220" width="25" height="5" fill="#d8dde3"/><rect x="738" y="220" width="5" height="5" fill="#9aa0a8"/><rect x="708" y="225" width="35" height="5" fill="#9aa0a8"/>
<text x="725" y="261" font-family="'Press Start 2P'" font-size="9" fill="#ffffff" text-anchor="middle" letter-spacing="0">Ginned Cotton</text>
<rect x="785" y="206" width="58" height="4" fill="#e8752c"/>
<rect x="851" y="206" width="4" height="4" fill="#e8752c"/>
<rect x="847" y="202" width="4" height="12" fill="#e8752c"/>
<rect x="843" y="198" width="4" height="20" fill="#e8752c"/>
<text x="820" y="192" font-family="'Press Start 2P'" font-size="8" fill="#e8752c" text-anchor="middle" letter-spacing="0">spinning</text>
<rect x="903" y="190" width="25" height="5" fill="#9aa0a8"/><rect x="898" y="195" width="5" height="5" fill="#9aa0a8"/><rect x="903" y="195" width="5" height="5" fill="#fdf6e3"/><rect x="908" y="195" width="5" height="5" fill="#cfc3a4"/><rect x="913" y="195" width="5" height="5" fill="#fdf6e3"/><rect x="918" y="195" width="5" height="5" fill="#cfc3a4"/><rect x="923" y="195" width="5" height="5" fill="#fdf6e3"/><rect x="928" y="195" width="5" height="5" fill="#9aa0a8"/><rect x="893" y="200" width="5" height="5" fill="#9aa0a8"/><rect x="898" y="200" width="5" height="5" fill="#fdf6e3"/><rect x="903" y="200" width="5" height="5" fill="#cfc3a4"/><rect x="908" y="200" width="5" height="5" fill="#fdf6e3"/><rect x="913" y="200" width="5" height="5" fill="#cfc3a4"/><rect x="918" y="200" width="5" height="5" fill="#fdf6e3"/><rect x="923" y="200" width="5" height="5" fill="#cfc3a4"/><rect x="928" y="200" width="5" height="5" fill="#fdf6e3"/><rect x="933" y="200" width="5" height="5" fill="#9aa0a8"/><rect x="893" y="205" width="5" height="5" fill="#9aa0a8"/><rect x="898" y="205" width="5" height="5" fill="#cfc3a4"/><rect x="903" y="205" width="5" height="5" fill="#fdf6e3"/><rect x="908" y="205" width="5" height="5" fill="#cfc3a4"/><rect x="913" y="205" width="5" height="5" fill="#fdf6e3"/><rect x="918" y="205" width="5" height="5" fill="#cfc3a4"/><rect x="923" y="205" width="5" height="5" fill="#fdf6e3"/><rect x="928" y="205" width="5" height="5" fill="#cfc3a4"/><rect x="933" y="205" width="5" height="5" fill="#9aa0a8"/><rect x="893" y="210" width="5" height="5" fill="#9aa0a8"/><rect x="898" y="210" width="5" height="5" fill="#fdf6e3"/><rect x="903" y="210" width="5" height="5" fill="#cfc3a4"/><rect x="908" y="210" width="5" height="5" fill="#fdf6e3"/><rect x="913" y="210" width="5" height="5" fill="#cfc3a4"/><rect x="918" y="210" width="5" height="5" fill="#fdf6e3"/><rect x="923" y="210" width="5" height="5" fill="#cfc3a4"/><rect x="928" y="210" width="5" height="5" fill="#fdf6e3"/><rect x="933" y="210" width="5" height="5" fill="#9aa0a8"/><rect x="898" y="215" width="5" height="5" fill="#9aa0a8"/><rect x="903" y="215" width="5" height="5" fill="#cfc3a4"/><rect x="908" y="215" width="5" height="5" fill="#fdf6e3"/><rect x="913" y="215" width="5" height="5" fill="#cfc3a4"/><rect x="918" y="215" width="5" height="5" fill="#fdf6e3"/><rect x="923" y="215" width="5" height="5" fill="#cfc3a4"/><rect x="928" y="215" width="5" height="5" fill="#9aa0a8"/><rect x="903" y="220" width="25" height="5" fill="#9aa0a8"/>
<text x="915" y="261" font-family="'Press Start 2P'" font-size="9" fill="#ffffff" text-anchor="middle" letter-spacing="0">Cotton Yarn</text>
<rect x="975" y="206" width="58" height="4" fill="#e8752c"/>
<rect x="1041" y="206" width="4" height="4" fill="#e8752c"/>
<rect x="1037" y="202" width="4" height="12" fill="#e8752c"/>
<rect x="1033" y="198" width="4" height="20" fill="#e8752c"/>
<text x="1010" y="192" font-family="'Press Start 2P'" font-size="8" fill="#e8752c" text-anchor="middle" letter-spacing="0">knitting</text>
<rect x="1083" y="190" width="45" height="5" fill="#9aa0a8"/><rect x="1083" y="195" width="5" height="5" fill="#9aa0a8"/><rect x="1088" y="195" width="5" height="5" fill="#fdf6e3"/><rect x="1093" y="195" width="5" height="5" fill="#ddd4bd"/><rect x="1098" y="195" width="5" height="5" fill="#fdf6e3"/><rect x="1103" y="195" width="5" height="5" fill="#ddd4bd"/><rect x="1108" y="195" width="5" height="5" fill="#fdf6e3"/><rect x="1113" y="195" width="5" height="5" fill="#ddd4bd"/><rect x="1118" y="195" width="5" height="5" fill="#fdf6e3"/><rect x="1123" y="195" width="5" height="5" fill="#9aa0a8"/><rect x="1083" y="200" width="5" height="5" fill="#9aa0a8"/><rect x="1088" y="200" width="5" height="5" fill="#ddd4bd"/><rect x="1093" y="200" width="5" height="5" fill="#fdf6e3"/><rect x="1098" y="200" width="5" height="5" fill="#ddd4bd"/><rect x="1103" y="200" width="5" height="5" fill="#fdf6e3"/><rect x="1108" y="200" width="5" height="5" fill="#ddd4bd"/><rect x="1113" y="200" width="5" height="5" fill="#fdf6e3"/><rect x="1118" y="200" width="5" height="5" fill="#ddd4bd"/><rect x="1123" y="200" width="5" height="5" fill="#9aa0a8"/><rect x="1083" y="205" width="5" height="5" fill="#9aa0a8"/><rect x="1088" y="205" width="5" height="5" fill="#fdf6e3"/><rect x="1093" y="205" width="5" height="5" fill="#ddd4bd"/><rect x="1098" y="205" width="5" height="5" fill="#fdf6e3"/><rect x="1103" y="205" width="5" height="5" fill="#ddd4bd"/><rect x="1108" y="205" width="5" height="5" fill="#fdf6e3"/><rect x="1113" y="205" width="5" height="5" fill="#ddd4bd"/><rect x="1118" y="205" width="5" height="5" fill="#fdf6e3"/><rect x="1123" y="205" width="5" height="5" fill="#9aa0a8"/><rect x="1083" y="210" width="5" height="5" fill="#9aa0a8"/><rect x="1088" y="210" width="5" height="5" fill="#ddd4bd"/><rect x="1093" y="210" width="5" height="5" fill="#fdf6e3"/><rect x="1098" y="210" width="5" height="5" fill="#ddd4bd"/><rect x="1103" y="210" width="5" height="5" fill="#fdf6e3"/><rect x="1108" y="210" width="5" height="5" fill="#ddd4bd"/><rect x="1113" y="210" width="5" height="5" fill="#fdf6e3"/><rect x="1118" y="210" width="5" height="5" fill="#ddd4bd"/><rect x="1123" y="210" width="5" height="5" fill="#9aa0a8"/><rect x="1083" y="215" width="5" height="5" fill="#9aa0a8"/><rect x="1088" y="215" width="5" height="5" fill="#fdf6e3"/><rect x="1093" y="215" width="5" height="5" fill="#ddd4bd"/><rect x="1098" y="215" width="5" height="5" fill="#fdf6e3"/><rect x="1103" y="215" width="5" height="5" fill="#ddd4bd"/><rect x="1108" y="215" width="5" height="5" fill="#fdf6e3"/><rect x="1113" y="215" width="5" height="5" fill="#ddd4bd"/><rect x="1118" y="215" width="5" height="5" fill="#fdf6e3"/><rect x="1123" y="215" width="5" height="5" fill="#9aa0a8"/><rect x="1083" y="220" width="45" height="5" fill="#9aa0a8"/>
<text x="1105" y="261" font-family="'Press Start 2P'" font-size="9" fill="#ffffff" text-anchor="middle" letter-spacing="0">Cotton Jersey</text>
<rect x="1165" y="206" width="58" height="4" fill="#e8752c"/>
<rect x="1231" y="206" width="4" height="4" fill="#e8752c"/>
<rect x="1227" y="202" width="4" height="12" fill="#e8752c"/>
<rect x="1223" y="198" width="4" height="20" fill="#e8752c"/>
<text x="1200" y="192" font-family="'Press Start 2P'" font-size="8" fill="#e8752c" text-anchor="middle" letter-spacing="0">dyeing</text>
<rect x="1273" y="190" width="45" height="5" fill="#0f6d75"/><rect x="1273" y="195" width="5" height="5" fill="#0f6d75"/><rect x="1278" y="195" width="5" height="5" fill="#2ba3ae"/><rect x="1283" y="195" width="5" height="5" fill="#16757e"/><rect x="1288" y="195" width="5" height="5" fill="#2ba3ae"/><rect x="1293" y="195" width="5" height="5" fill="#16757e"/><rect x="1298" y="195" width="5" height="5" fill="#2ba3ae"/><rect x="1303" y="195" width="5" height="5" fill="#16757e"/><rect x="1308" y="195" width="5" height="5" fill="#2ba3ae"/><rect x="1313" y="195" width="5" height="5" fill="#0f6d75"/><rect x="1273" y="200" width="5" height="5" fill="#0f6d75"/><rect x="1278" y="200" width="5" height="5" fill="#16757e"/><rect x="1283" y="200" width="5" height="5" fill="#2ba3ae"/><rect x="1288" y="200" width="5" height="5" fill="#16757e"/><rect x="1293" y="200" width="5" height="5" fill="#2ba3ae"/><rect x="1298" y="200" width="5" height="5" fill="#16757e"/><rect x="1303" y="200" width="5" height="5" fill="#2ba3ae"/><rect x="1308" y="200" width="5" height="5" fill="#16757e"/><rect x="1313" y="200" width="5" height="5" fill="#0f6d75"/><rect x="1273" y="205" width="5" height="5" fill="#0f6d75"/><rect x="1278" y="205" width="5" height="5" fill="#2ba3ae"/><rect x="1283" y="205" width="5" height="5" fill="#16757e"/><rect x="1288" y="205" width="5" height="5" fill="#2ba3ae"/><rect x="1293" y="205" width="5" height="5" fill="#16757e"/><rect x="1298" y="205" width="5" height="5" fill="#2ba3ae"/><rect x="1303" y="205" width="5" height="5" fill="#16757e"/><rect x="1308" y="205" width="5" height="5" fill="#2ba3ae"/><rect x="1313" y="205" width="5" height="5" fill="#0f6d75"/><rect x="1273" y="210" width="5" height="5" fill="#0f6d75"/><rect x="1278" y="210" width="5" height="5" fill="#16757e"/><rect x="1283" y="210" width="5" height="5" fill="#2ba3ae"/><rect x="1288" y="210" width="5" height="5" fill="#16757e"/><rect x="1293" y="210" width="5" height="5" fill="#2ba3ae"/><rect x="1298" y="210" width="5" height="5" fill="#16757e"/><rect x="1303" y="210" width="5" height="5" fill="#2ba3ae"/><rect x="1308" y="210" width="5" height="5" fill="#16757e"/><rect x="1313" y="210" width="5" height="5" fill="#0f6d75"/><rect x="1273" y="215" width="5" height="5" fill="#0f6d75"/><rect x="1278" y="215" width="5" height="5" fill="#2ba3ae"/><rect x="1283" y="215" width="5" height="5" fill="#16757e"/><rect x="1288" y="215" width="5" height="5" fill="#2ba3ae"/><rect x="1293" y="215" width="5" height="5" fill="#16757e"/><rect x="1298" y="215" width="5" height="5" fill="#2ba3ae"/><rect x="1303" y="215" width="5" height="5" fill="#16757e"/><rect x="1308" y="215" width="5" height="5" fill="#2ba3ae"/><rect x="1313" y="215" width="5" height="5" fill="#0f6d75"/><rect x="1273" y="220" width="45" height="5" fill="#0f6d75"/>
<text x="1295" y="261" font-family="'Press Start 2P'" font-size="9" fill="#ffffff" text-anchor="middle" letter-spacing="0">Dyed Fabric</text>
<rect x="1355" y="206" width="58" height="4" fill="#e8752c"/>
<rect x="1421" y="206" width="4" height="4" fill="#e8752c"/>
<rect x="1417" y="202" width="4" height="12" fill="#e8752c"/>
<rect x="1413" y="198" width="4" height="20" fill="#e8752c"/>
<text x="1390" y="192" font-family="'Press Start 2P'" font-size="8" fill="#e8752c" text-anchor="middle" letter-spacing="0">sewing</text>
<rect x="1458" y="185" width="15" height="5" fill="#2ba3ae"/><rect x="1483" y="185" width="5" height="5" fill="#2ba3ae"/><rect x="1498" y="185" width="15" height="5" fill="#2ba3ae"/><rect x="1458" y="190" width="25" height="5" fill="#2ba3ae"/><rect x="1488" y="190" width="25" height="5" fill="#2ba3ae"/><rect x="1458" y="195" width="55" height="5" fill="#2ba3ae"/><rect x="1458" y="200" width="55" height="5" fill="#2ba3ae"/><rect x="1463" y="205" width="45" height="5" fill="#2ba3ae"/><rect x="1468" y="210" width="35" height="5" fill="#2ba3ae"/><rect x="1468" y="215" width="35" height="5" fill="#2ba3ae"/><rect x="1468" y="220" width="35" height="5" fill="#2ba3ae"/><rect x="1468" y="225" width="35" height="5" fill="#2ba3ae"/><rect x="1468" y="230" width="35" height="5" fill="#16757e"/>
<text x="1485" y="261" font-family="'Press Start 2P'" font-size="9" fill="#ffffff" text-anchor="middle" letter-spacing="0">Cotton T-Shirt</text>
<polygon points="72,300 68,304 64,308 60,312 1580,312 1576,308 1572,304 1568,300 1580,411 1576,415 1572,419 1568,423 72,423 68,419 64,415 60,411" fill="#100d20"/>
<polygon points="72,304 68,308 64,312 1576,312 1572,308 1568,304 1576,411 1572,415 1568,419 72,419 68,415 64,411" fill="#1e1b38"/>
<rect x="72" y="415" width="1496" height="4" fill="#3a3560"/>
<rect x="72" y="304" width="1496" height="4" fill="#12102a"/>
<text x="820" y="336" font-family="'Press Start 2P'" font-size="12" fill="#a29ec4" text-anchor="middle" letter-spacing="1">AND THE OTHER TWO BRANCHES</text>
<text x="820" y="360" font-family="'Press Start 2P'" font-size="8" fill="#a29ec4" text-anchor="middle" letter-spacing="0">the cotton gin needs high-carbon steel, which needs pig iron, which needs charcoal, which needs fire — made by spinning wood on wood</text>
<text x="820" y="377" font-family="'Press Start 2P'" font-size="8" fill="#a29ec4" text-anchor="middle" letter-spacing="0">the sewing thread is waxed with paraffin, which is distilled from crude oil over that same fire</text>
<text x="820" y="394" font-family="'Press Start 2P'" font-size="8" fill="#a29ec4" text-anchor="middle" letter-spacing="0">every arrow is a real process with a citation behind it. none of it was invented.</text>
</svg>